<svg width="163" height="73" fill="none" xmlns="http://www.w3.org/2000/svg"><path d="M15.81 41.43c-.34 6.52 3.19 8.64 10.65 8.64 6.35 0 9.12-2.71 9.29-6.02.32-6.01-8.8-6.69-14.95-8.89-7.4-2.71-13.29-6.69-12.82-15.59C8.7 5.85 21.46 0 33.57 0c12.87 0 23.55 4.74 22.36 19.48H40.17c.12-2.29-.56-3.9-1.86-4.91-1.38-1.1-3.47-1.61-6.27-1.61-3.9 0-8.05 1.61-8.25 5.42-.19 3.64 2.33 4.06 10.68 6.35 8.18 2.29 17.7 6.61 17.08 18.47-.56 10.76-10.61 19.82-28.31 19.82-14.4 0-24.1-7.29-23.18-21.6h15.76l-.01.01zM62.4 11.87h11.08L68.2 31.92l.12.13c1.62-2.28 5.87-5.08 11.8-5.08 5.93 0 9.52 3.72 9.21 9.51-.12 2.21-1.08 5.6-1.56 7.3l-4.98 17.99H71.71l4.78-17.92c.41-1.56.81-3 .88-4.3.14-2.67-1.48-4.11-3.83-4.11-6.84 0-7.96 6.45-9.42 11.99l-3.75 14.34H49.29l13.1-49.89.01-.01zM92.23 36.4h8.31l-6.61 25.36h-8.31l6.61-25.36zm9.15-3.18h-8.31l1.65-6.35h8.31l-1.65 6.35zm1.43 4.84h7.38l-1.02 3.93h.09c1.16-1.52 4-3.38 7.95-3.38s6.34 2.47 6.13 6.33c-.08 1.48-.72 3.73-1.04 4.86l-3.32 11.98h-7.38l3.19-11.94c.27-1.04.54-2 .58-2.86.09-1.78-.98-2.73-2.55-2.73-4.56 0-5.3 4.3-6.28 7.99l-2.5 9.55h-7.38l6.14-23.72.01-.01zm30.12 6.73c4.58 0 7.77 2.58 7.52 7.39-.31 5.97-4.32 10.32-10.38 10.32-4.65 0-7.91-2.36-7.65-7.29.31-5.94 4.45-10.42 10.51-10.42zm-2.53 13.67c3.13 0 4.41-3.48 4.54-6.06.11-2.1-.52-3.58-2.59-3.58-2.97 0-4.33 3.94-4.45 6.19-.1 1.9.56 3.45 2.5 3.45zm20.251 3.31h-3.48l.37-1.35h-.04c-.8 1.16-1.9 1.67-3.27 1.67-2.85 0-3.93-2.03-3.79-4.67.19-3.55 2.39-6.92 6.19-6.92 1.52 0 2.55.55 2.9 1.77h.04l1.01-4.27h3.59l-3.51 13.77h-.01zm-1.92-6.5c.06-1.2-.55-2.03-1.73-2.03-2.03 0-2.88 2.26-2.97 3.97-.06 1.16.39 2.13 1.7 2.13 2.01 0 2.91-2.41 3-4.07zm5.249.19c.6-2.38 2.39-3.08 4.63-3.08 2.53 0 4.14.61 4.04 2.39-.06 1.21-.88 3.75-1.14 4.59-.19.63-.35 1.21-.37 1.7-.01.32.04.55.09.7h-2.94c-.05-.44-.05-.4-.03-.88h-.03c-.6.81-1.52 1.14-2.82 1.14-1.71 0-2.94-.69-2.84-2.57.13-2.44 2.33-2.92 4.68-3.1 1.02-.05 2.43.02 2.49-1.18.03-.53-.32-.88-1.22-.88-.95 0-1.54.28-1.71 1.14h-2.83v.03zm2.76 4.73c1.81 0 2.26-1.78 2.41-2.6h-.02c-.79.63-3.46-.11-3.55 1.65-.04.72.57.95 1.16.95zM43.02 70.51h-.13l.26-1.43h.22c.03.71.46 1.35 1.22 1.35.62 0 1.15-.42 1.18-1.06.02-.49-.24-.67-.62-.87-.24-.12-.47-.25-.7-.36-.58-.29-.84-.69-.81-1.35.03-.78.67-1.41 1.46-1.41.39 0 .78.15 1.05.43l.31-.31h.17l-.24 1.33h-.23c-.05-.68-.32-1.25-1.09-1.25-.47 0-.94.38-.96.86-.02.43.47.64.98.89s1.03.55 1.16 1.13c.03.15.04.27.03.43-.04 1.01-.73 1.75-1.77 1.75-.41 0-.75-.17-1.04-.44l-.44.32-.01-.01zm5.22-4.9h-.6l.06-.19 1.4-.05-.75 2.84c.37-.37.75-.73 1.3-.73.37 0 .68.2.66.6 0 .11-.05.31-.11.53l-.3 1.05c-.06.21-.11.41-.12.44 0 .09.05.14.14.14.3 0 .62-.57.74-.82l.16.05c-.09.22-.21.42-.36.6-.21.26-.61.53-.9.53-.26 0-.57-.12-.56-.44 0-.09.05-.31.11-.53l.3-1.1c.16-.57.18-.75-.21-.75-.2 0-.51.26-.64.41-.19.2-.35.47-.42.73l-.43 1.57h-.77l1.29-4.9.01.02zm3.01 2.11l.06-.19H52c.23 0 .46-.03.69-.03l-.58 2.16c-.04.16-.12.38-.12.46 0 .11.05.16.16.16.32 0 .6-.59.75-.83l.16.06c-.15.29-.32.57-.55.81-.19.2-.48.32-.74.29-.3-.04-.54-.17-.52-.52 0-.07.02-.25.08-.45l.52-1.93h-.59l-.01.01zm1.3-1.25c-.23 0-.42-.2-.41-.44 0-.22.23-.43.44-.43s.43.2.42.43c0 .24-.22.44-.45.44zm2.14 1.77v.02c.34-.41.77-.77 1.31-.77.36 0 .66.2.65.6 0 .14-.03.25-.07.38l-.46 1.64c-.03.11.05.17.16.17.21 0 .64-.64.71-.83l.15.07c-.19.4-.49.91-.94 1.02-.18.05-.25.05-.43.05-.23 0-.48-.17-.47-.42 0-.18.25-.92.31-1.15.04-.14.28-.9.28-.98 0-.17-.16-.23-.3-.23-.46 0-.98.76-1.08 1.17l-.41 1.56h-.78l.74-2.79h-.59l.06-.19h.69c.23 0 .46-.03.69-.03l-.22.74v-.03zm5.64-.45c.27.26.42.56.41.95-.04.97-.98 1.89-1.95 1.89-.15 0-.3-.02-.45-.06-.57-.13-.87-.64-.85-1.25.02-.55.41-1.05.8-1.4.27-.23.61-.42 1.11-.42.32 0 .69.08.93.3v-.01zm-1.7.53c-.12.34-.33 1.14-.34 1.5-.01.4.06.62.51.62.13 0 .27-.03.39-.08.32-.12.5-.89.58-1.17.07-.24.17-.76.18-.98.02-.39-.19-.53-.55-.53-.42 0-.63.28-.77.65v-.01zm5.87-2.71h-.67l.06-.19 1.45-.05-1.24 4.74c-.02.07.03.17.12.17.26 0 .64-.59.73-.81l.13.07c-.22.5-.62 1.08-1.22 1.08-.38 0-.49-.21-.51-.56-.28.35-.56.56-1.02.56-.72 0-1.14-.49-1.11-1.21.03-.75.71-1.67 1.44-1.86.16-.05.24-.06.41-.06.39 0 .66.18.8.53l.63-2.41zm-2.09 4.83c.49 0 .79-.36.98-.78.16-.38.34-.96.36-1.35.01-.38-.21-.62-.6-.62-.49 0-.72.61-.86.99-.13.38-.3.96-.31 1.35 0 .26.19.42.43.42v-.01zm5.73-2.85h.73l-.56 1.95c-.08.26-.15.46-.15.58 0 .1.04.17.14.17.24 0 .61-.62.71-.83l.15.05c-.19.49-.64 1.11-1.21 1.11-.32 0-.53-.23-.54-.54-.25.35-.57.54-1 .54-.62 0-.99-.46-.96-1.26.03-.85.9-1.88 1.79-1.88.39 0 .65.3.7.67h.01l.19-.56zm-1.56 2.85c.14 0 .26-.08.38-.14.51-.25.84-1.44.85-1.93.01-.31-.15-.69-.49-.69-.34 0-.55.13-.91 1.3-.44 1.42-.12 1.46.16 1.46h.01zm5.72-4.95h2.06c1.44 0 2.24.71 2.19 2.16-.05 1.48-1.29 2.86-3.18 2.86h-2.05l.04-.19h.45l1.14-4.65h-.7l.04-.19.01.01zm.44 4.83h.6c.89 0 1.26-.2 1.65-.99.39-.79.59-1.77.61-2.4.04-1.05-.42-1.26-1.36-1.26h-.36l-1.15 4.65h.01zm6.88-.57c-.38.62-.88.87-1.57.87-.65 0-1.22-.56-1.2-1.22.04-.96.95-1.92 1.94-1.92.5 0 1.02.25 1 .83-.01.38-.28.6-.59.77-.21.11-.44.16-.89.16h-.56c-.09.2-.12.42-.13.65-.01.35.27.53.61.53.53 0 .97-.32 1.25-.76l.16.07-.02.02zm-1.55-.69c.61 0 1.04-.23 1.06-.9 0-.27-.1-.49-.39-.49-.65 0-.77.92-.95 1.38h.28v.01zm3.06 1.56c-.44 0-1-.16-.98-.7 0-.2.19-.35.37-.35.2 0 .33.15.32.35 0 .13-.15.25-.16.32 0 .16.34.22.45.2.3 0 .69-.11.7-.47.02-.59-1.24-.82-1.21-1.54.02-.6.58-.94 1.12-.94.47 0 .86.24.85.5 0 .23-.13.37-.36.37-.14 0-.28-.13-.28-.27 0-.11.08-.17.11-.28 0-.13-.23-.13-.33-.13-.21 0-.53.09-.54.35-.02.51 1.24.65 1.21 1.59-.02.66-.68 1-1.27 1zm2.08-2.9l.06-.19h.69c.23 0 .46-.03.69-.03l-.58 2.16c-.04.16-.12.38-.12.46 0 .11.06.16.16.16.32 0 .6-.59.75-.83l.16.06c-.15.29-.32.57-.55.81-.19.2-.48.32-.74.29-.3-.04-.54-.17-.52-.52 0-.07.02-.25.08-.45l.51-1.93h-.59v.01zm1.3-1.25c-.23 0-.42-.2-.41-.44 0-.22.23-.43.44-.43s.43.2.42.43c0 .24-.22.44-.45.44zm3.56 1.58c.08-.27.2-.63.54-.63.17 0 .27.12.27.29 0 .14-.13.23-.24.25-.07 0-.11-.01-.15-.05-.04-.02-.07-.05-.12-.05-.17 0-.25.58-.28.71-.13.57-.71.98-1.27.98-.27 0-.53-.05-.75-.2-.18.08-.44.2-.45.43 0 .05.07.1.11.1.3.06.62.05.93.06 1.23.05 1.43.26 1.41.82-.02.62-.51 1.17-1.08 1.37-.3.11-.54.14-.98.14-.49 0-1.38-.27-1.36-.89.02-.47.52-.79.95-.83v-.02c-.28-.07-.44-.22-.43-.53 0-.19.06-.45.77-.77-.16-.21-.23-.38-.22-.67.03-.7.78-1.08 1.4-1.08.43 0 .78.16.97.56l-.02.01zm-1.85 4.03c.63 0 1.47-.35 1.49-1.07 0-.23-.13-.27-.31-.32-.13-.03-.41-.08-1.49-.08-.35 0-.75.37-.76.72-.02.59.6.74 1.07.74v.01zm.53-2.72c.39 0 .41-.04.71-.92.19-.59.04-.77-.38-.77-.44 0-.67.44-.76 1.24-.05.38.23.44.43.44v.01zm3.65-1.12v.02c.34-.41.77-.77 1.31-.77.36 0 .66.2.65.6 0 .14-.03.25-.07.38l-.46 1.64c-.04.11.05.17.16.17.21 0 .64-.64.71-.83l.15.07c-.19.4-.49.91-.94 1.02-.18.05-.25.05-.43.05-.23 0-.48-.17-.47-.42 0-.18.25-.92.31-1.15.04-.14.28-.9.29-.98 0-.17-.16-.23-.3-.23-.46 0-.98.76-1.08 1.17l-.41 1.56h-.78l.74-2.79h-.6l.06-.19h.69c.23 0 .46-.03.69-.03l-.22.74v-.03zm6.67-2.44c.41-.27.83-.43 1.23-.43 1.12 0 1.88.96 1.84 2.03-.03.85-.45 1.56-1.02 2.17-.53.6-1.23 1.05-2.05 1.05-1.13 0-1.83-.96-1.79-2.03.04-1.12.87-2.18 1.79-2.79zm.09 4.64c.89 0 1.2-.73 1.5-1.43.25-.6.49-1.68.51-2.32.02-.65-.16-1.13-.89-1.13-.46 0-.77.18-1.06.53-.39.49-.94 1.99-.98 3.2-.03.87.29 1.14.91 1.14l.01.01zm4.99-2.84h.74l-.06.19h-.72l-.25 1c-.08.33-.17.66-.26.98-.16.53-.53 1.44-.87 1.88-.34.45-.61.62-1.17.62-.29 0-.57-.22-.55-.51 0-.2.16-.36.37-.36.17 0 .35.11.34.3 0 .09-.04.14-.07.18-.03.04-.06.06-.06.11 0 .1.12.1.19.1.25 0 .48-.19.67-.75.13-.39.22-.8.31-1.2l.55-2.34h-.75l.06-.19h.75c.25-.79.62-1.77 1.43-2.13.12-.05.27-.1.48-.1.36 0 .78.19.77.6 0 .26-.17.39-.42.39-.22 0-.33-.13-.34-.34-.01-.12.08-.24.15-.3.17-.14-.13-.16-.2-.16-.37 0-.62.35-.74.8l-.33 1.23h-.02zm3.18 0h.74l-.06.19h-.72l-.25 1c-.08.33-.17.66-.26.98-.15.53-.53 1.44-.87 1.88-.34.45-.61.62-1.17.62-.29 0-.57-.22-.55-.51 0-.2.16-.36.37-.36.17 0 .35.11.34.3 0 .09-.03.14-.07.18-.03.04-.06.06-.06.11 0 .1.12.1.19.1.25 0 .48-.19.68-.75.13-.39.22-.8.31-1.2l.55-2.34h-.75l.06-.19h.75c.25-.79.62-1.77 1.43-2.13.12-.05.27-.1.48-.1.36 0 .78.19.77.6 0 .26-.17.39-.42.39-.22 0-.32-.13-.34-.34 0-.12.08-.24.15-.3.17-.14-.13-.16-.2-.16-.37 0-.62.35-.74.8l-.33 1.23h-.03zm1.58.12l.06-.19h.69c.23 0 .46-.03.69-.03l-.58 2.16c-.04.16-.12.38-.12.46 0 .11.05.16.16.16.32 0 .6-.59.75-.83l.16.06c-.15.29-.32.57-.55.81-.19.2-.48.32-.74.29-.3-.04-.54-.17-.52-.52 0-.07.02-.25.08-.45l.51-1.93h-.59v.01zm1.3-1.25c-.23 0-.42-.2-.41-.44 0-.22.23-.43.44-.43s.43.2.42.43c0 .24-.22.44-.45.44zm3.38 3.23c-.34.56-.82.92-1.48.92-.73 0-1.2-.56-1.17-1.28.03-.95 1.02-1.86 1.96-1.86.42 0 .96.18.95.69 0 .24-.22.37-.43.37-.17 0-.35-.16-.35-.33 0-.1.03-.15.07-.2.04-.04.16-.08.16-.14.04-.17-.34-.19-.45-.19-.48 0-.68.46-.81.84-.1.32-.32 1.01-.33 1.32-.01.35.19.6.54.6.51 0 .93-.41 1.21-.8l.14.07-.01-.01zm3.42.05c-.38.62-.87.87-1.57.87-.65 0-1.22-.56-1.2-1.22.04-.96.95-1.92 1.94-1.92.5 0 1.02.25 1 .83-.01.38-.28.6-.59.77-.21.11-.44.16-.89.16h-.56c-.09.2-.12.42-.13.65-.01.35.27.53.6.53.53 0 .97-.32 1.25-.76l.16.07-.01.02zm-1.55-.69c.61 0 1.04-.23 1.06-.9 0-.27-.1-.49-.39-.49-.66 0-.77.92-.95 1.38h.28v.01zm4.1-1.34l.06-.19h.69c.23 0 .46-.03.69-.03l-.58 2.16c-.04.16-.12.38-.12.46 0 .11.05.16.16.16.32 0 .6-.59.75-.83l.16.06c-.15.29-.32.57-.55.81-.19.2-.48.32-.74.29-.3-.04-.54-.17-.52-.52 0-.07.02-.25.08-.45l.52-1.93h-.6v.01zm1.3-1.25c-.23 0-.42-.2-.41-.44 0-.22.23-.43.45-.43s.43.2.42.43c0 .24-.22.44-.45.44h-.01zm2.13 1.77v.02c.34-.41.77-.77 1.31-.77.36 0 .66.2.65.6 0 .14-.03.25-.07.38l-.46 1.64c-.03.11.05.17.16.17.21 0 .64-.64.71-.83l.15.07c-.19.4-.49.91-.94 1.02-.18.05-.25.05-.43.05-.23 0-.48-.17-.47-.42 0-.18.25-.92.31-1.15.04-.14.28-.9.28-.98 0-.17-.16-.23-.3-.23-.46 0-.98.76-1.08 1.17l-.41 1.56h-.77l.73-2.79h-.59l.06-.19h.69c.23 0 .46-.03.69-.03l-.22.74v-.03zm5.43 1.46c-.34.56-.82.92-1.48.92-.73 0-1.2-.56-1.17-1.28.03-.95 1.02-1.86 1.96-1.86.42 0 .97.18.95.69 0 .24-.22.37-.44.37-.16 0-.35-.16-.35-.33 0-.1.03-.15.07-.2.04-.04.15-.08.16-.14.04-.17-.34-.19-.45-.19-.48 0-.68.46-.81.84-.1.32-.32 1.01-.33 1.32-.01.35.19.6.54.6.51 0 .93-.41 1.21-.8l.14.07v-.01zm2.05.44c0 .26-.26.48-.49.48-.23 0-.48-.22-.47-.48.01-.27.27-.48.51-.48s.47.21.46.48h-.01z" fill="#333"/></svg>