<svg width="214" height="55" fill="none" xmlns="http://www.w3.org/2000/svg"><path d="M20.48 30.594c0 3.776-3.91 6.096-7.762 6.096-1.674 0-4.035-.871-4.035-3.718 0-3.366 2.67-4.12 5.894-4.638 3.6-.52 5.024-1.047 5.895-1.683v3.943h.008zm8.498-11.671c0-7.603-8.498-8.943-13.153-8.943-6.766 0-13.774 1.332-14.77 10.801h8.381c.243-1.8.997-4.295 5.334-4.295 2.235 0 5.71.176 5.71 3.6 0 1.742-1.675 2.261-3.04 2.437l-7.82 1.105C4.094 24.382 0 27.463 0 33.5c0 6.388 5.09 9 10.056 9 5.894 0 8.69-2.553 10.675-4.47.184 1.74.31 2.201.804 3.658h9.37v-1.222c-1.056-.343-1.927-1.164-1.927-4.815V18.923zm13.982 7.543c0-4.881 1.86-9.46 7.385-9.46 5.962 0 7.444 4.99 7.444 9.93 0 4.58-2.169 8.883-7.695 8.883-5.584 0-7.133-5.685-7.133-9.344v-.009zM66.112 0h-8.69v14.803h-.126c-1.365-1.976-3.969-4.814-9.553-4.814-7.26 0-13.715 5.224-13.715 15.908 0 8.473 4.094 16.603 13.899 16.603 3.6 0 7.443-1.222 9.561-4.705h.126v3.893h8.498V0zm12.935 23.16c.495-4.062 2.671-6.498 6.766-6.498 2.796 0 6.204 1.507 6.706 6.497H79.047zm13.096 9.46c-.679 2.21-3.165 3.366-5.585 3.366-7.017 0-7.51-5.224-7.753-7.544h22.648v-1.448c0-14.108-9-17.005-15.515-17.005-14.46 0-15.824 11.898-15.824 15.615 0 12.71 7.142 16.896 16.444 16.896 5.651 0 12.224-2.436 14.527-9.871h-8.942v-.009zm33.683-12.416c-.377-1.976-1.122-4.061-5.836-4.061-4.713 0-5.333 1.683-5.333 3.022 0 4.873 20.664 1.34 20.664 12.71 0 9.001-9.311 10.625-14.46 10.625-7.51 0-15.64-2.436-15.883-10.683h8.934c0 2.612 1.741 4.53 7.2 4.53 4.471 0 5.518-2.035 5.518-3.19 0-5.167-20.48-1.282-20.48-12.828 0-4.53 3.04-10.332 13.346-10.332 6.456 0 14.15 1.507 14.829 10.215h-8.499v-.008z" fill="#0D3158"/><path d="M150.275 18.638v23.184h-6.523V18.638h6.523zm0-2.746h-6.523v-5.66h6.523v5.66zm27.966 25.922h-6.523V27.739c0-1.7-.092-4.58-4.236-4.58-2.889 0-5.125 1.834-5.125 5.359v13.287h-6.522V18.621h6.246v3.4h.092c.888-1.39 2.746-4.011 7.452-4.011 4.705 0 8.616 2.662 8.616 7.753v16.051zm25.997-8.448c-.234 2.394-2.236 9.059-11.32 9.059-9.085 0-11.462-6.665-11.462-11.546 0-7.494 3.491-12.852 11.881-12.852 3.91 0 10.34 1.657 10.951 8.892h-6.614c-.285-1.524-1.306-3.919-4.329-3.751-4.103 0-5.174 3.834-5.174 6.706 0 2.529.092 7.544 5.032 7.544 3.307 0 4.429-2.964 4.429-4.052h6.614-.008zm9.687 8.448h-6.991V35.45h6.991v6.364z" fill="#9FA0A0"/><path d="M26.182 24.24c2.712-2.312 2.796-5.317 2.796-5.317 0-7.603-8.498-8.943-13.145-8.943 3.76.352 8.8 1.164 9.453 5.192.536 3.34-2.21 6.254-7.837 7.35l-7.82 1.106c-5.526.754-9.62 3.835-9.62 9.872 0 3.19 1.272 5.442 3.164 6.89-1.314-10.951 8.239-11.58 11.48-12.023 3.934-.544 9.176-2.11 11.537-4.12l-.008-.008z" fill="url(#paint0_radial_872_167)"/><path d="M127.308 23.662c9.78 6.656-1.49 20.06-13.949 17.859 2.353.686 4.974.97 7.511.97 5.149 0 14.46-1.623 14.46-10.624 0-4.831-3.735-6.975-8.022-8.206z" fill="url(#paint1_radial_872_167)"/><path d="M39.955 33.592c-5.635-7.05-5.082-16.855 1.23-21.904.118-.092.235-.175.352-.268-4.37 2.22-7.518 7.008-7.518 14.469 0 8.473 4.094 16.603 13.898 16.603 2.747 0 5.635-.712 7.787-2.596-5.5 1.039-11.68-1.214-15.75-6.304z" fill="url(#paint2_radial_872_167)"/><path d="M92.745 11.22c-2.269-.913-4.663-1.231-6.798-1.231-14.46 0-15.825 11.898-15.825 15.615 0 1.926.168 3.65.477 5.2 2.152-12.828 14.67-19.216 22.146-19.584z" fill="url(#paint3_radial_872_167)"/><path d="M3.684 50.99c-.084-.62-.26-.695-.812-.703l-1.08-.017v1.625c0 .552.15.644.678.67v.142H.394v-.142c.552-.026.644-.143.644-.746v-3.215c0-.586-.176-.628-.644-.661V47.8h3.935l.025 1.064H4.17c-.11-.662-.302-.779-1.122-.779H2.043c-.184 0-.234.033-.234.251v1.65h1.08c.602 0 .736-.151.812-.704h.167V51h-.167l-.017-.009zm2.571 1.583c-.888 0-1.064-1.365-1.064-1.91 0-.77.41-1.155.88-1.155.678 0 1.054.804 1.054 1.725 0 1.064-.494 1.34-.87 1.34zm-.126-3.282c-.996 0-1.6.812-1.6 1.716 0 .997.67 1.767 1.625 1.767 1.13 0 1.65-1.03 1.65-1.767 0-1.072-.695-1.716-1.667-1.716H6.13zm2.453.937c0-.435-.142-.443-.26-.443a.99.99 0 00-.25.033v-.117c.36-.117.736-.251 1.096-.402l.034.017v.661h.016c.352-.527.603-.678.888-.678.251 0 .402.16.402.402 0 .184-.1.327-.285.327-.26 0-.335-.26-.51-.26-.176 0-.503.368-.503.611v1.666c0 .511.251.545.628.553v.109H8.063v-.109c.41-.075.527-.092.527-.51v-1.851l-.008-.009zm6.673 1.482c-.142.16-.368.427-.703.427-.36 0-.51-.36-.51-.67 0-.862.979-1.155 1.213-1.205v1.448zm1.792.36l-.1.1s-.059.043-.1.043c-.219 0-.219-.193-.219-.251v-2.596c0-.938-.887-1.365-1.992-1.365-1.231 0-1.859.603-1.859 1.231 0 .678.536.678.661.678.52 0 .67-.377.67-.552 0-.386-.301-.47-.301-.678 0-.16.226-.36.586-.36.737 0 .87.368.87.87v.729c-1.414.427-2.67.829-2.67 1.858 0 .754.62 1.064 1.097 1.064.234 0 .937-.05 1.582-.695.059.276.134.695.837.695.452 0 .813-.235 1.097-.57l-.15-.209-.009.009zm2.788-.125c-.058.268-.351.444-.661.444-.494 0-1.022-.419-1.022-1.516s.503-1.373.921-1.373c.352 0 .712.234.77.737v1.708h-.008zm1.114.326c-.494.042-.494-.108-.494-.418V47.65l-.033-.017c-.36.125-.72.226-1.089.326v.118h.176c.326 0 .326.159.326.376v1.156c-.242-.218-.469-.318-.787-.318-.829 0-1.532.854-1.532 1.825 0 1.515 1.063 1.658 1.348 1.658.553 0 .829-.276.955-.477h.016v.452l.025.025c.394-.143.737-.26 1.089-.385v-.118zm3.609-2.796c-.252.025-.302.142-.486.578l-.946 2.378c-.084.2-.15.376-.201.376-.067 0-.084-.033-.201-.351-.176-.46-.888-2.177-1.155-2.705-.11-.218-.26-.268-.41-.276v-.109h1.456v.109c-.176.017-.343.042-.343.226 0 .092.042.2.067.26l.753 1.9c.252-.711.779-1.867.779-2.135 0-.167-.16-.234-.343-.243v-.108h1.03v.108-.008zm.778.938c.117-.653.402-.854.812-.854.587 0 .662.494.712.854h-1.524zm2.303 1.071c-.168.277-.486.78-1.147.78-.486 0-1.089-.302-1.18-1.617h2.302c-.084-.971-.612-1.356-1.306-1.356-.595 0-1.516.452-1.516 1.825 0 1.055.56 1.658 1.39 1.658 1.063 0 1.499-1.005 1.574-1.24l-.117-.05zm.828-1.256c0-.435-.142-.443-.26-.443-.1 0-.183.016-.25.033v-.117c.36-.117.736-.251 1.096-.402l.042.017v.661h.017c.352-.527.603-.678.88-.678.25 0 .401.16.401.402 0 .184-.109.327-.285.327-.26 0-.335-.26-.51-.26-.176 0-.503.368-.503.611v1.666c0 .511.252.545.628.553v.109h-1.775v-.109c.41-.075.528-.092.528-.51v-1.851l-.009-.009zm3.802-.619h-.745v2.118c0 .226 0 .67.376.67.235 0 .369-.16.453-.26l.092.084c-.176.318-.528.561-.863.561-.377 0-.686-.2-.686-.938v-2.227h-.394c-.017 0-.025-.033-.025-.05 0-.092.16-.134.327-.301.284-.285.393-.453.67-.846.05 0 .05.033.05.1v.863h.745v.234-.008zm.284 2.981c.46-.026.586-.067.586-.645v-1.717c0-.435-.142-.443-.26-.443-.108 0-.2.017-.292.033v-.109c.385-.125.762-.268 1.147-.41l.033.025v2.63c0 .485.042.61.553.644v.109h-1.758v-.109l-.009-.008zm.83-4.949c.225 0 .384.168.384.377a.372.372 0 01-.385.377c-.268 0-.368-.235-.368-.377 0-.142.109-.377.368-.377zm3.34 2.739c-.168-.754-.494-.913-.82-.913-.41 0-.562.284-.562.477 0 .15.042.36.319.527l.803.478c.36.226.62.435.62.879 0 .644-.603.954-1.08.954-.335 0-.653-.142-.854-.134-.092 0-.117.017-.168.092h-.092v-1.155h.117c.093.393.227 1.038.955 1.038.251 0 .603-.117.603-.544 0-.235-.15-.41-.385-.553l-.427-.243c-.46-.26-.871-.535-.871-1.08 0-.418.318-.904 1.038-.904.327 0 .553.15.678.15.067 0 .1-.05.126-.083h.084l.033 1.013h-.117zm.779 2.21c.46-.026.586-.067.586-.645v-1.717c0-.435-.142-.443-.26-.443-.1 0-.2.017-.3.033v-.109c.384-.125.761-.268 1.146-.41l.034.025v2.63c0 .485.041.61.552.644v.109h-1.758v-.117zm.829-4.949c.226 0 .385.168.385.377 0 .218-.16.377-.385.377-.268 0-.369-.235-.369-.377 0-.142.11-.377.369-.377zm1.708 2.554c0-.469-.143-.477-.26-.477-.1 0-.184.016-.218.033v-.125c.335-.1.687-.21 1.022-.335l.05.017v.586c.36-.344.645-.603 1.08-.603.344 0 .871.2.871 1.113v1.7c0 .352.092.46.452.486v.108h-1.54v-.108c.276-.026.468-.059.468-.62v-1.549c0-.452-.133-.72-.569-.72-.226 0-.452.15-.737.419v2.084c0 .243.1.36.486.386v.108H39.57v-.108c.352-.026.46-.118.46-.553v-1.834l.009-.008zm3.834 3.173c0-.226.135-.377.36-.653.352.075.511.075 1.206.092.553.017.913.034.913.36 0 .394-.502.72-1.373.72s-1.114-.301-1.114-.527l.008.008zm.402-3.198c0-.494.285-.67.553-.67.636 0 .754.996.754 1.197 0 .201-.042.712-.545.712-.577 0-.77-.661-.77-1.248l.008.009zm2.362-.343v-.285h-.57a1.1 1.1 0 01-.402-.075c-.293-.11-.46-.176-.72-.176-.56 0-1.272.36-1.272 1.239 0 .427.25.77.686.963-.661.586-.661.678-.661.804 0 .209.192.293.393.393-.377.268-.728.57-.728.904 0 .394.552.72 1.314.72.67 0 1.9-.418 1.9-1.255 0-.21-.1-.754-.895-.796l-.954-.042c-.227 0-.578-.033-.578-.2 0-.151.293-.453.444-.47.041 0 .31.042.401.042.42 0 1.181-.284 1.181-1.088 0-.369-.067-.511-.142-.687h.62l-.017.009zm4.203 1.967c0 .218-.025.31-.251.419-.067.033-.293.134-.46.134-.277 0-.495-.235-.495-.578v-.017c0-.25.084-.67 1.197-1.038v1.072l.009.008zm1.147.419c-.084.067-.176.142-.335.142-.218 0-.218-.217-.218-.427V50.48c0-.444 0-1.19-1.105-1.19-.862 0-1.206.528-1.206.821 0 .117.093.327.319.327a.339.339 0 00.334-.318c0-.067-.041-.176-.041-.285 0-.226.284-.36.527-.36.218 0 .57.084.57.611v.452c-1.206.478-1.86.729-1.86 1.466 0 .494.386.77.788.77s.803-.293 1.071-.544c.034.535.352.544.486.544.117 0 .343 0 .661-.369v-.192h.009zm.603-2.018c0-.469-.143-.477-.26-.477-.1 0-.184.016-.218.033v-.125c.335-.1.687-.21 1.022-.335l.05.017v.586c.36-.344.645-.603 1.08-.603.343 0 .87.2.87 1.113v1.7c0 .352.093.46.453.486v.108h-1.54v-.108c.276-.026.468-.059.468-.62v-1.549c0-.452-.134-.72-.57-.72-.225 0-.451.15-.736.419v2.084c0 .243.1.36.486.386v.108H52.12v-.108c.351-.026.46-.118.46-.553v-1.834l.009-.008zm5.634 1.75c-.058.268-.351.444-.661.444-.494 0-1.022-.419-1.022-1.516s.503-1.373.922-1.373c.343 0 .711.234.761.737v1.708zm1.122.326c-.494.042-.494-.108-.494-.418V47.65l-.041-.017c-.352.125-.72.226-1.089.326v.118h.184c.327 0 .327.159.327.376v1.156c-.243-.218-.469-.318-.787-.318-.83 0-1.532.854-1.532 1.825 0 1.515 1.063 1.658 1.348 1.658.552 0 .82-.276.954-.477h.017v.452l.033.025c.394-.143.737-.26 1.089-.385v-.118h-.009zm5.259-.678c0 .11-.369.695-.83.695-.795 0-.795-1.29-.795-1.867 0-.963.134-1.859.846-1.859.553 0 .779.611.779.62v2.42-.009zm1.976.678c-.57-.016-.587-.31-.587-.577v-5.71H63.86v.234c.545.042.754.05.754.578v1.816c-.234-.259-.578-.62-1.172-.62-.938 0-1.918.83-1.918 2.555 0 1.457.913 2.285 1.742 2.285.745 0 1.021-.276 1.382-.653v.645c.62-.167.703-.176 1.942-.326v-.227h-.008zm.929-1.858c.117-.653.41-.854.812-.854.586 0 .661.494.711.854H67.51zm2.31 1.071c-.167.277-.485.78-1.147.78-.494 0-1.088-.302-1.18-1.617h2.302c-.083-.971-.61-1.356-1.306-1.356-.594 0-1.515.452-1.515 1.825 0 1.055.56 1.658 1.381 1.658 1.072 0 1.499-1.005 1.574-1.24l-.117-.05h.008zm2.488-1.104c-.168-.754-.494-.913-.82-.913-.411 0-.562.284-.562.477 0 .15.042.36.319.527l.803.478c.36.226.62.435.62.879 0 .644-.603.954-1.072.954-.335 0-.653-.142-.862-.134-.092 0-.117.017-.16.092h-.1v-1.155h.117c.093.393.227 1.038.955 1.038.251 0 .603-.117.603-.544 0-.235-.151-.41-.385-.553l-.436-.243c-.46-.26-.862-.535-.862-1.08 0-.418.318-.904 1.038-.904.327 0 .561.15.687.15.067 0 .1-.05.125-.083h.084l.033 1.013h-.125zm.778 2.21c.46-.026.587-.067.587-.645v-1.717c0-.435-.143-.443-.26-.443-.1 0-.201.017-.293.033v-.109c.385-.125.762-.268 1.147-.41l.034.025v2.63c0 .485.041.61.552.644v.109h-1.758v-.109l-.009-.008zm.83-4.949c.225 0 .385.168.385.377 0 .218-.16.377-.386.377-.268 0-.368-.235-.368-.377 0-.142.109-.377.368-.377zm1.841 5.727c0-.226.134-.377.36-.653.352.075.51.075 1.206.092.552.017.912.034.912.36 0 .394-.502.72-1.373.72-.87 0-1.113-.301-1.113-.527l.008.008zm.402-3.198c0-.494.284-.67.552-.67.637 0 .754.996.754 1.197 0 .16-.042.712-.544.712-.578 0-.77-.661-.77-1.248l.008.009zm2.353-.343v-.285h-.57c-.117 0-.25-.017-.41-.075-.293-.11-.46-.176-.72-.176-.561 0-1.273.36-1.273 1.239 0 .427.251.77.687.963-.662.586-.662.678-.662.804 0 .209.193.293.394.393-.377.268-.728.57-.728.904 0 .394.552.72 1.314.72.67 0 1.9-.418 1.9-1.255 0-.21-.1-.754-.895-.796l-.955-.042c-.226 0-.578-.033-.578-.2 0-.151.294-.453.444-.47.042 0 .31.042.402.042.419 0 1.18-.284 1.18-1.088 0-.369-.066-.511-.142-.687h.612v.009zm.821.368c0-.469-.143-.477-.26-.477-.1 0-.184.016-.217.033v-.125c.334-.1.686-.21 1.021-.335l.05.017v.586c.36-.344.645-.603 1.08-.603.344 0 .871.2.871 1.113v1.7c0 .352.092.46.452.486v.108h-1.54v-.108c.276-.026.468-.059.468-.62v-1.549c0-.452-.133-.72-.569-.72-.226 0-.452.15-.737.419v2.084c0 .243.11.36.486.386v.108h-1.574v-.108c.352-.026.46-.118.46-.553v-1.834l.009-.008zm7.258-.586h-.904v2.328c0 .452 0 .644.687.661v.109h-1.926v-.109c.485-.025.611-.092.611-.661v-2.328h-.611v-.235h.611c0-.41 0-1.724 1.331-1.724.419 0 .745.2.745.452 0 .218-.167.31-.318.31-.31 0-.351-.553-.695-.553-.41 0-.444.385-.444.661v.863h.913v.234-.008z" fill="#9FA0A0"/><path d="M87.328 50.228c0-.435-.142-.443-.26-.443a.956.956 0 00-.25.033v-.117c.368-.117.736-.251 1.096-.402l.042.017v.661h.017c.352-.527.603-.678.887-.678.252 0 .402.16.402.402 0 .184-.109.327-.284.327-.26 0-.335-.26-.511-.26s-.502.368-.502.611v1.666c0 .511.25.545.627.553v.109h-1.775v-.109c.41-.075.528-.092.528-.51v-1.851l-.017-.009zm3.852 2.345c-.888 0-1.064-1.365-1.064-1.91 0-.77.41-1.155.88-1.155.678 0 1.055.804 1.055 1.725 0 1.064-.494 1.34-.871 1.34zm-.126-3.282c-.996 0-1.599.812-1.599 1.716 0 .997.67 1.767 1.624 1.767 1.13 0 1.65-1.03 1.65-1.767 0-1.072-.695-1.716-1.666-1.716h-.009zm2.478.904c0-.469-.142-.477-.26-.477a.55.55 0 00-.217.033v-.125c.335-.1.678-.21 1.022-.335l.05.017v.586c.36-.344.645-.603 1.08-.603.343 0 .87.2.87 1.113v1.7c0 .352.093.46.453.486v.108h-1.54v-.108c.276-.026.468-.059.468-.62v-1.549c0-.452-.134-.72-.57-.72-.217 0-.451.15-.736.419v2.084c0 .243.1.36.486.386v.108h-1.575v-.108c.352-.026.461-.118.461-.553v-1.834l.008-.008zm5.008-.586h-.745v2.118c0 .226 0 .67.376.67.235 0 .369-.16.453-.26l.1.084c-.176.318-.528.561-.87.561-.377 0-.679-.2-.679-.938v-2.227h-.394c-.016 0-.033-.033-.033-.05 0-.092.16-.134.327-.301.284-.285.393-.453.67-.846.05 0 .05.033.05.1v.863h.745v.234-.008zm.293 2.981c.46-.026.586-.067.586-.645v-1.717c0-.435-.142-.443-.26-.443-.1 0-.2.017-.293.033v-.109c.386-.125.762-.268 1.148-.41l.033.025v2.63c0 .485.034.61.553.644v.109h-1.759v-.109l-.008-.008zm.829-4.949c.226 0 .385.168.385.377a.367.367 0 01-.385.377c-.268 0-.369-.235-.369-.377 0-.142.11-.377.369-.377zm1.825 2.772c.117-.653.41-.854.812-.854.586 0 .661.494.711.854h-1.532.009zm2.31 1.071c-.167.277-.485.78-1.147.78-.485 0-1.088-.302-1.18-1.617h2.302c-.083-.971-.611-1.356-1.306-1.356-.594 0-1.515.452-1.515 1.825 0 1.055.561 1.658 1.381 1.658 1.072 0 1.499-1.005 1.574-1.24l-.117-.05h.008zm.83-1.256c0-.435-.143-.443-.26-.443-.1 0-.184.016-.251.033v-.117c.36-.117.737-.251 1.097-.402l.041.017v.661h.017c.352-.527.603-.678.888-.678.251 0 .402.16.402.402 0 .184-.109.327-.285.327-.26 0-.335-.26-.511-.26s-.502.368-.502.611v1.666c0 .511.251.545.628.553v.109h-1.784v-.109c.402-.075.528-.092.528-.51v-1.851l-.008-.009zm2.16 3.383c.486-.31.611-.645.611-.787 0-.067-.05-.1-.1-.1-.017 0-.042 0-.067.016-.017 0-.059.017-.109.017-.192 0-.46-.075-.46-.368 0-.319.242-.436.435-.436.167 0 .603.1.603.712 0 .527-.611 1.013-.829 1.088l-.067-.142h-.017zm8.306-4.245v.109c-.159.05-.193.125-.31.402l-1.021 2.562c-.118.293-.151.368-.21.368-.058 0-.075-.05-.176-.318l-.678-1.75-.829 1.775c-.1.21-.142.293-.184.293-.05 0-.092-.075-.192-.326l-1.005-2.537c-.151-.352-.21-.452-.394-.47v-.108h1.332v.109c-.168.017-.344.042-.344.251 0 .26.436 1.197.779 2.152l.678-1.474c-.276-.837-.36-.887-.661-.93v-.108h1.507v.109c-.243.042-.436.058-.436.276 0 .134.042.218.159.503l.595 1.59.67-1.649c.083-.184.125-.385.125-.477 0-.176-.15-.21-.326-.243v-.109h.921zm.92 1.047c.118-.653.411-.854.821-.854.586 0 .661.494.712.854h-1.533zm2.303 1.071c-.167.277-.494.78-1.147.78-.486 0-1.089-.302-1.181-1.617h2.303c-.084-.971-.611-1.356-1.306-1.356-.595 0-1.516.452-1.516 1.825 0 1.055.561 1.658 1.382 1.658 1.071 0 1.498-1.005 1.574-1.24l-.117-.05h.008zm7.268-2.118v.109c-.159.05-.193.125-.301.402l-1.022 2.562c-.117.293-.151.368-.209.368-.059 0-.076-.05-.176-.318l-.678-1.75-.829 1.775c-.109.21-.143.293-.184.293-.051 0-.093-.075-.193-.326l-1.005-2.537c-.15-.352-.209-.452-.393-.47v-.108h1.339v.109c-.167.017-.343.042-.343.251 0 .21.435 1.197.779 2.152l.678-1.474c-.276-.837-.352-.887-.661-.93v-.108h1.507v.109c-.243.042-.436.058-.436.276 0 .134.042.218.159.503l.595 1.59.67-1.649c.083-.184.125-.385.125-.477 0-.176-.15-.21-.326-.243v-.109h.912-.008zm.327 3.224c.46-.026.586-.067.586-.645v-1.717c0-.435-.143-.443-.26-.443-.109 0-.201.017-.293.033v-.109c.385-.125.77-.268 1.147-.41l.034.025v2.63c0 .485.033.61.552.644v.109h-1.758v-.109l-.008-.008zm.829-4.949c.226 0 .385.168.385.377 0 .21-.159.377-.385.377-.268 0-.369-.235-.369-.377 0-.142.109-.377.369-.377zm1.264 4.949c.443-.034.569-.126.569-.536V48.52c0-.335-.042-.452-.335-.452-.1 0-.167 0-.251.017v-.117c.393-.1.787-.201 1.18-.327l.034.017v4.43c0 .426.125.493.552.51v.109h-1.749v-.117zm2.067 0c.435-.034.569-.126.569-.536V48.52c0-.335-.042-.452-.335-.452-.1 0-.159 0-.251.017v-.117c.394-.1.787-.201 1.181-.327l.033.017v4.43c0 .426.126.493.553.51v.109h-1.75v-.117zm4.94-2.362c.042-.284.461-.485.729-.485.904 0 .946 1.197.946 1.373 0 1.29-.67 1.432-.913 1.432-.402 0-.753-.318-.753-.494v-1.826h-.009zm-.628 3.45c0 .318-.033.477-.519.51v.126h1.792v-.134c-.536 0-.653-.083-.653-.552v-1.164c.243.234.452.318.745.318 1.03 0 1.557-1.038 1.557-1.892 0-.988-.561-1.59-1.222-1.59-.569 0-.913.36-1.063.568l-.017-.016v-.544l-.05-.017a13.66 13.66 0 01-1.064.377v.117h.21c.259 0 .284.125.284.418v3.475zm3.718-3.45c0-.435-.142-.443-.259-.443a.962.962 0 00-.252.033v-.117c.36-.117.737-.251 1.097-.402l.034.017v.661h.017c.343-.527.602-.678.879-.678.251 0 .402.16.402.402 0 .184-.109.327-.285.327-.26 0-.335-.26-.511-.26s-.502.368-.502.611v1.666c0 .511.251.545.628.553v.109h-1.775v-.109c.402-.075.527-.092.527-.51v-1.861zm3.843 2.345c-.887 0-1.063-1.365-1.063-1.91 0-.77.41-1.155.87-1.155.687 0 1.064.804 1.064 1.725 0 1.064-.494 1.34-.871 1.34zm-.126-3.282c-.996 0-1.599.812-1.599 1.716 0 .904.67 1.767 1.625 1.767 1.122 0 1.641-1.03 1.641-1.767 0-1.072-.695-1.716-1.667-1.716zm5.318.184c-.252.025-.302.142-.486.578l-.946 2.378c-.084.2-.151.376-.201.376-.067 0-.084-.033-.201-.351-.176-.46-.887-2.177-1.155-2.705-.109-.218-.26-.268-.411-.276v-.109h1.457v.109c-.176.017-.343.042-.343.226 0 .092.042.2.067.26l.753 1.9c.252-.711.779-1.867.779-2.135 0-.167-.159-.234-.343-.243v-.108h1.03v.108-.008zm.293 3.115c.46-.026.586-.067.586-.645v-1.717c0-.435-.143-.443-.26-.443-.1 0-.201.017-.293.033v-.109c.385-.125.762-.268 1.147-.41l.034.025v2.63c0 .485.033.61.544.644v.109h-1.758v-.117zm.829-4.949a.377.377 0 110 .754c-.268 0-.369-.235-.369-.377 0-.142.109-.377.369-.377zm3.633 4.304c-.059.268-.352.444-.661.444-.494 0-1.022-.419-1.022-1.516s.502-1.373.921-1.373c.352 0 .712.234.762.737v1.708zm1.122.326c-.502.042-.502-.108-.502-.418V47.65l-.034-.017c-.352.125-.72.226-1.088.326v.118h.175c.327 0 .327.159.327.376v1.156c-.243-.218-.469-.318-.787-.318-.829 0-1.532.854-1.532 1.825 0 1.515 1.063 1.658 1.348 1.658.552 0 .829-.276.963-.477h.016v.452l.034.025c.393-.143.728-.26 1.088-.385v-.118h-.008zm.779-1.858c.117-.653.41-.854.812-.854.586 0 .661.494.712.854h-1.524zm2.311 1.071c-.168.277-.494.78-1.147.78-.494 0-1.089-.302-1.181-1.617h2.302c-.083-.971-.611-1.356-1.306-1.356-.594 0-1.515.452-1.515 1.825 0 1.055.569 1.658 1.39 1.658 1.063 0 1.498-1.005 1.574-1.24l-.117-.05zm3.742-1.582c0-1.373.335-1.59.704-1.59.351 0 .477.25.535.468.084.301.084.812.093 1.122h-1.332zm2.37 1.557c-.184.226-.536.662-1.122.662-.946 0-1.164-1.013-1.189-1.86h2.503c-.033-.535-.159-2.268-1.892-2.268-1.139 0-2.043.938-2.043 2.403 0 1.7 1.013 2.436 2.018 2.436.795 0 1.365-.318 1.968-1.239l-.243-.134zm2.059-.217l-.586.912c-.042.067-.151.218-.151.302.017.134.168.134.294.134v.108h-1.072v-.108c.201-.026.301-.034.544-.377l.846-1.223-.695-1.063c-.302-.452-.394-.452-.637-.444v-.108h1.533v.108c-.134 0-.319.017-.319.168 0 .15.302.586.444.803.452-.653.494-.72.494-.803 0-.16-.176-.16-.293-.168v-.108h1.172v.108a.774.774 0 00-.602.327l-.62.887.946 1.457c.285.427.477.436.611.444v.109h-1.49v-.109c.234 0 .301-.033.301-.193 0-.108-.092-.2-.117-.234l-.603-.921v-.008zm5.116.368c-.402.846-.879 1.164-1.482 1.164s-1.39-.477-1.39-1.658c0-1.18.862-1.834 1.658-1.834.268 0 .603.11.787.235.226.15.318.385.318.519 0 .167-.117.31-.343.326-.193.017-.318-.175-.36-.334l-.05-.168c-.059-.218-.093-.352-.486-.352-.276 0-.955.226-.955 1.315 0 .854.511 1.415 1.131 1.415.536 0 .812-.318 1.063-.695l.101.067h.008zm.963-1.197c.118-.653.402-.854.812-.854.587 0 .662.494.712.854h-1.524zm2.303 1.071c-.168.277-.486.78-1.147.78-.494 0-1.089-.302-1.181-1.617h2.303c-.076-.971-.603-1.356-1.306-1.356-.595 0-1.516.452-1.516 1.825 0 1.055.561 1.658 1.382 1.658 1.071 0 1.498-1.005 1.574-1.24l-.118-.05h.009zm.426 1.106c.436-.034.57-.126.57-.536V48.52c0-.335-.042-.452-.335-.452-.101 0-.168 0-.252.017v-.117c.394-.1.787-.201 1.181-.327l.025.017v4.43c0 .426.126.493.561.51v.109h-1.75v-.117zm2.06 0c.436-.034.57-.126.57-.536V48.52c0-.335-.042-.452-.335-.452-.101 0-.168 0-.252.017v-.117c.394-.1.788-.201 1.181-.327l.025.017v4.43c0 .426.126.493.561.51v.109h-1.75v-.117zm2.621-2.177c.118-.653.402-.854.813-.854.586 0 .661.494.711.854h-1.524zm2.303 1.071c-.167.277-.494.78-1.147.78-.486 0-1.089-.302-1.181-1.617h2.303c-.084-.971-.611-1.356-1.306-1.356-.595 0-1.516.452-1.516 1.825 0 1.055.561 1.658 1.382 1.658 1.071 0 1.498-1.005 1.574-1.24l-.117-.05h.008zm.862-1.289c0-.469-.142-.477-.26-.477a.547.547 0 00-.217.033v-.125c.335-.1.686-.21 1.021-.335l.05.017v.586c.36-.344.645-.603 1.081-.603.343 0 .862.2.862 1.113v1.7c0 .352.092.46.452.486v.108h-1.541v-.108c.277-.026.469-.059.469-.62v-1.549c0-.452-.134-.72-.569-.72-.218 0-.452.15-.737.419v2.084c0 .243.101.36.494.386v.108h-1.574v-.108c.352-.026.461-.118.461-.553v-1.834l.008-.008zm5.007-.586h-.745v2.118c0 .226 0 .67.376.67.235 0 .369-.16.453-.26l.1.084c-.176.318-.527.561-.862.561-.377 0-.687-.2-.687-.938v-2.227h-.393c-.017 0-.034-.033-.034-.05 0-.092.167-.134.327-.301.284-.285.393-.453.669-.846.051 0 .051.033.051.1v.863h.745v.234-.008zm5.158-.142c-.209-.704-.67-1.13-1.231-1.13-.36 0-.636.259-.636.569 0 1.013 2.328.787 2.328 2.42 0 .945-.637 1.532-1.558 1.532-.502 0-1.172-.285-1.264-.285-.109 0-.168.075-.268.276h-.243v-1.641h.276c.059.268.294 1.315 1.399 1.315.502 0 .703-.36.703-.654 0-.912-2.369-.853-2.369-2.386 0-.87.669-1.465 1.582-1.465.469 0 .879.218 1.063.218.176 0 .218-.117.252-.201h.217v1.44h-.251v-.008zm1.447.946c.117-.653.411-.854.812-.854.587 0 .662.494.712.854h-1.524zm2.311 1.071c-.167.277-.485.78-1.147.78-.486 0-1.088-.302-1.18-1.617h2.302c-.084-.971-.611-1.356-1.306-1.356-.595 0-1.516.452-1.516 1.825 0 1.055.561 1.658 1.382 1.658 1.072 0 1.499-1.005 1.574-1.24l-.117-.05h.008zm.829-1.256c0-.435-.142-.443-.259-.443a.999.999 0 00-.251.033v-.117c.36-.117.736-.251 1.096-.402l.042.017v.661h.017c.343-.527.603-.678.888-.678.251 0 .393.16.393.402 0 .184-.1.327-.285.327-.259 0-.334-.26-.51-.26s-.503.368-.503.611v1.666c0 .511.251.545.628.553v.109h-1.783v-.109c.41-.075.527-.092.527-.51v-1.861zm5.443-.753c-.251.025-.302.142-.477.578l-.946 2.378c-.084.2-.151.376-.201.376-.067 0-.084-.033-.201-.351-.176-.46-.888-2.177-1.156-2.705-.109-.218-.259-.268-.41-.276v-.109h1.448v.109c-.175.017-.343.042-.343.226 0 .092.042.2.067.26l.754 1.9c.251-.711.778-1.867.778-2.135 0-.167-.167-.234-.351-.243v-.108h1.03v.108l.008-.008zm.285 3.115c.46-.026.586-.067.586-.645v-1.717c0-.435-.143-.443-.26-.443-.1 0-.201.017-.293.033v-.109c.385-.125.762-.268 1.147-.41l.034.025v2.63c0 .485.042.61.552.644v.109h-1.758v-.109l-.008-.008zm.837-4.949c.226 0 .385.168.385.377a.367.367 0 01-.385.377c-.268 0-.377-.235-.377-.377 0-.142.117-.377.377-.377zm4.161 3.969c-.402.846-.879 1.164-1.482 1.164s-1.382-.477-1.382-1.658c0-1.18.863-1.834 1.658-1.834.268 0 .603.11.787.235.226.15.318.385.318.519 0 .167-.117.31-.343.326-.192.017-.318-.175-.36-.334l-.05-.168c-.059-.218-.092-.352-.486-.352-.276 0-.954.226-.954 1.315 0 .854.511 1.415 1.13 1.415.536 0 .804-.318 1.063-.695l.101.067zm.955-1.197c.117-.653.401-.854.812-.854.586 0 .661.494.711.854h-1.523zm2.31 1.071c-.175.277-.485.78-1.147.78-.494 0-1.088-.302-1.18-1.617h2.302c-.083-.971-.611-1.356-1.306-1.356-.594 0-1.515.452-1.515 1.825 0 1.055.561 1.658 1.381 1.658 1.064 0 1.499-1.005 1.574-1.24l-.117-.05h.008zm2.488-1.104c-.159-.754-.494-.913-.821-.913-.41 0-.561.284-.561.477 0 .15.042.36.319.527l.803.478c.36.226.628.435.628.879 0 .644-.602.954-1.08.954-.335 0-.653-.142-.854-.134-.092 0-.117.017-.167.092h-.101v-1.155h.118c.092.393.226 1.038.954 1.038.251 0 .603-.117.603-.544 0-.235-.151-.41-.385-.553l-.427-.243c-.461-.26-.871-.535-.871-1.08 0-.418.318-.904 1.038-.904.327 0 .561.15.678.15.067 0 .109-.05.126-.083h.084l.033 1.013h-.117zm.904 2.009c0-.235.184-.419.402-.419.218 0 .419.193.419.419 0 .276-.26.402-.419.402-.159 0-.402-.117-.402-.402z" fill="#9FA0A0"/><defs><radialGradient id="paint0_radial_872_167" cx="0" cy="0" r="1" gradientUnits="userSpaceOnUse" gradientTransform="matrix(14.7844 0 0 14.7845 6.177 27.373)"><stop stop-color="#DFF2FC"/><stop offset=".21" stop-color="#B0D3EE"/><stop offset=".47" stop-color="#6DA8DB"/><stop offset="1" stop-color="#006CB9"/></radialGradient><radialGradient id="paint1_radial_872_167" cx="0" cy="0" r="1" gradientUnits="userSpaceOnUse" gradientTransform="translate(122 37.951) scale(10.1416)"><stop stop-color="#DFF2FC"/><stop offset=".23" stop-color="#AFD5ED"/><stop offset=".75" stop-color="#3A8FCA"/><stop offset="1" stop-color="#006CB9"/></radialGradient><radialGradient id="paint2_radial_872_167" cx="0" cy="0" r="1" gradientUnits="userSpaceOnUse" gradientTransform="translate(32.504 41.041) scale(11.503)"><stop stop-color="#DFF2FC"/><stop offset=".23" stop-color="#AFD5ED"/><stop offset=".75" stop-color="#3A8FCA"/><stop offset="1" stop-color="#006CB9"/></radialGradient><radialGradient id="paint3_radial_872_167" cx="0" cy="0" r="1" gradientUnits="userSpaceOnUse" gradientTransform="translate(66.694 16.725) scale(8.33446)"><stop stop-color="#DFF2FC"/><stop offset=".23" stop-color="#AFD5ED"/><stop offset=".75" stop-color="#3A8FCA"/><stop offset="1" stop-color="#006CB9"/></radialGradient></defs></svg>