<svg width="214" height="55" viewBox="0 0 214 55" fill="none" xmlns="http://www.w3.org/2000/svg">
<path d="M20.4799 30.5943C20.4799 34.3704 16.5698 36.6897 12.7183 36.6897C11.0438 36.6897 8.68262 35.8189 8.68262 32.9721C8.68262 29.6063 11.3536 28.8527 14.5771 28.3336C18.1774 27.8145 19.6008 27.287 20.4716 26.6507V30.5943H20.4799ZM28.9784 18.9226C28.9784 11.3201 20.4799 9.98041 15.8246 9.98041C9.0594 9.98041 2.05135 11.3117 1.05498 20.7813H9.43617C9.67898 18.9812 10.4326 16.4861 14.7697 16.4861C17.0052 16.4861 20.4799 16.6619 20.4799 20.0864C20.4799 21.8279 18.8054 22.347 17.4406 22.5229L9.62037 23.6281C4.09431 24.3816 0 27.4628 0 33.4996C0 39.8881 5.09069 42.5004 10.0558 42.5004C15.9502 42.5004 18.7468 39.9467 20.7311 38.0293C20.9153 39.7709 21.0409 40.2314 21.5349 41.6882H30.9041V40.4658C29.8491 40.1225 28.9784 39.302 28.9784 35.6514V18.9309V18.9226Z" fill="#0D3158"/>
<path d="M42.9606 26.4664C42.9606 21.585 44.8194 17.0051 50.3454 17.0051C56.3068 17.0051 57.7888 21.9953 57.7888 26.9353C57.7888 31.5152 55.6202 35.8188 50.0942 35.8188C44.5096 35.8188 42.9606 30.1337 42.9606 26.4748V26.4664ZM66.1114 0H57.4204V14.8031H57.2948C55.93 12.8271 53.3261 9.98874 47.7415 9.98874C40.4823 9.98874 34.0269 15.2134 34.0269 25.897C34.0269 34.3703 38.1211 42.5003 47.9257 42.5003C51.526 42.5003 55.3691 41.2778 57.4874 37.7948H57.613V41.6881H66.1114V0Z" fill="#0D3158"/>
<path d="M79.0475 23.1592C79.5415 19.0984 81.7184 16.6619 85.8127 16.6619C88.6092 16.6619 92.017 18.169 92.5193 23.1592H79.0475ZM92.1425 32.6204C91.4644 34.8308 88.9777 35.9863 86.5579 35.9863C79.5415 35.9863 79.0475 30.7617 78.8047 28.4424H101.453V26.9939C101.453 12.8858 92.4524 9.98877 85.9383 9.98877C71.4786 9.98877 70.1138 21.8865 70.1138 25.604C70.1138 38.3139 77.2558 42.5003 86.5579 42.5003C92.2095 42.5003 98.7822 40.0638 101.085 32.6288H92.1425V32.6204Z" fill="#0D3158"/>
<path d="M125.826 20.2036C125.449 18.2276 124.704 16.1428 119.99 16.1428C115.277 16.1428 114.657 17.8257 114.657 19.1654C114.657 24.0383 135.321 20.505 135.321 31.8753C135.321 40.876 126.01 42.5004 120.861 42.5004C113.351 42.5004 105.221 40.0639 104.978 31.8167H113.912C113.912 34.429 115.653 36.3463 121.112 36.3463C125.583 36.3463 126.63 34.3118 126.63 33.1563C126.63 27.9903 106.15 31.8753 106.15 20.3292C106.15 15.7995 109.19 9.99713 119.496 9.99713C125.952 9.99713 133.646 11.5042 134.325 20.212H125.826V20.2036Z" fill="#0D3158"/>
<path d="M150.275 18.6379V41.8221H143.752V18.6379H150.275ZM150.275 15.8916H143.752V10.2316H150.275V15.8916Z" fill="#9FA0A0"/>
<path d="M178.241 41.8138H171.718V27.7391C171.718 26.0394 171.626 23.1592 167.482 23.1592C164.593 23.1592 162.357 24.9928 162.357 28.5178V41.8054H155.835V18.6211H162.081V22.0205H162.173C163.061 20.6306 164.919 18.0099 169.625 18.0099C174.33 18.0099 178.241 20.6724 178.241 25.7631V41.7971V41.8138Z" fill="#9FA0A0"/>
<path d="M204.238 33.3656C204.004 35.7602 202.002 42.425 192.918 42.425C183.833 42.425 181.456 35.7602 181.456 30.8789C181.456 23.3853 184.947 18.0267 193.337 18.0267C197.247 18.0267 203.677 19.6845 204.288 26.9186H197.674C197.389 25.3947 196.368 23.0001 193.345 23.1676C189.242 23.1676 188.171 27.0023 188.171 29.8742C188.171 32.4028 188.263 37.4181 193.203 37.4181C196.51 37.4181 197.632 34.4541 197.632 33.3656H204.246H204.238Z" fill="#9FA0A0"/>
<path d="M213.925 41.8138H206.934V35.4504H213.925V41.8138Z" fill="#9FA0A0"/>
<path d="M26.1816 24.2393C28.8944 21.9284 28.9782 18.9226 28.9782 18.9226C28.9782 11.3201 20.4798 9.98041 15.8329 9.98041C19.5923 10.3321 24.6327 11.1442 25.2858 15.1716C25.8216 18.5123 23.0753 21.426 17.4488 22.5229L9.62863 23.6281C4.10259 24.3816 0.00830078 27.4628 0.00830078 33.4996C0.00830078 36.6897 1.28096 38.942 3.17322 40.3905C1.85869 29.4388 11.412 28.8109 14.6523 28.3671C18.5875 27.8229 23.8289 26.2571 26.19 24.2477L26.1816 24.2393Z" fill="url(#paint0_radial_872_167)"/>
<path d="M127.308 23.6615C137.088 30.3179 125.818 43.7227 113.359 41.5207C115.712 42.2073 118.333 42.4919 120.87 42.4919C126.019 42.4919 135.33 40.8676 135.33 31.8668C135.33 27.0357 131.595 24.8923 127.308 23.6615Z" fill="url(#paint1_radial_872_167)"/>
<path d="M39.9549 33.5916C34.32 26.5417 34.8726 16.7372 41.1857 11.6884C41.3029 11.5963 41.4201 11.5126 41.5373 11.4205C37.1667 13.6393 34.0186 18.4285 34.0186 25.8887C34.0186 34.3619 38.1129 42.4919 47.9174 42.4919C50.6637 42.4919 53.5523 41.7802 55.7041 39.8963C50.2032 40.9346 44.024 38.6823 39.9549 33.5916Z" fill="url(#paint2_radial_872_167)"/>
<path d="M92.7454 11.2196C90.4764 10.3069 88.0817 9.98877 85.9467 9.98877C71.4868 9.98877 70.1221 21.8865 70.1221 25.6041C70.1221 27.5298 70.2895 29.2546 70.5993 30.8036C72.7511 17.9764 85.2685 11.588 92.7454 11.2196Z" fill="url(#paint3_radial_872_167)"/>
<path d="M3.68405 50.9904C3.60032 50.3708 3.42449 50.2954 2.87189 50.2871L1.79182 50.2703V51.8946C1.79182 52.4472 1.94253 52.5393 2.47001 52.5645V52.7068H0.393555V52.5645C0.946158 52.5393 1.03825 52.4221 1.03825 51.8193V48.6041C1.03825 48.018 0.862431 47.9762 0.393555 47.9427V47.8004H4.32877L4.35389 48.8637H4.16969C4.06084 48.2022 3.86827 48.085 3.04774 48.085H2.04299C1.85879 48.085 1.80856 48.1185 1.80856 48.3362V49.9857H2.88865C3.49149 49.9857 3.62546 49.8349 3.70081 49.2823H3.86825V50.9988H3.70081L3.68405 50.9904Z" fill="#9FA0A0"/>
<path d="M6.25458 52.5729C5.36706 52.5729 5.19124 51.2081 5.19124 50.6638C5.19124 49.8936 5.6015 49.5084 6.07038 49.5084C6.74858 49.5084 7.12536 50.3122 7.12536 51.2332C7.12536 52.2965 6.63136 52.5729 6.25458 52.5729ZM6.12899 49.2907C5.13263 49.2907 4.52979 50.1029 4.52979 51.0071C4.52979 52.0035 5.19961 52.7738 6.15411 52.7738C7.28444 52.7738 7.80356 51.7439 7.80356 51.0071C7.80356 49.9354 7.1086 49.2907 6.13735 49.2907H6.12899Z" fill="#9FA0A0"/>
<path d="M8.5821 50.2285C8.5821 49.7931 8.43976 49.7847 8.32254 49.7847C8.22207 49.7847 8.13835 49.8014 8.07137 49.8182V49.701C8.4314 49.5837 8.80817 49.4498 9.1682 49.2991L9.20168 49.3158V49.9773H9.21844C9.5701 49.4498 9.82128 49.2991 10.106 49.2991C10.3571 49.2991 10.5078 49.4582 10.5078 49.701C10.5078 49.8852 10.4074 50.0275 10.2232 50.0275C9.9636 50.0275 9.88826 49.7679 9.71243 49.7679C9.5366 49.7679 9.21006 50.1364 9.21006 50.3792V52.0454C9.21006 52.5561 9.46124 52.5896 9.83802 52.598V52.7068H8.06299V52.598C8.47326 52.5226 8.59048 52.5059 8.59048 52.0872V50.2368L8.5821 50.2285Z" fill="#9FA0A0"/>
<path d="M15.2553 51.7104C15.113 51.8695 14.8869 52.1374 14.552 52.1374C14.192 52.1374 14.0412 51.7774 14.0412 51.4676C14.0412 50.6052 15.0209 50.3122 15.2553 50.2619V51.7021V51.7104ZM17.0471 52.0705L16.9466 52.1709C16.9466 52.1709 16.888 52.2128 16.8461 52.2128C16.6284 52.2128 16.6285 52.0202 16.6285 51.9616V49.366C16.6285 48.4283 15.7409 48.0013 14.6357 48.0013C13.4049 48.0013 12.777 48.6041 12.777 49.2321C12.777 49.9103 13.3128 49.9103 13.4384 49.9103C13.9575 49.9103 14.1082 49.5335 14.1082 49.3577C14.1082 48.9725 13.8068 48.8888 13.8068 48.6795C13.8068 48.5204 14.0329 48.3194 14.3929 48.3194C15.1297 48.3194 15.2637 48.6878 15.2637 49.1902V49.9187C13.8487 50.3457 12.5928 50.7476 12.5928 51.7774C12.5928 52.531 13.2124 52.8408 13.6896 52.8408C13.924 52.8408 14.6273 52.7905 15.272 52.1458C15.3307 52.4221 15.406 52.8408 16.1093 52.8408C16.5615 52.8408 16.9215 52.6063 17.2062 52.2714L17.0555 52.0621L17.0471 52.0705Z" fill="#9FA0A0"/>
<path d="M19.8354 51.9449C19.7768 52.2128 19.4837 52.3886 19.1739 52.3886C18.6799 52.3886 18.1524 51.97 18.1524 50.8731C18.1524 49.7763 18.6548 49.5 19.0734 49.5C19.4251 49.5 19.7851 49.7344 19.8437 50.2368V51.9449H19.8354ZM20.9489 52.2714C20.4549 52.3133 20.4549 52.1626 20.4549 51.8528V47.6496L20.4215 47.6329C20.0614 47.7585 19.7014 47.8589 19.333 47.9594V48.0766C19.3916 48.0766 19.467 48.0766 19.5088 48.0766C19.8354 48.0766 19.8354 48.2357 19.8354 48.4534V49.6089C19.5926 49.3912 19.3665 49.2907 19.0483 49.2907C18.2194 49.2907 17.5161 50.1447 17.5161 51.116C17.5161 52.6314 18.5794 52.7738 18.8641 52.7738C19.4167 52.7738 19.693 52.4975 19.8186 52.2965H19.8354V52.7487L19.8605 52.7738C20.254 52.6314 20.5973 52.5142 20.9489 52.3886V52.2714Z" fill="#9FA0A0"/>
<path d="M24.5576 49.4749C24.3064 49.5001 24.2561 49.6173 24.0719 50.0527L23.1258 52.4305C23.0421 52.6315 22.9751 52.8073 22.9249 52.8073C22.8579 52.8073 22.8412 52.7738 22.7239 52.4557C22.5481 51.9952 21.8364 50.2787 21.5685 49.7512C21.4596 49.5335 21.3089 49.4833 21.1582 49.4749V49.3661H22.6151V49.4749C22.4393 49.4917 22.2718 49.5168 22.2718 49.701C22.2718 49.7931 22.3137 49.9019 22.3388 49.9606L23.0923 51.8612C23.3435 51.1495 23.871 49.9941 23.871 49.7261C23.871 49.5587 23.7119 49.4917 23.5277 49.4833V49.3745H24.5576V49.4833V49.4749Z" fill="#9FA0A0"/>
<path d="M25.3362 50.4127C25.4534 49.7596 25.7381 49.5586 26.1484 49.5586C26.7345 49.5586 26.8098 50.0526 26.8601 50.4127H25.3362ZM27.6387 51.4844C27.4713 51.7607 27.1531 52.2631 26.4917 52.2631C26.006 52.2631 25.4032 51.9616 25.3111 50.6471H27.6136C27.5299 49.6759 27.0024 49.2907 26.3075 49.2907C25.713 49.2907 24.792 49.7428 24.792 51.116C24.792 52.171 25.3529 52.7738 26.1819 52.7738C27.2452 52.7738 27.6806 51.7691 27.7559 51.5346L27.6387 51.4844Z" fill="#9FA0A0"/>
<path d="M28.4674 50.2285C28.4674 49.7931 28.325 49.7847 28.2078 49.7847C28.1073 49.7847 28.0236 49.8014 27.9566 49.8182V49.701C28.3167 49.5837 28.6934 49.4498 29.0535 49.2991L29.0953 49.3158V49.9773H29.112C29.4637 49.4498 29.7149 49.2991 29.9912 49.2991C30.2424 49.2991 30.3931 49.4582 30.3931 49.701C30.3931 49.8852 30.2842 50.0275 30.1084 50.0275C29.8489 50.0275 29.7735 49.7679 29.5977 49.7679C29.4219 49.7679 29.0953 50.1364 29.0953 50.3792V52.0454C29.0953 52.5561 29.3465 52.5896 29.7233 52.598V52.7068H27.9482V52.598C28.3585 52.5226 28.4757 52.5059 28.4757 52.0872V50.2368L28.4674 50.2285Z" fill="#9FA0A0"/>
<path d="M32.2688 49.6089H31.5236V51.7272C31.5236 51.9532 31.5237 52.397 31.9004 52.397C32.1349 52.397 32.2688 52.2379 32.3526 52.1374L32.4447 52.2212C32.2688 52.5393 31.9172 52.7822 31.5823 52.7822C31.2055 52.7822 30.8957 52.5812 30.8957 51.8444V49.6172H30.5022C30.4854 49.6172 30.4771 49.5837 30.4771 49.567C30.4771 49.4749 30.6361 49.433 30.8036 49.2656C31.0883 48.9809 31.1971 48.8134 31.4734 48.4199C31.5236 48.4199 31.5236 48.4534 31.5236 48.5204V49.3828H32.2688V49.6172V49.6089Z" fill="#9FA0A0"/>
<path d="M32.5532 52.5896C33.0137 52.5645 33.1393 52.5226 33.1393 51.9449V50.2285C33.1393 49.7931 32.997 49.7847 32.8797 49.7847C32.7709 49.7847 32.6788 49.8015 32.5867 49.8182V49.7094C32.9719 49.5838 33.3486 49.4414 33.7338 49.2991L33.7673 49.3242V51.9533C33.7673 52.4389 33.8091 52.5645 34.3199 52.598V52.7068H32.5616V52.598L32.5532 52.5896ZM33.3821 47.6413C33.6082 47.6413 33.7673 47.8087 33.7673 48.0181C33.7673 48.2358 33.5998 48.3948 33.3821 48.3948C33.1142 48.3948 33.0137 48.1604 33.0137 48.0181C33.0137 47.8757 33.1226 47.6413 33.3821 47.6413Z" fill="#9FA0A0"/>
<path d="M36.7229 50.3792C36.5554 49.6256 36.2289 49.4665 35.9023 49.4665C35.4921 49.4665 35.3414 49.7512 35.3414 49.9438C35.3414 50.0945 35.3832 50.3038 35.6595 50.4713L36.4633 50.9485C36.8233 51.1746 37.0829 51.3839 37.0829 51.8277C37.0829 52.4724 36.4801 52.7822 36.0028 52.7822C35.6679 52.7822 35.3497 52.6398 35.1488 52.6482C35.0567 52.6482 35.0316 52.6649 34.9813 52.7403H34.8892V51.5848H35.0064C35.0985 51.9784 35.2325 52.6231 35.961 52.6231C36.2121 52.6231 36.5638 52.5059 36.5638 52.0788C36.5638 51.8444 36.4131 51.6686 36.1786 51.5262L35.7516 51.2834C35.2911 51.0239 34.8809 50.7476 34.8809 50.2033C34.8809 49.7847 35.199 49.2991 35.9191 49.2991C36.2456 49.2991 36.4717 49.4498 36.5973 49.4498C36.6643 49.4498 36.6978 49.3995 36.7229 49.3661H36.8066L36.8401 50.3792H36.7312H36.7229Z" fill="#9FA0A0"/>
<path d="M37.502 52.5896C37.9625 52.5645 38.088 52.5226 38.088 51.9449V50.2285C38.088 49.7931 37.9457 49.7847 37.8285 49.7847C37.728 49.7847 37.6275 49.8015 37.5271 49.8182V49.7094C37.9122 49.5838 38.289 49.4414 38.6741 49.2991L38.7076 49.3242V51.9533C38.7076 52.4389 38.7495 52.5645 39.2602 52.598V52.7068H37.502V52.598V52.5896ZM38.3309 47.6413C38.5569 47.6413 38.716 47.8087 38.716 48.0181C38.716 48.2358 38.5569 48.3948 38.3309 48.3948C38.0629 48.3948 37.9624 48.1604 37.9624 48.0181C37.9624 47.8757 38.0713 47.6413 38.3309 47.6413Z" fill="#9FA0A0"/>
<path d="M40.0388 50.195C40.0388 49.7261 39.8964 49.7177 39.7792 49.7177C39.6788 49.7177 39.595 49.7345 39.5615 49.7512V49.6256C39.8964 49.5252 40.2481 49.4163 40.583 49.2907L40.6332 49.3075V49.8936C40.9933 49.5503 41.278 49.2907 41.7133 49.2907C42.0566 49.2907 42.5841 49.4917 42.5841 50.4043V52.104C42.5841 52.4556 42.6762 52.5645 43.0362 52.5896V52.6984H41.4956V52.5896C41.7719 52.5645 41.9645 52.531 41.9645 51.97V50.421C41.9645 49.9689 41.8306 49.701 41.3952 49.701C41.1691 49.701 40.943 49.8517 40.6584 50.1196V52.2044C40.6584 52.4473 40.7588 52.5645 41.144 52.5896V52.6984H39.5699V52.5896C39.9216 52.5645 40.0304 52.4724 40.0304 52.037V50.2033L40.0388 50.195Z" fill="#9FA0A0"/>
<path d="M43.8735 53.3683C43.8735 53.1422 44.0075 52.9915 44.2335 52.7152C44.5852 52.7905 44.7443 52.7905 45.4392 52.8073C45.9918 52.824 46.3519 52.8408 46.3519 53.1673C46.3519 53.5608 45.8495 53.8874 44.9787 53.8874C44.108 53.8874 43.8652 53.586 43.8652 53.3599L43.8735 53.3683ZM44.2754 50.1699C44.2754 49.6759 44.5601 49.5 44.828 49.5C45.4644 49.5 45.5816 50.4964 45.5816 50.6973C45.5816 50.8983 45.5397 51.409 45.0374 51.409C44.4596 51.409 44.267 50.7476 44.267 50.1615L44.2754 50.1699ZM46.6366 49.8266V49.5419H46.0672C45.95 49.5419 45.816 49.5252 45.6653 49.4665C45.3723 49.3577 45.2048 49.2907 44.9452 49.2907C44.3843 49.2907 43.6726 49.6507 43.6726 50.5299C43.6726 50.9569 43.9238 51.3002 44.3592 51.4928C43.6977 52.0789 43.6977 52.171 43.6977 52.2966C43.6977 52.5059 43.8903 52.5896 44.0912 52.6901C43.7144 52.958 43.3628 53.2594 43.3628 53.5943C43.3628 53.9879 43.9154 54.3144 44.6773 54.3144C45.3472 54.3144 46.5779 53.8958 46.5779 53.0585C46.5779 52.8492 46.4775 52.3049 45.682 52.2631L44.7276 52.2212C44.5015 52.2212 44.1498 52.1877 44.1498 52.0202C44.1498 51.8695 44.4429 51.5681 44.5936 51.5514C44.6355 51.5514 44.9034 51.5932 44.9955 51.5932C45.4141 51.5932 46.176 51.3086 46.176 50.5048C46.176 50.1364 46.1091 49.994 46.0337 49.8182H46.6533L46.6366 49.8266Z" fill="#9FA0A0"/>
<path d="M50.8398 51.7942C50.8398 52.0119 50.8147 52.104 50.5886 52.2128C50.5216 52.2463 50.2956 52.3468 50.1281 52.3468C49.8518 52.3468 49.6341 52.1123 49.6341 51.7691V51.7523C49.6341 51.5011 49.7178 51.0825 50.8314 50.7141V51.7858L50.8398 51.7942ZM51.9869 52.2128C51.9031 52.2798 51.811 52.3552 51.652 52.3552C51.4343 52.3552 51.4343 52.1375 51.4343 51.9281V50.4797C51.4343 50.0359 51.4343 49.2907 50.3291 49.2907C49.4667 49.2907 49.1234 49.8182 49.1234 50.1112C49.1234 50.2285 49.2155 50.4378 49.4415 50.4378C49.6341 50.4378 49.7765 50.2703 49.7765 50.1196C49.7765 50.0526 49.7346 49.9438 49.7346 49.8349C49.7346 49.6089 50.0193 49.4749 50.2621 49.4749C50.4798 49.4749 50.8314 49.5586 50.8314 50.0861V50.5383C49.6257 51.0155 48.9727 51.2667 48.9727 52.0035C48.9727 52.4975 49.3578 52.7738 49.7597 52.7738C50.1616 52.7738 50.5635 52.4808 50.8314 52.2296C50.8649 52.7654 51.1831 52.7738 51.3171 52.7738C51.4343 52.7738 51.6603 52.7738 51.9785 52.4054V52.2128H51.9869Z" fill="#9FA0A0"/>
<path d="M52.5896 50.195C52.5896 49.7261 52.4472 49.7177 52.33 49.7177C52.2295 49.7177 52.1458 49.7345 52.1123 49.7512V49.6256C52.4472 49.5252 52.7989 49.4163 53.1338 49.2907L53.184 49.3075V49.8936C53.5441 49.5503 53.8287 49.2907 54.2641 49.2907C54.6074 49.2907 55.1349 49.4917 55.1349 50.4043V52.104C55.1349 52.4556 55.227 52.5645 55.587 52.5896V52.6984H54.0464V52.5896C54.3227 52.5645 54.5153 52.531 54.5153 51.97V50.421C54.5153 49.9689 54.3813 49.701 53.9459 49.701C53.7199 49.701 53.4938 49.8517 53.2091 50.1196V52.2044C53.2091 52.4473 53.3096 52.5645 53.6948 52.5896V52.6984H52.1207V52.5896C52.4723 52.5645 52.5812 52.4724 52.5812 52.037V50.2033L52.5896 50.195Z" fill="#9FA0A0"/>
<path d="M58.2245 51.9449C58.1659 52.2128 57.8728 52.3886 57.563 52.3886C57.069 52.3886 56.5415 51.97 56.5415 50.8731C56.5415 49.7763 57.0439 49.5 57.4625 49.5C57.8058 49.5 58.1742 49.7344 58.2245 50.2368V51.9449ZM59.3464 52.2714C58.8524 52.3133 58.8524 52.1626 58.8524 51.8528V47.6496L58.8106 47.6329C58.4589 47.7585 58.0905 47.8589 57.7221 47.9594V48.0766C57.7807 48.0766 57.8561 48.0766 57.9063 48.0766C58.2328 48.0766 58.2328 48.2357 58.2328 48.4534V49.6089C57.99 49.3912 57.764 49.2907 57.4458 49.2907C56.6169 49.2907 55.9136 50.1447 55.9136 51.116C55.9136 52.6314 56.9769 52.7738 57.2616 52.7738C57.8142 52.7738 58.0821 52.4975 58.2161 52.2965H58.2328V52.7487L58.2663 52.7738C58.6599 52.6314 59.0032 52.5142 59.3548 52.3886V52.2714H59.3464Z" fill="#9FA0A0"/>
<path d="M64.6046 51.5932C64.6046 51.7021 64.2362 52.2882 63.7757 52.2882C62.9803 52.2882 62.9803 50.9988 62.9803 50.4211C62.9803 49.4582 63.1143 48.5623 63.826 48.5623C64.3786 48.5623 64.6046 49.1735 64.6046 49.1819V51.6016V51.5932ZM66.5806 52.2714C66.0112 52.2547 65.9945 51.9616 65.9945 51.6937V45.9835H63.8594V46.2179C64.4037 46.2598 64.613 46.2681 64.613 46.7956V48.6125C64.3786 48.353 64.0353 47.9929 63.4408 47.9929C62.503 47.9929 61.5234 48.8218 61.5234 50.5466C61.5234 52.0035 62.4361 52.8324 63.265 52.8324C64.0101 52.8324 64.2864 52.5561 64.6465 52.1793V52.824C65.2661 52.6566 65.3498 52.6482 66.589 52.4975V52.2714H66.5806Z" fill="#9FA0A0"/>
<path d="M67.5095 50.4127C67.6267 49.7596 67.9198 49.5586 68.3217 49.5586C68.9078 49.5586 68.9831 50.0526 69.0334 50.4127H67.5095ZM69.8204 51.4844C69.653 51.7607 69.3348 52.2631 68.6733 52.2631C68.1793 52.2631 67.5849 51.9616 67.4928 50.6471H69.7953C69.7116 49.6759 69.1841 49.2907 68.4891 49.2907C67.8946 49.2907 66.9736 49.7428 66.9736 51.116C66.9736 52.171 67.5346 52.7738 68.3552 52.7738C69.4269 52.7738 69.8539 51.7691 69.9292 51.5346L69.812 51.4844H69.8204Z" fill="#9FA0A0"/>
<path d="M72.3078 50.3792C72.1404 49.6256 71.8138 49.4665 71.4873 49.4665C71.077 49.4665 70.9263 49.7512 70.9263 49.9438C70.9263 50.0945 70.9682 50.3038 71.2445 50.4713L72.0483 50.9485C72.4083 51.1746 72.6679 51.3839 72.6679 51.8277C72.6679 52.4724 72.065 52.7822 71.5962 52.7822C71.2612 52.7822 70.9431 52.6398 70.7338 52.6482C70.6417 52.6482 70.6165 52.6649 70.5747 52.7403H70.4742V51.5848H70.5914C70.6835 51.9784 70.8175 52.6231 71.5459 52.6231C71.7971 52.6231 72.1488 52.5059 72.1488 52.0788C72.1488 51.8444 71.998 51.6686 71.7636 51.5262L71.3282 51.2834C70.8677 51.0239 70.4658 50.7476 70.4658 50.2033C70.4658 49.7847 70.784 49.2991 71.504 49.2991C71.8306 49.2991 72.065 49.4498 72.1906 49.4498C72.2576 49.4498 72.2911 49.3995 72.3162 49.3661H72.3999L72.4334 50.3792H72.3246H72.3078Z" fill="#9FA0A0"/>
<path d="M73.0864 52.5896C73.5469 52.5645 73.6725 52.5226 73.6725 51.9449V50.2285C73.6725 49.7931 73.5302 49.7847 73.413 49.7847C73.3125 49.7847 73.212 49.8015 73.1199 49.8182V49.7094C73.505 49.5838 73.8818 49.4414 74.267 49.2991L74.3005 49.3242V51.9533C74.3005 52.4389 74.3423 52.5645 74.8531 52.598V52.7068H73.0948V52.598L73.0864 52.5896ZM73.9153 47.6413C74.1414 47.6413 74.3005 47.8087 74.3005 48.0181C74.3005 48.2358 74.1414 48.3948 73.9153 48.3948C73.6474 48.3948 73.5469 48.1604 73.5469 48.0181C73.5469 47.8757 73.6558 47.6413 73.9153 47.6413Z" fill="#9FA0A0"/>
<path d="M75.757 53.3683C75.757 53.1422 75.8909 52.9915 76.117 52.7152C76.4687 52.7905 76.6278 52.7905 77.3227 52.8073C77.8753 52.824 78.2353 52.8408 78.2353 53.1673C78.2353 53.5608 77.7329 53.8874 76.8622 53.8874C75.9914 53.8874 75.7486 53.586 75.7486 53.3599L75.757 53.3683ZM76.1589 50.1699C76.1589 49.6759 76.4435 49.5 76.7115 49.5C77.3478 49.5 77.465 50.4964 77.465 50.6973C77.465 50.8564 77.4232 51.409 76.9208 51.409C76.3431 51.409 76.1505 50.7476 76.1505 50.1615L76.1589 50.1699ZM78.5116 49.8266V49.5419H77.9423C77.8251 49.5419 77.6911 49.5252 77.532 49.4665C77.239 49.3577 77.0715 49.2907 76.8119 49.2907C76.251 49.2907 75.5393 49.6507 75.5393 50.5299C75.5393 50.9569 75.7905 51.3002 76.2259 51.4928C75.5644 52.0789 75.5644 52.171 75.5644 52.2966C75.5644 52.5059 75.757 52.5896 75.9579 52.6901C75.5811 52.958 75.2295 53.2594 75.2295 53.5943C75.2295 53.9879 75.7821 54.3144 76.544 54.3144C77.2139 54.3144 78.4446 53.8958 78.4446 53.0585C78.4446 52.8492 78.3442 52.3049 77.5488 52.2631L76.5943 52.2212C76.3682 52.2212 76.0165 52.1877 76.0165 52.0202C76.0165 51.8695 76.3096 51.5681 76.4603 51.5514C76.5022 51.5514 76.7701 51.5932 76.8622 51.5932C77.2808 51.5932 78.0427 51.3086 78.0427 50.5048C78.0427 50.1364 77.9758 49.994 77.9004 49.8182H78.5116V49.8266Z" fill="#9FA0A0"/>
<path d="M79.3327 50.195C79.3327 49.7261 79.1904 49.7177 79.0732 49.7177C78.9727 49.7177 78.889 49.7345 78.8555 49.7512V49.6256C79.1904 49.5252 79.542 49.4163 79.877 49.2907L79.9272 49.3075V49.8936C80.2872 49.5503 80.5719 49.2907 81.0073 49.2907C81.3506 49.2907 81.8781 49.4917 81.8781 50.4043V52.104C81.8781 52.4556 81.9701 52.5645 82.3302 52.5896V52.6984H80.7896V52.5896C81.0659 52.5645 81.2585 52.531 81.2585 51.97V50.421C81.2585 49.9689 81.1245 49.701 80.6891 49.701C80.4631 49.701 80.237 49.8517 79.9523 50.1196V52.2044C79.9523 52.4473 80.0612 52.5645 80.4379 52.5896V52.6984H78.8638V52.5896C79.2155 52.5645 79.3243 52.4724 79.3243 52.037V50.2033L79.3327 50.195Z" fill="#9FA0A0"/>
<path d="M86.5912 49.6089H85.6869V51.9365C85.6869 52.3887 85.6869 52.5812 86.3735 52.598V52.7068H84.4478V52.598C84.9334 52.5729 85.059 52.5059 85.059 51.9365V49.6089H84.4478V49.3745H85.059C85.059 48.9642 85.0589 47.6497 86.3902 47.6497C86.8089 47.6497 87.1354 47.8506 87.1354 48.1018C87.1354 48.3195 86.968 48.4116 86.8172 48.4116C86.5074 48.4116 86.4656 47.859 86.1223 47.859C85.712 47.859 85.6785 48.2441 85.6785 48.5204V49.3828H86.5912V49.6173V49.6089Z" fill="#9FA0A0"/>
<path d="M87.3281 50.2285C87.3281 49.7931 87.1858 49.7847 87.0686 49.7847C86.9597 49.7847 86.8844 49.8014 86.8174 49.8182V49.701C87.1858 49.5837 87.5542 49.4498 87.9142 49.2991L87.9561 49.3158V49.9773H87.9728C88.3245 49.4498 88.5757 49.2991 88.8604 49.2991C89.1115 49.2991 89.2623 49.4582 89.2623 49.701C89.2623 49.8852 89.1534 50.0275 88.9776 50.0275C88.718 50.0275 88.6427 49.7679 88.4668 49.7679C88.291 49.7679 87.9645 50.1364 87.9645 50.3792V52.0454C87.9645 52.5561 88.2156 52.5896 88.5924 52.598V52.7068H86.8174V52.598C87.2277 52.5226 87.3449 52.5059 87.3449 52.0872V50.2368L87.3281 50.2285Z" fill="#9FA0A0"/>
<path d="M91.1799 52.5729C90.2924 52.5729 90.1165 51.2081 90.1165 50.6638C90.1165 49.8936 90.5268 49.5084 90.9957 49.5084C91.6739 49.5084 92.0507 50.3122 92.0507 51.2332C92.0507 52.2965 91.5567 52.5729 91.1799 52.5729ZM91.0543 49.2907C90.0579 49.2907 89.4551 50.1029 89.4551 51.0071C89.4551 52.0035 90.1249 52.7738 91.0794 52.7738C92.2097 52.7738 92.7288 51.7439 92.7288 51.0071C92.7288 49.9354 92.0339 49.2907 91.0627 49.2907H91.0543Z" fill="#9FA0A0"/>
<path d="M93.5324 50.195C93.5324 49.7261 93.3901 49.7177 93.2729 49.7177C93.164 49.7177 93.0887 49.7345 93.0552 49.7512V49.6256C93.3901 49.5252 93.7334 49.4163 94.0767 49.2907L94.1269 49.3075V49.8936C94.4869 49.5503 94.7716 49.2907 95.207 49.2907C95.5503 49.2907 96.0777 49.4917 96.0777 50.4043V52.104C96.0777 52.4556 96.1699 52.5645 96.5299 52.5896V52.6984H94.9893V52.5896C95.2656 52.5645 95.4582 52.531 95.4582 51.97V50.421C95.4582 49.9689 95.3242 49.701 94.8888 49.701C94.6711 49.701 94.4367 49.8517 94.152 50.1196V52.2044C94.152 52.4473 94.2525 52.5645 94.6376 52.5896V52.6984H93.0635V52.5896C93.4152 52.5645 93.5241 52.4724 93.5241 52.037V50.2033L93.5324 50.195Z" fill="#9FA0A0"/>
<path d="M98.5398 49.6089H97.7946V51.7272C97.7946 51.9532 97.7947 52.397 98.1714 52.397C98.4059 52.397 98.5398 52.2379 98.6236 52.1374L98.724 52.2212C98.5482 52.5393 98.1965 52.7822 97.8533 52.7822C97.4765 52.7822 97.1751 52.5812 97.1751 51.8444V49.6172H96.7815C96.7648 49.6172 96.748 49.5837 96.748 49.567C96.748 49.4749 96.9071 49.433 97.0746 49.2656C97.3593 48.9809 97.4681 48.8134 97.7444 48.4199C97.7946 48.4199 97.7946 48.4534 97.7946 48.5204V49.3828H98.5398V49.6172V49.6089Z" fill="#9FA0A0"/>
<path d="M98.833 52.5896C99.2935 52.5645 99.4191 52.5226 99.4191 51.9449V50.2285C99.4191 49.7931 99.2768 49.7847 99.1595 49.7847C99.0591 49.7847 98.9586 49.8015 98.8665 49.8182V49.7094C99.2516 49.5838 99.6284 49.4414 100.014 49.2991L100.047 49.3242V51.9533C100.047 52.4389 100.081 52.5645 100.6 52.598V52.7068H98.8414V52.598L98.833 52.5896ZM99.6619 47.6413C99.888 47.6413 100.047 47.8087 100.047 48.0181C100.047 48.2358 99.888 48.3948 99.6619 48.3948C99.394 48.3948 99.2935 48.1604 99.2935 48.0181C99.2935 47.8757 99.4024 47.6413 99.6619 47.6413Z" fill="#9FA0A0"/>
<path d="M101.487 50.4127C101.604 49.7596 101.897 49.5586 102.299 49.5586C102.885 49.5586 102.96 50.0526 103.01 50.4127H101.478H101.487ZM103.797 51.4844C103.63 51.7607 103.312 52.2631 102.65 52.2631C102.165 52.2631 101.562 51.9616 101.47 50.6471H103.772C103.689 49.6759 103.161 49.2907 102.466 49.2907C101.872 49.2907 100.951 49.7428 100.951 51.116C100.951 52.171 101.512 52.7738 102.332 52.7738C103.404 52.7738 103.831 51.7691 103.906 51.5346L103.789 51.4844H103.797Z" fill="#9FA0A0"/>
<path d="M104.627 50.2285C104.627 49.7931 104.484 49.7847 104.367 49.7847C104.267 49.7847 104.183 49.8014 104.116 49.8182V49.701C104.476 49.5837 104.853 49.4498 105.213 49.2991L105.254 49.3158V49.9773H105.271C105.623 49.4498 105.874 49.2991 106.159 49.2991C106.41 49.2991 106.561 49.4582 106.561 49.701C106.561 49.8852 106.452 50.0275 106.276 50.0275C106.016 50.0275 105.941 49.7679 105.765 49.7679C105.589 49.7679 105.263 50.1364 105.263 50.3792V52.0454C105.263 52.5561 105.514 52.5896 105.891 52.598V52.7068H104.107V52.598C104.509 52.5226 104.635 52.5059 104.635 52.0872V50.2368L104.627 50.2285Z" fill="#9FA0A0"/>
<path d="M106.787 53.6111C107.273 53.3013 107.398 52.9664 107.398 52.824C107.398 52.757 107.348 52.7235 107.298 52.7235C107.281 52.7235 107.256 52.7235 107.231 52.7403C107.214 52.7403 107.172 52.757 107.122 52.757C106.93 52.757 106.662 52.6817 106.662 52.3886C106.662 52.0705 106.904 51.9532 107.097 51.9532C107.264 51.9532 107.7 52.0537 107.7 52.6649C107.7 53.1924 107.089 53.678 106.871 53.7534L106.804 53.6111H106.787Z" fill="#9FA0A0"/>
<path d="M115.093 49.3661V49.4749C114.934 49.5252 114.9 49.6005 114.783 49.8768L113.762 52.4389C113.644 52.732 113.611 52.8073 113.552 52.8073C113.494 52.8073 113.477 52.7571 113.376 52.4891L112.698 50.7392L111.869 52.5143C111.769 52.7236 111.727 52.8073 111.685 52.8073C111.635 52.8073 111.593 52.732 111.493 52.4808L110.488 49.9438C110.337 49.5922 110.278 49.4917 110.094 49.4749V49.3661H111.426V49.4749C111.258 49.4917 111.082 49.5168 111.082 49.7261C111.082 49.9857 111.518 50.9234 111.861 51.8779L112.539 50.4043C112.263 49.567 112.179 49.5168 111.878 49.4749V49.3661H113.385V49.4749C113.142 49.5168 112.949 49.5335 112.949 49.7512C112.949 49.8852 112.991 49.9689 113.108 50.2536L113.703 51.8444L114.373 50.195C114.456 50.0108 114.498 49.8098 114.498 49.7177C114.498 49.5419 114.348 49.5084 114.172 49.4749V49.3661H115.084H115.093Z" fill="#9FA0A0"/>
<path d="M116.013 50.4127C116.131 49.7596 116.424 49.5586 116.834 49.5586C117.42 49.5586 117.495 50.0526 117.546 50.4127H116.013ZM118.316 51.4844C118.149 51.7607 117.822 52.2631 117.169 52.2631C116.683 52.2631 116.08 51.9616 115.988 50.6471H118.291C118.207 49.6759 117.68 49.2907 116.985 49.2907C116.39 49.2907 115.469 49.7428 115.469 51.116C115.469 52.171 116.03 52.7738 116.851 52.7738C117.922 52.7738 118.349 51.7691 118.425 51.5346L118.308 51.4844H118.316Z" fill="#9FA0A0"/>
<path d="M125.584 49.3661V49.4749C125.425 49.5252 125.391 49.6005 125.283 49.8768L124.261 52.4389C124.144 52.732 124.11 52.8073 124.052 52.8073C123.993 52.8073 123.976 52.7571 123.876 52.4891L123.198 50.7392L122.369 52.5143C122.26 52.7236 122.226 52.8073 122.185 52.8073C122.134 52.8073 122.092 52.732 121.992 52.4808L120.987 49.9438C120.837 49.5922 120.778 49.4917 120.594 49.4749V49.3661H121.933V49.4749C121.766 49.4917 121.59 49.5168 121.59 49.7261C121.59 49.9354 122.025 50.9234 122.369 51.8779L123.047 50.4043C122.771 49.567 122.695 49.5168 122.386 49.4749V49.3661H123.893V49.4749C123.65 49.5168 123.457 49.5335 123.457 49.7512C123.457 49.8852 123.499 49.9689 123.616 50.2536L124.211 51.8444L124.881 50.195C124.964 50.0108 125.006 49.8098 125.006 49.7177C125.006 49.5419 124.856 49.5084 124.68 49.4749V49.3661H125.592H125.584Z" fill="#9FA0A0"/>
<path d="M125.911 52.5896C126.371 52.5645 126.497 52.5226 126.497 51.9449V50.2285C126.497 49.7931 126.354 49.7847 126.237 49.7847C126.128 49.7847 126.036 49.8015 125.944 49.8182V49.7094C126.329 49.5838 126.714 49.4414 127.091 49.2991L127.125 49.3242V51.9533C127.125 52.4389 127.158 52.5645 127.677 52.598V52.7068H125.919V52.598L125.911 52.5896ZM126.74 47.6413C126.966 47.6413 127.125 47.8087 127.125 48.0181C127.125 48.2274 126.966 48.3948 126.74 48.3948C126.472 48.3948 126.371 48.1604 126.371 48.0181C126.371 47.8757 126.48 47.6413 126.74 47.6413Z" fill="#9FA0A0"/>
<path d="M128.004 52.5896C128.447 52.5561 128.573 52.464 128.573 52.0538V48.5204C128.573 48.1855 128.531 48.0683 128.238 48.0683C128.138 48.0683 128.071 48.0683 127.987 48.0851V47.9678C128.38 47.8674 128.774 47.7669 129.167 47.6413L129.201 47.658V52.0873C129.201 52.5143 129.326 52.5813 129.753 52.598V52.7068H128.004V52.598V52.5896Z" fill="#9FA0A0"/>
<path d="M130.071 52.5896C130.506 52.5561 130.64 52.464 130.64 52.0538V48.5204C130.64 48.1855 130.598 48.0683 130.305 48.0683C130.205 48.0683 130.146 48.0683 130.054 48.0851V47.9678C130.448 47.8674 130.841 47.7669 131.235 47.6413L131.268 47.658V52.0873C131.268 52.5143 131.394 52.5813 131.821 52.598V52.7068H130.071V52.598V52.5896Z" fill="#9FA0A0"/>
<path d="M135.011 50.2285C135.053 49.9438 135.472 49.7428 135.74 49.7428C136.644 49.7428 136.686 50.9402 136.686 51.116C136.686 52.4054 136.016 52.5477 135.773 52.5477C135.371 52.5477 135.02 52.2296 135.02 52.0537V50.2285H135.011ZM134.383 53.6781C134.383 53.9962 134.35 54.1553 133.864 54.1888V54.3144H135.656V54.1804C135.12 54.1804 135.003 54.0967 135.003 53.6278V52.464C135.246 52.6984 135.455 52.7822 135.748 52.7822C136.778 52.7822 137.305 51.7439 137.305 50.8899C137.305 49.9019 136.744 49.2991 136.083 49.2991C135.514 49.2991 135.17 49.6591 135.02 49.8684L135.003 49.8517V49.3075L134.953 49.2907C134.601 49.433 134.241 49.5586 133.889 49.6675V49.7847C133.956 49.7847 134.023 49.7847 134.099 49.7847C134.358 49.7847 134.383 49.9103 134.383 50.2033V53.6697V53.6781Z" fill="#9FA0A0"/>
<path d="M138.101 50.2285C138.101 49.7931 137.959 49.7847 137.842 49.7847C137.733 49.7847 137.657 49.8014 137.59 49.8182V49.701C137.95 49.5837 138.327 49.4498 138.687 49.2991L138.721 49.3158V49.9773H138.738C139.081 49.4498 139.34 49.2991 139.617 49.2991C139.868 49.2991 140.019 49.4582 140.019 49.701C140.019 49.8852 139.91 50.0275 139.734 50.0275C139.474 50.0275 139.399 49.7679 139.223 49.7679C139.047 49.7679 138.721 50.1364 138.721 50.3792V52.0454C138.721 52.5561 138.972 52.5896 139.349 52.598V52.7068H137.574V52.598C137.976 52.5226 138.101 52.5059 138.101 52.0872V50.2368V50.2285Z" fill="#9FA0A0"/>
<path d="M141.944 52.5729C141.057 52.5729 140.881 51.2081 140.881 50.6638C140.881 49.8936 141.291 49.5084 141.751 49.5084C142.438 49.5084 142.815 50.3122 142.815 51.2332C142.815 52.2965 142.321 52.5729 141.944 52.5729ZM141.818 49.2907C140.822 49.2907 140.219 50.1029 140.219 51.0071C140.219 51.9114 140.889 52.7738 141.844 52.7738C142.966 52.7738 143.485 51.7439 143.485 51.0071C143.485 49.9354 142.79 49.2907 141.818 49.2907Z" fill="#9FA0A0"/>
<path d="M147.136 49.4749C146.884 49.5001 146.834 49.6173 146.65 50.0527L145.704 52.4305C145.62 52.6315 145.553 52.8073 145.503 52.8073C145.436 52.8073 145.419 52.7738 145.302 52.4557C145.126 51.9952 144.415 50.2787 144.147 49.7512C144.038 49.5335 143.887 49.4833 143.736 49.4749V49.3661H145.193V49.4749C145.017 49.4917 144.85 49.5168 144.85 49.701C144.85 49.7931 144.892 49.9019 144.917 49.9606L145.67 51.8612C145.922 51.1495 146.449 49.9941 146.449 49.7261C146.449 49.5587 146.29 49.4917 146.106 49.4833V49.3745H147.136V49.4833V49.4749Z" fill="#9FA0A0"/>
<path d="M147.429 52.5896C147.889 52.5645 148.015 52.5226 148.015 51.9449V50.2285C148.015 49.7931 147.872 49.7847 147.755 49.7847C147.655 49.7847 147.554 49.8015 147.462 49.8182V49.7094C147.847 49.5838 148.224 49.4414 148.609 49.2991L148.643 49.3242V51.9533C148.643 52.4389 148.676 52.5645 149.187 52.598V52.7068H147.429V52.598V52.5896ZM148.258 47.6413C148.475 47.6413 148.643 47.8087 148.643 48.0181C148.643 48.2358 148.475 48.3948 148.258 48.3948C147.99 48.3948 147.889 48.1604 147.889 48.0181C147.889 47.8757 147.998 47.6413 148.258 47.6413Z" fill="#9FA0A0"/>
<path d="M151.891 51.9449C151.832 52.2128 151.539 52.3886 151.23 52.3886C150.736 52.3886 150.208 51.97 150.208 50.8731C150.208 49.7763 150.71 49.5 151.129 49.5C151.481 49.5 151.841 49.7344 151.891 50.2368V51.9449ZM153.013 52.2714C152.511 52.3133 152.511 52.1626 152.511 51.8528V47.6496L152.477 47.6329C152.125 47.7585 151.757 47.8589 151.389 47.9594V48.0766C151.447 48.0766 151.523 48.0766 151.564 48.0766C151.891 48.0766 151.891 48.2357 151.891 48.4534V49.6089C151.648 49.3912 151.422 49.2907 151.104 49.2907C150.275 49.2907 149.572 50.1447 149.572 51.116C149.572 52.6314 150.635 52.7738 150.92 52.7738C151.472 52.7738 151.749 52.4975 151.883 52.2965H151.899V52.7487L151.933 52.7738C152.326 52.6314 152.661 52.5142 153.021 52.3886V52.2714H153.013Z" fill="#9FA0A0"/>
<path d="M153.792 50.4127C153.909 49.7596 154.202 49.5586 154.604 49.5586C155.19 49.5586 155.265 50.0526 155.316 50.4127H153.792ZM156.103 51.4844C155.935 51.7607 155.609 52.2631 154.956 52.2631C154.462 52.2631 153.867 51.9616 153.775 50.6471H156.077C155.994 49.6759 155.466 49.2907 154.771 49.2907C154.177 49.2907 153.256 49.7428 153.256 51.116C153.256 52.171 153.825 52.7738 154.646 52.7738C155.709 52.7738 156.144 51.7691 156.22 51.5346L156.103 51.4844Z" fill="#9FA0A0"/>
<path d="M159.845 49.9019C159.845 48.5288 160.18 48.3111 160.549 48.3111C160.9 48.3111 161.026 48.5623 161.084 48.78C161.168 49.0814 161.168 49.5921 161.177 49.9019H159.845ZM162.215 51.4593C162.031 51.6853 161.679 52.1207 161.093 52.1207C160.147 52.1207 159.929 51.1076 159.904 50.2619H162.407C162.374 49.7261 162.248 47.9929 160.515 47.9929C159.376 47.9929 158.472 48.9307 158.472 50.3959C158.472 52.0956 159.485 52.8324 160.49 52.8324C161.285 52.8324 161.855 52.5142 162.458 51.5932L162.215 51.4593Z" fill="#9FA0A0"/>
<path d="M164.274 51.2416L163.688 52.1542C163.646 52.2212 163.537 52.3719 163.537 52.4556C163.554 52.5896 163.705 52.5896 163.831 52.5896V52.6985H162.759V52.5896C162.96 52.5645 163.06 52.5561 163.303 52.2128L164.149 50.9904L163.454 49.9271C163.152 49.4749 163.06 49.4749 162.817 49.4833V49.3745H164.35V49.4833C164.216 49.4833 164.031 49.5 164.031 49.6508C164.031 49.8015 164.333 50.2368 164.475 50.4545C164.927 49.8015 164.969 49.7345 164.969 49.6508C164.969 49.4917 164.793 49.4917 164.676 49.4833V49.3745H165.848V49.4833C165.53 49.4917 165.304 49.7094 165.246 49.8098L164.626 50.6974L165.572 52.1542C165.857 52.5812 166.049 52.5896 166.183 52.598V52.7068H164.693V52.598C164.927 52.598 164.994 52.5645 164.994 52.4054C164.994 52.2966 164.902 52.2045 164.877 52.171L164.274 51.25V51.2416Z" fill="#9FA0A0"/>
<path d="M169.39 51.61C168.988 52.4556 168.511 52.7738 167.908 52.7738C167.305 52.7738 166.518 52.2966 166.518 51.116C166.518 49.9354 167.38 49.2823 168.176 49.2823C168.444 49.2823 168.779 49.3912 168.963 49.5168C169.189 49.6675 169.281 49.9019 169.281 50.0359C169.281 50.2034 169.164 50.3457 168.938 50.3624C168.745 50.3792 168.62 50.1866 168.578 50.0275L168.528 49.8601C168.469 49.6424 168.435 49.5084 168.042 49.5084C167.766 49.5084 167.087 49.7345 167.087 50.8229C167.087 51.677 167.598 52.2379 168.218 52.2379C168.754 52.2379 169.03 51.9198 169.281 51.543L169.382 51.61H169.39Z" fill="#9FA0A0"/>
<path d="M170.353 50.4127C170.471 49.7596 170.755 49.5586 171.165 49.5586C171.752 49.5586 171.827 50.0526 171.877 50.4127H170.353ZM172.656 51.4844C172.488 51.7607 172.17 52.2631 171.509 52.2631C171.015 52.2631 170.42 51.9616 170.328 50.6471H172.631C172.555 49.6759 172.028 49.2907 171.325 49.2907C170.73 49.2907 169.809 49.7428 169.809 51.116C169.809 52.171 170.37 52.7738 171.191 52.7738C172.262 52.7738 172.689 51.7691 172.765 51.5346L172.647 51.4844H172.656Z" fill="#9FA0A0"/>
<path d="M173.082 52.5896C173.518 52.5561 173.652 52.464 173.652 52.0538V48.5204C173.652 48.1855 173.61 48.0683 173.317 48.0683C173.216 48.0683 173.149 48.0683 173.065 48.0851V47.9678C173.459 47.8674 173.852 47.7669 174.246 47.6413L174.271 47.658V52.0873C174.271 52.5143 174.397 52.5813 174.832 52.598V52.7068H173.082V52.598V52.5896Z" fill="#9FA0A0"/>
<path d="M175.142 52.5896C175.578 52.5561 175.712 52.464 175.712 52.0538V48.5204C175.712 48.1855 175.67 48.0683 175.377 48.0683C175.276 48.0683 175.209 48.0683 175.125 48.0851V47.9678C175.519 47.8674 175.913 47.7669 176.306 47.6413L176.331 47.658V52.0873C176.331 52.5143 176.457 52.5813 176.892 52.598V52.7068H175.142V52.598V52.5896Z" fill="#9FA0A0"/>
<path d="M177.763 50.4127C177.881 49.7596 178.165 49.5586 178.576 49.5586C179.162 49.5586 179.237 50.0526 179.287 50.4127H177.763ZM180.066 51.4844C179.899 51.7607 179.572 52.2631 178.919 52.2631C178.433 52.2631 177.83 51.9616 177.738 50.6471H180.041C179.957 49.6759 179.43 49.2907 178.735 49.2907C178.14 49.2907 177.219 49.7428 177.219 51.116C177.219 52.171 177.78 52.7738 178.601 52.7738C179.672 52.7738 180.099 51.7691 180.175 51.5346L180.058 51.4844H180.066Z" fill="#9FA0A0"/>
<path d="M180.928 50.195C180.928 49.7261 180.786 49.7177 180.668 49.7177C180.56 49.7177 180.484 49.7345 180.451 49.7512V49.6256C180.786 49.5252 181.137 49.4163 181.472 49.2907L181.522 49.3075V49.8936C181.882 49.5503 182.167 49.2907 182.603 49.2907C182.946 49.2907 183.465 49.4917 183.465 50.4043V52.104C183.465 52.4556 183.557 52.5645 183.917 52.5896V52.6984H182.376V52.5896C182.653 52.5645 182.845 52.531 182.845 51.97V50.421C182.845 49.9689 182.711 49.701 182.276 49.701C182.058 49.701 181.824 49.8517 181.539 50.1196V52.2044C181.539 52.4473 181.64 52.5645 182.033 52.5896V52.6984H180.459V52.5896C180.811 52.5645 180.92 52.4724 180.92 52.037V50.2033L180.928 50.195Z" fill="#9FA0A0"/>
<path d="M185.935 49.6089H185.19V51.7272C185.19 51.9532 185.19 52.397 185.566 52.397C185.801 52.397 185.935 52.2379 186.019 52.1374L186.119 52.2212C185.943 52.5393 185.592 52.7822 185.257 52.7822C184.88 52.7822 184.57 52.5812 184.57 51.8444V49.6172H184.177C184.16 49.6172 184.143 49.5837 184.143 49.567C184.143 49.4749 184.31 49.433 184.47 49.2656C184.754 48.9809 184.863 48.8134 185.139 48.4199C185.19 48.4199 185.19 48.4534 185.19 48.5204V49.3828H185.935V49.6172V49.6089Z" fill="#9FA0A0"/>
<path d="M191.093 49.4665C190.884 48.7632 190.423 48.3362 189.862 48.3362C189.502 48.3362 189.226 48.5957 189.226 48.9055C189.226 49.9186 191.554 49.6926 191.554 51.3253C191.554 52.2714 190.917 52.8575 189.996 52.8575C189.494 52.8575 188.824 52.5728 188.732 52.5728C188.623 52.5728 188.564 52.6482 188.464 52.8491H188.221V51.208H188.497C188.556 51.476 188.791 52.5226 189.896 52.5226C190.398 52.5226 190.599 52.1625 190.599 51.8695C190.599 50.9569 188.23 51.0155 188.23 49.4832C188.23 48.6125 188.899 48.018 189.812 48.018C190.281 48.018 190.691 48.2357 190.875 48.2357C191.051 48.2357 191.093 48.1185 191.127 48.0348H191.344V49.4749H191.093V49.4665Z" fill="#9FA0A0"/>
<path d="M192.54 50.4127C192.657 49.7596 192.951 49.5586 193.352 49.5586C193.939 49.5586 194.014 50.0526 194.064 50.4127H192.54ZM194.851 51.4844C194.684 51.7607 194.366 52.2631 193.704 52.2631C193.218 52.2631 192.616 51.9616 192.524 50.6471H194.826C194.742 49.6759 194.215 49.2907 193.52 49.2907C192.925 49.2907 192.004 49.7428 192.004 51.116C192.004 52.171 192.565 52.7738 193.386 52.7738C194.458 52.7738 194.885 51.7691 194.96 51.5346L194.843 51.4844H194.851Z" fill="#9FA0A0"/>
<path d="M195.68 50.2285C195.68 49.7931 195.538 49.7847 195.421 49.7847C195.32 49.7847 195.237 49.8014 195.17 49.8182V49.701C195.53 49.5837 195.906 49.4498 196.266 49.2991L196.308 49.3158V49.9773H196.325C196.668 49.4498 196.928 49.2991 197.213 49.2991C197.464 49.2991 197.606 49.4582 197.606 49.701C197.606 49.8852 197.506 50.0275 197.321 50.0275C197.062 50.0275 196.987 49.7679 196.811 49.7679C196.635 49.7679 196.308 50.1364 196.308 50.3792V52.0454C196.308 52.5561 196.559 52.5896 196.936 52.598V52.7068H195.153V52.598C195.563 52.5226 195.68 52.5059 195.68 52.0872V50.2368V50.2285Z" fill="#9FA0A0"/>
<path d="M201.123 49.4749C200.872 49.5001 200.821 49.6173 200.646 50.0527L199.7 52.4305C199.616 52.6315 199.549 52.8073 199.499 52.8073C199.432 52.8073 199.415 52.7738 199.298 52.4557C199.122 51.9952 198.41 50.2787 198.142 49.7512C198.033 49.5335 197.883 49.4833 197.732 49.4749V49.3661H199.18V49.4749C199.005 49.4917 198.837 49.5168 198.837 49.701C198.837 49.7931 198.879 49.9019 198.904 49.9606L199.658 51.8612C199.909 51.1495 200.436 49.9941 200.436 49.7261C200.436 49.5587 200.269 49.4917 200.085 49.4833V49.3745H201.115V49.4833L201.123 49.4749Z" fill="#9FA0A0"/>
<path d="M201.408 52.5896C201.868 52.5645 201.994 52.5226 201.994 51.9449V50.2285C201.994 49.7931 201.851 49.7847 201.734 49.7847C201.634 49.7847 201.533 49.8015 201.441 49.8182V49.7094C201.826 49.5838 202.203 49.4414 202.588 49.2991L202.622 49.3242V51.9533C202.622 52.4389 202.664 52.5645 203.174 52.598V52.7068H201.416V52.598L201.408 52.5896ZM202.245 47.6413C202.471 47.6413 202.63 47.8087 202.63 48.0181C202.63 48.2358 202.471 48.3948 202.245 48.3948C201.977 48.3948 201.868 48.1604 201.868 48.0181C201.868 47.8757 201.985 47.6413 202.245 47.6413Z" fill="#9FA0A0"/>
<path d="M206.406 51.61C206.004 52.4556 205.527 52.7738 204.924 52.7738C204.321 52.7738 203.542 52.2966 203.542 51.116C203.542 49.9354 204.405 49.2823 205.2 49.2823C205.468 49.2823 205.803 49.3912 205.987 49.5168C206.213 49.6675 206.305 49.9019 206.305 50.0359C206.305 50.2034 206.188 50.3457 205.962 50.3624C205.77 50.3792 205.644 50.1866 205.602 50.0275L205.552 49.8601C205.493 49.6424 205.46 49.5084 205.066 49.5084C204.79 49.5084 204.112 49.7345 204.112 50.8229C204.112 51.677 204.623 52.2379 205.242 52.2379C205.778 52.2379 206.046 51.9198 206.305 51.543L206.406 51.61Z" fill="#9FA0A0"/>
<path d="M207.361 50.4127C207.478 49.7596 207.762 49.5586 208.173 49.5586C208.759 49.5586 208.834 50.0526 208.884 50.4127H207.361ZM209.671 51.4844C209.496 51.7607 209.186 52.2631 208.524 52.2631C208.03 52.2631 207.436 51.9616 207.344 50.6471H209.646C209.563 49.6759 209.035 49.2907 208.34 49.2907C207.746 49.2907 206.825 49.7428 206.825 51.116C206.825 52.171 207.386 52.7738 208.206 52.7738C209.27 52.7738 209.705 51.7691 209.78 51.5346L209.663 51.4844H209.671Z" fill="#9FA0A0"/>
<path d="M212.159 50.3792C212 49.6256 211.665 49.4665 211.338 49.4665C210.928 49.4665 210.777 49.7512 210.777 49.9438C210.777 50.0945 210.819 50.3038 211.096 50.4713L211.899 50.9485C212.259 51.1746 212.527 51.3839 212.527 51.8277C212.527 52.4724 211.925 52.7822 211.447 52.7822C211.112 52.7822 210.794 52.6398 210.593 52.6482C210.501 52.6482 210.476 52.6649 210.426 52.7403H210.325V51.5848H210.443C210.535 51.9784 210.669 52.6231 211.397 52.6231C211.648 52.6231 212 52.5059 212 52.0788C212 51.8444 211.849 51.6686 211.615 51.5262L211.188 51.2834C210.727 51.0239 210.317 50.7476 210.317 50.2033C210.317 49.7847 210.635 49.2991 211.355 49.2991C211.682 49.2991 211.916 49.4498 212.033 49.4498C212.1 49.4498 212.142 49.3995 212.159 49.3661H212.243L212.276 50.3792H212.159Z" fill="#9FA0A0"/>
<path d="M213.063 52.3888C213.063 52.1543 213.247 51.97 213.465 51.97C213.683 51.97 213.884 52.1626 213.884 52.3888C213.884 52.6653 213.624 52.7909 213.465 52.7909C213.306 52.7909 213.063 52.6736 213.063 52.3888Z" fill="#9FA0A0"/>
<defs>
<radialGradient id="paint0_radial_872_167" cx="0" cy="0" r="1" gradientUnits="userSpaceOnUse" gradientTransform="translate(6.17662 27.3734) scale(14.7844 14.7845)">
<stop stop-color="#DFF2FC"/>
<stop offset="0.21" stop-color="#B0D3EE"/>
<stop offset="0.47" stop-color="#6DA8DB"/>
<stop offset="1" stop-color="#006CB9"/>
</radialGradient>
<radialGradient id="paint1_radial_872_167" cx="0" cy="0" r="1" gradientUnits="userSpaceOnUse" gradientTransform="translate(122 37.9514) scale(10.1416 10.1416)">
<stop stop-color="#DFF2FC"/>
<stop offset="0.23" stop-color="#AFD5ED"/>
<stop offset="0.75" stop-color="#3A8FCA"/>
<stop offset="1" stop-color="#006CB9"/>
</radialGradient>
<radialGradient id="paint2_radial_872_167" cx="0" cy="0" r="1" gradientUnits="userSpaceOnUse" gradientTransform="translate(32.5042 41.0412) scale(11.503 11.503)">
<stop stop-color="#DFF2FC"/>
<stop offset="0.23" stop-color="#AFD5ED"/>
<stop offset="0.75" stop-color="#3A8FCA"/>
<stop offset="1" stop-color="#006CB9"/>
</radialGradient>
<radialGradient id="paint3_radial_872_167" cx="0" cy="0" r="1" gradientUnits="userSpaceOnUse" gradientTransform="translate(66.6942 16.7246) scale(8.33446 8.33446)">
<stop stop-color="#DFF2FC"/>
<stop offset="0.23" stop-color="#AFD5ED"/>
<stop offset="0.75" stop-color="#3A8FCA"/>
<stop offset="1" stop-color="#006CB9"/>
</radialGradient>
</defs>
</svg>
