<svg width="163" height="73" viewBox="0 0 163 73" fill="none" xmlns="http://www.w3.org/2000/svg">
<path d="M15.8103 41.43C15.4703 47.95 19.0003 50.07 26.4603 50.07C32.8103 50.07 35.5803 47.36 35.7503 44.05C36.0703 38.04 26.9503 37.36 20.8003 35.16C13.4003 32.45 7.51028 28.47 7.98028 19.57C8.70028 5.85 21.4603 0 33.5703 0C46.4403 0 57.1203 4.74 55.9303 19.48H40.1703C40.2903 17.19 39.6103 15.58 38.3103 14.57C36.9303 13.47 34.8403 12.96 32.0403 12.96C28.1403 12.96 23.9903 14.57 23.7903 18.38C23.6003 22.02 26.1203 22.44 34.4703 24.73C42.6503 27.02 52.1703 31.34 51.5503 43.2C50.9903 53.96 40.9403 63.02 23.2403 63.02C8.84029 63.02 -0.859736 55.73 0.0602639 41.42H15.8203L15.8103 41.43Z" fill="#333333"/>
<path d="M62.4 11.87H73.48L68.2 31.92L68.32 32.05C69.94 29.77 74.19 26.97 80.12 26.97C86.05 26.97 89.64 30.69 89.33 36.48C89.21 38.69 88.25 42.08 87.7701 43.78L82.79 61.77H71.7101L76.4901 43.85C76.9001 42.29 77.3 40.85 77.37 39.55C77.51 36.88 75.89 35.44 73.54 35.44C66.7 35.44 65.58 41.89 64.12 47.43L60.37 61.77H49.29L62.39 11.88L62.4 11.87Z" fill="#333333"/>
<path d="M92.2301 36.4H100.54L93.9301 61.76H85.6201L92.2301 36.4ZM101.38 33.22H93.0701L94.7201 26.87H103.03L101.38 33.22Z" fill="#333333"/>
<path d="M102.81 38.0599H110.19L109.17 41.9899H109.26C110.42 40.4699 113.26 38.6099 117.21 38.6099C121.16 38.6099 123.55 41.0799 123.34 44.9399C123.26 46.4199 122.62 48.6699 122.3 49.7999L118.98 61.7799H111.6L114.79 49.8399C115.06 48.7999 115.33 47.8399 115.37 46.9799C115.46 45.1999 114.39 44.2499 112.82 44.2499C108.26 44.2499 107.52 48.5499 106.54 52.2399L104.04 61.7899H96.6602L102.8 38.0699L102.81 38.0599Z" fill="#333333"/>
<path d="M132.93 44.79C137.51 44.79 140.7 47.37 140.45 52.18C140.14 58.15 136.13 62.5 130.07 62.5C125.42 62.5 122.16 60.14 122.42 55.21C122.73 49.27 126.87 44.79 132.93 44.79ZM130.4 58.46C133.53 58.46 134.81 54.98 134.94 52.4C135.05 50.3 134.42 48.82 132.35 48.82C129.38 48.82 128.02 52.76 127.9 55.01C127.8 56.91 128.46 58.46 130.4 58.46Z" fill="#333333"/>
<path d="M150.651 61.77H147.171L147.541 60.42H147.501C146.701 61.58 145.601 62.09 144.231 62.09C141.381 62.09 140.301 60.06 140.441 57.42C140.631 53.87 142.831 50.5 146.631 50.5C148.151 50.5 149.181 51.05 149.531 52.27H149.571L150.581 48H154.171L150.661 61.77H150.651ZM148.731 55.27C148.791 54.07 148.181 53.24 147.001 53.24C144.971 53.24 144.121 55.5 144.031 57.21C143.971 58.37 144.421 59.34 145.731 59.34C147.741 59.34 148.641 56.93 148.731 55.27Z" fill="#333333"/>
<path d="M153.98 55.46C154.58 53.08 156.37 52.38 158.61 52.38C161.14 52.38 162.75 52.99 162.65 54.77C162.59 55.98 161.77 58.52 161.51 59.36C161.32 59.99 161.16 60.57 161.14 61.06C161.13 61.38 161.18 61.61 161.23 61.76H158.29C158.24 61.32 158.24 61.36 158.26 60.88H158.23C157.63 61.69 156.71 62.02 155.41 62.02C153.7 62.02 152.47 61.33 152.57 59.45C152.7 57.01 154.9 56.53 157.25 56.35C158.27 56.3 159.68 56.37 159.74 55.17C159.77 54.64 159.42 54.29 158.52 54.29C157.57 54.29 156.98 54.57 156.81 55.43H153.98V55.46ZM156.74 60.19C158.55 60.19 159 58.41 159.15 57.59H159.13C158.34 58.22 155.67 57.48 155.58 59.24C155.54 59.96 156.15 60.19 156.74 60.19Z" fill="#333333"/>
<path d="M43.0201 70.51H42.8901L43.1501 69.08H43.3701C43.4001 69.79 43.8301 70.43 44.5901 70.43C45.2101 70.43 45.7401 70.01 45.7701 69.37C45.7901 68.88 45.5301 68.7 45.1501 68.5C44.9101 68.38 44.6801 68.25 44.4501 68.14C43.8701 67.85 43.6101 67.45 43.6401 66.79C43.6701 66.01 44.3101 65.38 45.1001 65.38C45.4901 65.38 45.8801 65.53 46.1501 65.81L46.4601 65.5H46.6301L46.3901 66.83H46.1601C46.1101 66.15 45.8401 65.58 45.0701 65.58C44.6001 65.58 44.1301 65.96 44.1101 66.44C44.0901 66.87 44.5801 67.08 45.0901 67.33C45.6001 67.58 46.1201 67.88 46.2501 68.46C46.2801 68.61 46.2901 68.73 46.2801 68.89C46.2401 69.9 45.5501 70.64 44.5101 70.64C44.1001 70.64 43.7601 70.47 43.4701 70.2L43.0301 70.52L43.0201 70.51Z" fill="#333333"/>
<path d="M48.24 65.61H47.64L47.7 65.42L49.0999 65.37L48.3499 68.21C48.7199 67.84 49.0999 67.48 49.6499 67.48C50.0199 67.48 50.3299 67.68 50.3099 68.08C50.3099 68.19 50.26 68.39 50.2 68.61L49.8999 69.66C49.8399 69.87 49.7899 70.07 49.7799 70.1C49.7799 70.19 49.83 70.24 49.92 70.24C50.22 70.24 50.5399 69.67 50.6599 69.42L50.8199 69.47C50.7299 69.69 50.61 69.89 50.46 70.07C50.25 70.33 49.8499 70.6 49.5599 70.6C49.2999 70.6 48.9899 70.48 48.9999 70.16C48.9999 70.07 49.05 69.85 49.11 69.63L49.4099 68.53C49.5699 67.96 49.59 67.78 49.2 67.78C49 67.78 48.6899 68.04 48.5599 68.19C48.3699 68.39 48.21 68.66 48.14 68.92L47.71 70.49H46.9399L48.2299 65.59L48.24 65.61Z" fill="#333333"/>
<path d="M51.2502 67.72L51.3102 67.53H52.0002C52.2302 67.53 52.4602 67.5 52.6902 67.5L52.1102 69.66C52.0702 69.82 51.9902 70.04 51.9902 70.12C51.9902 70.23 52.0402 70.28 52.1502 70.28C52.4702 70.28 52.7502 69.69 52.9002 69.45L53.0602 69.51C52.9102 69.8 52.7402 70.08 52.5102 70.32C52.3202 70.52 52.0302 70.64 51.7702 70.61C51.4702 70.57 51.2302 70.44 51.2502 70.09C51.2502 70.02 51.2702 69.84 51.3302 69.64L51.8502 67.71H51.2602L51.2502 67.72ZM52.5502 66.47C52.3202 66.47 52.1302 66.27 52.1402 66.03C52.1402 65.81 52.3702 65.6 52.5802 65.6C52.7902 65.6 53.0102 65.8 53.0002 66.03C53.0002 66.27 52.7802 66.47 52.5502 66.47Z" fill="#333333"/>
<path d="M54.6903 68.24V68.26C55.0303 67.85 55.4603 67.49 56.0003 67.49C56.3603 67.49 56.6603 67.69 56.6503 68.09C56.6503 68.23 56.6203 68.34 56.5803 68.47L56.1203 70.11C56.0903 70.22 56.1703 70.28 56.2803 70.28C56.4903 70.28 56.9203 69.64 56.9903 69.45L57.1403 69.52C56.9503 69.92 56.6503 70.43 56.2003 70.54C56.0203 70.59 55.9503 70.59 55.7703 70.59C55.5403 70.59 55.2903 70.42 55.3003 70.17C55.3003 69.99 55.5503 69.25 55.6103 69.02C55.6503 68.88 55.8903 68.12 55.8903 68.04C55.8903 67.87 55.7303 67.81 55.5903 67.81C55.1303 67.81 54.6103 68.57 54.5103 68.98L54.1003 70.54H53.3203L54.0603 67.75H53.4703L53.5303 67.56H54.2203C54.4503 67.56 54.6803 67.53 54.9103 67.53L54.6903 68.27V68.24Z" fill="#333333"/>
<path d="M60.3302 67.79C60.6002 68.05 60.7502 68.35 60.7402 68.74C60.7002 69.71 59.7602 70.63 58.7902 70.63C58.6402 70.63 58.4902 70.61 58.3402 70.57C57.7702 70.44 57.4702 69.93 57.4902 69.32C57.5102 68.77 57.9002 68.27 58.2902 67.92C58.5602 67.69 58.9002 67.5 59.4002 67.5C59.7202 67.5 60.0902 67.58 60.3302 67.8V67.79ZM58.6302 68.32C58.5102 68.66 58.3002 69.46 58.2902 69.82C58.2802 70.22 58.3502 70.44 58.8002 70.44C58.9302 70.44 59.0702 70.41 59.1902 70.36C59.5102 70.24 59.6902 69.47 59.7702 69.19C59.8402 68.95 59.9402 68.43 59.9502 68.21C59.9702 67.82 59.7602 67.68 59.4002 67.68C58.9802 67.68 58.7702 67.96 58.6302 68.33V68.32Z" fill="#333333"/>
<path d="M64.5003 65.61H63.8303L63.8903 65.42L65.3403 65.37L64.1003 70.11C64.0803 70.18 64.1303 70.28 64.2203 70.28C64.4803 70.28 64.8603 69.69 64.9503 69.47L65.0803 69.54C64.8603 70.04 64.4603 70.62 63.8603 70.62C63.4803 70.62 63.3703 70.41 63.3503 70.06C63.0703 70.41 62.7903 70.62 62.3303 70.62C61.6103 70.62 61.1903 70.13 61.2203 69.41C61.2503 68.66 61.9303 67.74 62.6603 67.55C62.8203 67.5 62.9003 67.49 63.0703 67.49C63.4603 67.49 63.7302 67.67 63.8702 68.02L64.5003 65.61ZM62.4103 70.44C62.9003 70.44 63.2003 70.08 63.3903 69.66C63.5503 69.28 63.7303 68.7 63.7503 68.31C63.7603 67.93 63.5402 67.69 63.1502 67.69C62.6602 67.69 62.4303 68.3 62.2903 68.68C62.1603 69.06 61.9903 69.64 61.9803 70.03C61.9803 70.29 62.1703 70.45 62.4103 70.45V70.44Z" fill="#333333"/>
<path d="M68.1399 67.59H68.8699L68.3099 69.54C68.2299 69.8 68.1599 70 68.1599 70.12C68.1599 70.22 68.1999 70.29 68.2999 70.29C68.5399 70.29 68.9099 69.67 69.0099 69.46L69.1599 69.51C68.9699 70 68.5199 70.62 67.9499 70.62C67.6299 70.62 67.4199 70.39 67.4099 70.08C67.1599 70.43 66.8399 70.62 66.4099 70.62C65.7899 70.62 65.4199 70.16 65.4499 69.36C65.4799 68.51 66.3499 67.48 67.2399 67.48C67.6299 67.48 67.8899 67.78 67.9399 68.15H67.9499L68.1399 67.59ZM66.5799 70.44C66.7199 70.44 66.8399 70.36 66.9599 70.3C67.4699 70.05 67.7999 68.86 67.8099 68.37C67.8199 68.06 67.6599 67.68 67.3199 67.68C66.9799 67.68 66.7699 67.81 66.4099 68.98C65.9699 70.4 66.2899 70.44 66.5699 70.44H66.5799Z" fill="#333333"/>
<path d="M72.3003 65.49H74.3603C75.8003 65.49 76.6003 66.2 76.5503 67.65C76.5003 69.13 75.2603 70.51 73.3703 70.51H71.3203L71.3603 70.32H71.8103L72.9503 65.67H72.2503L72.2903 65.48L72.3003 65.49ZM72.7403 70.32H73.3403C74.2303 70.32 74.6003 70.12 74.9903 69.33C75.3803 68.54 75.5803 67.56 75.6003 66.93C75.6403 65.88 75.1803 65.67 74.2403 65.67H73.8803L72.7303 70.32H72.7403Z" fill="#333333"/>
<path d="M79.6201 69.75C79.2401 70.37 78.7401 70.62 78.0501 70.62C77.4001 70.62 76.8301 70.06 76.8501 69.4C76.8901 68.44 77.8001 67.48 78.7901 67.48C79.2901 67.48 79.8101 67.73 79.7901 68.31C79.7801 68.69 79.5101 68.91 79.2001 69.08C78.9901 69.19 78.7601 69.24 78.3101 69.24H77.7501C77.6601 69.44 77.6301 69.66 77.6201 69.89C77.6101 70.24 77.8901 70.42 78.2301 70.42C78.7601 70.42 79.2001 70.1 79.4801 69.66L79.6401 69.73L79.6201 69.75ZM78.0701 69.06C78.6801 69.06 79.1101 68.83 79.1301 68.16C79.1301 67.89 79.0301 67.67 78.7401 67.67C78.0901 67.67 77.9701 68.59 77.7901 69.05H78.0701V69.06Z" fill="#333333"/>
<path d="M81.1299 70.62C80.6899 70.62 80.1299 70.46 80.1499 69.92C80.1499 69.72 80.34 69.57 80.52 69.57C80.72 69.57 80.8499 69.72 80.8399 69.92C80.8399 70.05 80.69 70.17 80.68 70.24C80.68 70.4 81.0199 70.46 81.1299 70.44C81.4299 70.44 81.82 70.33 81.83 69.97C81.85 69.38 80.5899 69.15 80.6199 68.43C80.6399 67.83 81.2 67.49 81.74 67.49C82.21 67.49 82.5999 67.73 82.5899 67.99C82.5899 68.22 82.46 68.36 82.23 68.36C82.09 68.36 81.95 68.23 81.95 68.09C81.95 67.98 82.0299 67.92 82.0599 67.81C82.0599 67.68 81.83 67.68 81.73 67.68C81.52 67.68 81.1999 67.77 81.1899 68.03C81.1699 68.54 82.4299 68.68 82.3999 69.62C82.3799 70.28 81.7199 70.62 81.1299 70.62Z" fill="#333333"/>
<path d="M83.2101 67.72L83.2701 67.53H83.9601C84.1901 67.53 84.4201 67.5 84.6501 67.5L84.0701 69.66C84.0301 69.82 83.9501 70.04 83.9501 70.12C83.9501 70.23 84.0101 70.28 84.1101 70.28C84.4301 70.28 84.7101 69.69 84.8601 69.45L85.0201 69.51C84.8701 69.8 84.7001 70.08 84.4701 70.32C84.2801 70.52 83.9901 70.64 83.7301 70.61C83.4301 70.57 83.1901 70.44 83.2101 70.09C83.2101 70.02 83.2301 69.84 83.2901 69.64L83.8001 67.71H83.2101V67.72ZM84.5101 66.47C84.2801 66.47 84.0901 66.27 84.1001 66.03C84.1001 65.81 84.3301 65.6 84.5401 65.6C84.7501 65.6 84.9701 65.8 84.9601 66.03C84.9601 66.27 84.7401 66.47 84.5101 66.47Z" fill="#333333"/>
<path d="M88.0702 68.05C88.1502 67.78 88.2703 67.42 88.6103 67.42C88.7803 67.42 88.8802 67.54 88.8802 67.71C88.8802 67.85 88.7503 67.94 88.6403 67.96C88.5703 67.96 88.5303 67.95 88.4903 67.91C88.4503 67.89 88.4202 67.86 88.3702 67.86C88.2002 67.86 88.1202 68.44 88.0902 68.57C87.9602 69.14 87.3802 69.55 86.8202 69.55C86.5502 69.55 86.2902 69.5 86.0702 69.35C85.8902 69.43 85.6302 69.55 85.6202 69.78C85.6202 69.83 85.6903 69.88 85.7303 69.88C86.0303 69.94 86.3502 69.93 86.6602 69.94C87.8902 69.99 88.0902 70.2 88.0702 70.76C88.0502 71.38 87.5603 71.93 86.9903 72.13C86.6903 72.24 86.4502 72.27 86.0102 72.27C85.5202 72.27 84.6302 72 84.6502 71.38C84.6702 70.91 85.1702 70.59 85.6002 70.55V70.53C85.3202 70.46 85.1603 70.31 85.1703 70C85.1703 69.81 85.2302 69.55 85.9402 69.23C85.7802 69.02 85.7102 68.85 85.7202 68.56C85.7502 67.86 86.5002 67.48 87.1202 67.48C87.5502 67.48 87.9002 67.64 88.0902 68.04L88.0702 68.05ZM86.2202 72.08C86.8502 72.08 87.6903 71.73 87.7103 71.01C87.7103 70.78 87.5802 70.74 87.4002 70.69C87.2702 70.66 86.9902 70.61 85.9102 70.61C85.5602 70.61 85.1602 70.98 85.1502 71.33C85.1302 71.92 85.7502 72.07 86.2202 72.07V72.08ZM86.7502 69.36C87.1402 69.36 87.1603 69.32 87.4603 68.44C87.6503 67.85 87.5003 67.67 87.0803 67.67C86.6403 67.67 86.4102 68.11 86.3202 68.91C86.2702 69.29 86.5502 69.35 86.7502 69.35V69.36Z" fill="#333333"/>
<path d="M90.4 68.24V68.26C90.74 67.85 91.1701 67.49 91.7101 67.49C92.0701 67.49 92.37 67.69 92.36 68.09C92.36 68.23 92.33 68.34 92.29 68.47L91.83 70.11C91.79 70.22 91.8801 70.28 91.9901 70.28C92.2001 70.28 92.63 69.64 92.7 69.45L92.85 69.52C92.66 69.92 92.36 70.43 91.91 70.54C91.73 70.59 91.66 70.59 91.48 70.59C91.25 70.59 91 70.42 91.01 70.17C91.01 69.99 91.26 69.25 91.32 69.02C91.36 68.88 91.6 68.12 91.61 68.04C91.61 67.87 91.45 67.81 91.31 67.81C90.85 67.81 90.33 68.57 90.23 68.98L89.82 70.54H89.04L89.78 67.75H89.1801L89.2401 67.56H89.9301C90.1601 67.56 90.39 67.53 90.62 67.53L90.4 68.27V68.24Z" fill="#333333"/>
<path d="M97.07 65.8C97.48 65.53 97.9 65.37 98.3 65.37C99.42 65.37 100.18 66.33 100.14 67.4C100.11 68.25 99.6899 68.96 99.1199 69.57C98.5899 70.17 97.89 70.62 97.07 70.62C95.94 70.62 95.2399 69.66 95.2799 68.59C95.3199 67.47 96.15 66.41 97.07 65.8ZM97.16 70.44C98.05 70.44 98.36 69.71 98.66 69.01C98.91 68.41 99.15 67.33 99.17 66.69C99.19 66.04 99.0099 65.56 98.2799 65.56C97.8199 65.56 97.51 65.74 97.22 66.09C96.83 66.58 96.28 68.08 96.24 69.29C96.21 70.16 96.5299 70.43 97.1499 70.43L97.16 70.44Z" fill="#333333"/>
<path d="M102.15 67.6H102.89L102.83 67.79H102.11L101.86 68.79C101.78 69.12 101.69 69.45 101.6 69.77C101.44 70.3 101.07 71.21 100.73 71.65C100.39 72.1 100.12 72.27 99.5603 72.27C99.2703 72.27 98.9903 72.05 99.0103 71.76C99.0103 71.56 99.1703 71.4 99.3803 71.4C99.5503 71.4 99.7303 71.51 99.7203 71.7C99.7203 71.79 99.6803 71.84 99.6503 71.88C99.6203 71.92 99.5903 71.94 99.5903 71.99C99.5903 72.09 99.7103 72.09 99.7803 72.09C100.03 72.09 100.26 71.9 100.45 71.34C100.58 70.95 100.67 70.54 100.76 70.14L101.31 67.8H100.56L100.62 67.61H101.37C101.62 66.82 101.99 65.84 102.8 65.48C102.92 65.43 103.07 65.38 103.28 65.38C103.64 65.38 104.06 65.57 104.05 65.98C104.05 66.24 103.88 66.37 103.63 66.37C103.41 66.37 103.3 66.24 103.29 66.03C103.28 65.91 103.37 65.79 103.44 65.73C103.61 65.59 103.31 65.57 103.24 65.57C102.87 65.57 102.62 65.92 102.5 66.37L102.17 67.6H102.15Z" fill="#333333"/>
<path d="M105.33 67.6H106.07L106.01 67.79H105.29L105.04 68.79C104.96 69.12 104.87 69.45 104.78 69.77C104.63 70.3 104.25 71.21 103.91 71.65C103.57 72.1 103.3 72.27 102.74 72.27C102.45 72.27 102.17 72.05 102.19 71.76C102.19 71.56 102.35 71.4 102.56 71.4C102.73 71.4 102.91 71.51 102.9 71.7C102.9 71.79 102.87 71.84 102.83 71.88C102.8 71.92 102.77 71.94 102.77 71.99C102.77 72.09 102.89 72.09 102.96 72.09C103.21 72.09 103.44 71.9 103.64 71.34C103.77 70.95 103.86 70.54 103.95 70.14L104.5 67.8H103.75L103.81 67.61H104.56C104.81 66.82 105.18 65.84 105.99 65.48C106.11 65.43 106.26 65.38 106.47 65.38C106.83 65.38 107.25 65.57 107.24 65.98C107.24 66.24 107.07 66.37 106.82 66.37C106.6 66.37 106.5 66.24 106.48 66.03C106.48 65.91 106.56 65.79 106.63 65.73C106.8 65.59 106.5 65.57 106.43 65.57C106.06 65.57 105.81 65.92 105.69 66.37L105.36 67.6H105.33Z" fill="#333333"/>
<path d="M106.91 67.72L106.97 67.53H107.66C107.89 67.53 108.12 67.5 108.35 67.5L107.77 69.66C107.73 69.82 107.65 70.04 107.65 70.12C107.65 70.23 107.7 70.28 107.81 70.28C108.13 70.28 108.41 69.69 108.56 69.45L108.72 69.51C108.57 69.8 108.4 70.08 108.17 70.32C107.98 70.52 107.69 70.64 107.43 70.61C107.13 70.57 106.89 70.44 106.91 70.09C106.91 70.02 106.93 69.84 106.99 69.64L107.5 67.71H106.91V67.72ZM108.21 66.47C107.98 66.47 107.79 66.27 107.8 66.03C107.8 65.81 108.03 65.6 108.24 65.6C108.45 65.6 108.67 65.8 108.66 66.03C108.66 66.27 108.44 66.47 108.21 66.47Z" fill="#333333"/>
<path d="M111.59 69.7C111.25 70.26 110.77 70.62 110.11 70.62C109.38 70.62 108.91 70.06 108.94 69.34C108.97 68.39 109.96 67.48 110.9 67.48C111.32 67.48 111.86 67.66 111.85 68.17C111.85 68.41 111.63 68.54 111.42 68.54C111.25 68.54 111.07 68.38 111.07 68.21C111.07 68.11 111.1 68.06 111.14 68.01C111.18 67.97 111.3 67.93 111.3 67.87C111.34 67.7 110.96 67.68 110.85 67.68C110.37 67.68 110.17 68.14 110.04 68.52C109.94 68.84 109.72 69.53 109.71 69.84C109.7 70.19 109.9 70.44 110.25 70.44C110.76 70.44 111.18 70.03 111.46 69.64L111.6 69.71L111.59 69.7Z" fill="#333333"/>
<path d="M115.01 69.75C114.63 70.37 114.14 70.62 113.44 70.62C112.79 70.62 112.22 70.06 112.24 69.4C112.28 68.44 113.19 67.48 114.18 67.48C114.68 67.48 115.2 67.73 115.18 68.31C115.17 68.69 114.9 68.91 114.59 69.08C114.38 69.19 114.15 69.24 113.7 69.24H113.14C113.05 69.44 113.02 69.66 113.01 69.89C113 70.24 113.28 70.42 113.61 70.42C114.14 70.42 114.58 70.1 114.86 69.66L115.02 69.73L115.01 69.75ZM113.46 69.06C114.07 69.06 114.5 68.83 114.52 68.16C114.52 67.89 114.42 67.67 114.13 67.67C113.47 67.67 113.36 68.59 113.18 69.05H113.46V69.06Z" fill="#333333"/>
<path d="M117.56 67.72L117.62 67.53H118.31C118.54 67.53 118.77 67.5 119 67.5L118.42 69.66C118.38 69.82 118.3 70.04 118.3 70.12C118.3 70.23 118.35 70.28 118.46 70.28C118.78 70.28 119.06 69.69 119.21 69.45L119.37 69.51C119.22 69.8 119.05 70.08 118.82 70.32C118.63 70.52 118.34 70.64 118.08 70.61C117.78 70.57 117.54 70.44 117.56 70.09C117.56 70.02 117.58 69.84 117.64 69.64L118.16 67.71H117.56V67.72ZM118.86 66.47C118.63 66.47 118.44 66.27 118.45 66.03C118.45 65.81 118.68 65.6 118.9 65.6C119.12 65.6 119.33 65.8 119.32 66.03C119.32 66.27 119.1 66.47 118.87 66.47H118.86Z" fill="#333333"/>
<path d="M120.99 68.24V68.26C121.33 67.85 121.76 67.49 122.3 67.49C122.66 67.49 122.96 67.69 122.95 68.09C122.95 68.23 122.92 68.34 122.88 68.47L122.42 70.11C122.39 70.22 122.47 70.28 122.58 70.28C122.79 70.28 123.22 69.64 123.29 69.45L123.44 69.52C123.25 69.92 122.95 70.43 122.5 70.54C122.32 70.59 122.25 70.59 122.07 70.59C121.84 70.59 121.59 70.42 121.6 70.17C121.6 69.99 121.85 69.25 121.91 69.02C121.95 68.88 122.19 68.12 122.19 68.04C122.19 67.87 122.03 67.81 121.89 67.81C121.43 67.81 120.91 68.57 120.81 68.98L120.4 70.54H119.63L120.36 67.75H119.77L119.83 67.56H120.52C120.75 67.56 120.98 67.53 121.21 67.53L120.99 68.27V68.24Z" fill="#333333"/>
<path d="M126.42 69.7C126.08 70.26 125.6 70.62 124.94 70.62C124.21 70.62 123.74 70.06 123.77 69.34C123.8 68.39 124.79 67.48 125.73 67.48C126.15 67.48 126.7 67.66 126.68 68.17C126.68 68.41 126.46 68.54 126.24 68.54C126.08 68.54 125.89 68.38 125.89 68.21C125.89 68.11 125.92 68.06 125.96 68.01C126 67.97 126.11 67.93 126.12 67.87C126.16 67.7 125.78 67.68 125.67 67.68C125.19 67.68 124.99 68.14 124.86 68.52C124.76 68.84 124.54 69.53 124.53 69.84C124.52 70.19 124.72 70.44 125.07 70.44C125.58 70.44 126 70.03 126.28 69.64L126.42 69.71V69.7Z" fill="#333333"/>
<path d="M128.47 70.14C128.47 70.4 128.21 70.62 127.98 70.62C127.75 70.62 127.5 70.4 127.51 70.14C127.52 69.87 127.78 69.66 128.02 69.66C128.26 69.66 128.49 69.87 128.48 70.14H128.47Z" fill="#333333"/>
</svg>
