<svg width="320" height="320" fill="none" xmlns="http://www.w3.org/2000/svg"><g clip-path="url(#clip0_863_147)"><path d="M160 320c88.362 0 160-71.638 160-160S248.362 0 160 0 0 71.638 0 160s71.638 160 160 160z" fill="#004199"/><path d="M72.63 160.263c-3.54 0-6.388-1.234-8.495-3.341-3.194-3.194-3.391-6.157-3.391-13.943s.197-10.732 3.391-13.942c2.107-2.107 4.971-3.342 8.494-3.342 6.157 0 10.602 3.77 11.787 10.124h-3.72c-.906-4.198-3.82-6.864-8.067-6.864-2.288 0-4.296.806-5.877 2.387-2.14 2.189-2.386 4.674-2.386 11.637s.246 9.449 2.386 11.638c1.58 1.58 3.573 2.387 5.877 2.387 4.247 0 7.26-2.667 8.165-6.864h3.622c-1.202 6.354-5.68 10.123-11.787 10.123zm33.301-2.666c-1.629 1.662-3.868 2.666-6.733 2.666-2.864 0-5.103-1.004-6.732-2.666-2.387-2.436-2.865-5.729-2.865-9.35 0-3.621.478-6.963 2.865-9.35 1.63-1.662 3.868-2.667 6.733-2.667 2.864 0 5.103 1.005 6.732 2.667 2.387 2.387 2.865 5.729 2.865 9.35 0 3.621-.478 6.914-2.865 9.35zm-2.42-16.609c-1.152-1.153-2.617-1.712-4.296-1.712-1.68 0-3.095.576-4.247 1.712-1.712 1.712-1.91 4.576-1.91 7.259 0 2.683.148 5.481 1.91 7.259 1.152 1.152 2.584 1.712 4.247 1.712 1.663 0 3.144-.576 4.296-1.712 1.713-1.761 1.861-4.625 1.861-7.259 0-2.634-.148-5.531-1.861-7.259zm24.808 0c-1.284-1.284-2.239-1.712-4.05-1.712-3.44 0-5.629 2.716-5.629 6.304V160h-3.441v-23.473h3.441v2.864c1.284-1.959 3.868-3.144 6.584-3.144 2.239 0 3.967.527 5.63 2.189l-2.535 2.584v-.032zm21.812 17.218c-1.234 1.234-3.292 2.057-5.729 2.057-2.584 0-4.675-.625-6.634-3.061v13.267h-3.44v-33.975h3.44v2.765c1.959-2.436 4.017-3.061 6.634-3.061 2.437 0 4.495.806 5.729 2.057 2.338 2.338 2.865 6.206 2.865 9.975 0 3.77-.527 7.589-2.865 9.976zm-6.453-18.947c-5.152 0-5.91 4.395-5.91 8.971 0 4.577.758 8.972 5.91 8.972 5.153 0 5.877-4.395 5.877-8.972 0-4.576-.757-8.971-5.877-8.971zm30.784 18.338c-1.63 1.662-3.869 2.666-6.733 2.666-2.865 0-5.103-1.004-6.733-2.666-2.387-2.436-2.864-5.729-2.864-9.35 0-3.621.477-6.963 2.864-9.35 1.63-1.662 3.868-2.667 6.733-2.667 2.864 0 5.103 1.005 6.733 2.667 2.387 2.387 2.864 5.729 2.864 9.35 0 3.621-.477 6.914-2.864 9.35zm-2.437-16.609c-1.152-1.153-2.617-1.712-4.296-1.712-1.679 0-3.095.576-4.247 1.712-1.712 1.712-1.91 4.576-1.91 7.259 0 2.683.148 5.481 1.91 7.259 1.152 1.152 2.584 1.712 4.247 1.712 1.662 0 3.144-.576 4.296-1.712 1.712-1.761 1.86-4.625 1.86-7.259 0-2.634-.148-5.531-1.86-7.259zm24.824 0c-1.284-1.284-2.239-1.712-4.049-1.712-3.441 0-5.63 2.716-5.63 6.304V160h-3.44v-23.473h3.44v2.864c1.284-1.959 3.868-3.144 6.584-3.144 2.239 0 3.967.527 5.63 2.189l-2.535 2.584v-.032zm19.327 18.996v-2.239c-1.86 1.86-3.622 2.535-6.782 2.535-3.161 0-5.005-.576-6.635-2.14-1.185-1.152-1.761-2.914-1.761-4.774 0-4.148 2.914-6.782 8.165-6.782h7.013v-2.238c0-3.391-1.663-5.153-6.009-5.153-2.963 0-4.494.758-5.91 2.716l-2.337-2.139c2.058-2.716 4.445-3.54 8.297-3.54 6.354 0 9.399 2.766 9.399 7.819v15.935h-3.44zm0-10.848h-6.536c-3.539 0-5.3 1.383-5.3 4.148 0 2.765 1.662 4.016 5.449 4.016 1.959 0 3.671-.197 5.202-1.58.806-.757 1.185-2.107 1.185-4.049v-2.535zm17.416 10.848c-4.017 0-6.008-2.815-6.008-6.305v-14.551h-2.963v-2.618h2.963v-7.21h3.44v7.21h5.004v2.618h-5.004v14.452c0 2.14 1.004 3.441 3.193 3.441h1.811v2.963h-2.436zm10.453-10.848c0 5.152 2.387 8.115 6.914 8.115 2.717 0 4.297-.807 6.157-2.667l2.338 2.058c-2.387 2.387-4.626 3.621-8.593 3.621-6.256 0-10.256-3.72-10.256-12.033 0-7.637 3.671-12.032 9.647-12.032 5.975 0 9.646 4.345 9.646 11.407v1.531h-15.853zm11.688-6.486c-1.004-2.14-2.963-3.539-5.481-3.539-2.519 0-4.494 1.383-5.482 3.539-.576 1.235-.626 2.008-.708 3.918h12.461c-.148-1.91-.197-2.667-.757-3.918h-.033zM82.918 197.366c-1.877 0-3.392-.658-4.494-1.761-1.696-1.695-1.795-3.259-1.795-7.374 0-4.116.1-5.679 1.795-7.375 1.119-1.119 2.633-1.761 4.493-1.761 3.26 0 5.614 1.991 6.24 5.35H87.18c-.477-2.223-2.025-3.638-4.263-3.638-1.219 0-2.272.428-3.112 1.267-1.135 1.169-1.267 2.469-1.267 6.173s.132 5.004 1.267 6.173c.84.839 1.893 1.267 3.112 1.267 2.255 0 3.835-1.415 4.312-3.638h1.926c-.625 3.358-3.012 5.35-6.239 5.35v-.033zm17.63-1.415c-.856.889-2.04 1.416-3.555 1.416-1.515 0-2.7-.527-3.556-1.416-1.268-1.284-1.515-3.029-1.515-4.955 0-1.926.247-3.687 1.515-4.955.856-.889 2.041-1.415 3.556-1.415 1.514 0 2.7.526 3.555 1.415 1.268 1.268 1.515 3.029 1.515 4.955 0 1.926-.247 3.671-1.515 4.955zm-1.284-8.79c-.609-.609-1.382-.906-2.271-.906-.89 0-1.647.297-2.256.906-.905.905-1.004 2.42-1.004 3.835 0 1.416.082 2.914 1.004 3.836.61.609 1.367.905 2.256.905.889 0 1.662-.296 2.271-.905.906-.938.988-2.453.988-3.836 0-1.382-.082-2.93-.988-3.835zm22.158 10.058v-7.655c0-2.206-1.185-3.309-3.062-3.309-1.877 0-3.111 1.136-3.111 3.112v7.852h-1.811v-7.655c0-2.206-1.185-3.309-3.062-3.309-1.877 0-3.111 1.136-3.111 3.309v7.655h-1.827V184.79h1.827v1.367c.889-1.005 2.123-1.515 3.506-1.515 1.712 0 3.062.708 3.819 2.074.955-1.366 2.354-2.074 4.099-2.074 1.334 0 2.453.428 3.21 1.169.889.856 1.334 2.025 1.334 3.457v7.967h-1.811v-.016zm21.696 0v-7.655c0-2.206-1.185-3.309-3.061-3.309-1.877 0-3.112 1.136-3.112 3.112v7.852h-1.811v-7.655c0-2.206-1.185-3.309-3.061-3.309-1.877 0-3.112 1.136-3.112 3.309v7.655h-1.827V184.79h1.827v1.367c.889-1.005 2.124-1.515 3.507-1.515 1.712 0 3.062.708 3.819 2.074.955-1.366 2.354-2.074 4.099-2.074 1.333 0 2.453.428 3.21 1.169.889.856 1.333 2.025 1.333 3.457v7.967h-1.811v-.016zm13.598 0v-1.383c-.889 1.004-2.124 1.547-3.506 1.547-1.383 0-2.453-.411-3.211-1.168-.888-.856-1.267-2.042-1.267-3.49v-7.935h1.827v7.655c0 2.206 1.169 3.309 3.029 3.309 1.86 0 3.111-1.136 3.111-3.309v-7.655h1.811v12.429h-1.794zm13.795 0v-7.655c0-2.206-1.185-3.309-3.062-3.309-1.877 0-3.078 1.136-3.078 3.309v7.655h-1.828V184.79h1.828v1.367c.889-1.005 2.09-1.515 3.489-1.515 1.4 0 2.42.412 3.178 1.169.889.856 1.284 2.025 1.284 3.457v7.967h-1.828l.017-.016zm5.63-15.968v-2.041h2.041v2.041h-2.041zm.099 15.967V184.79h1.827v12.428h-1.827zm10.683.149c-3.128 0-5.515-2.124-5.515-6.371s2.371-6.37 5.515-6.37c1.712 0 2.799.461 4.099 1.843l-1.235 1.169c-.938-1.037-1.662-1.383-2.847-1.383-1.186 0-2.223.478-2.881 1.416-.576.807-.807 1.761-.807 3.342 0 1.58.231 2.535.807 3.341.658.939 1.662 1.416 2.881 1.416 1.218 0 1.926-.378 2.847-1.416l1.235 1.186c-1.284 1.383-2.37 1.843-4.099 1.843v-.016zm14.091-.148v-1.185c-.987.987-1.926 1.333-3.588 1.333-1.663 0-2.651-.296-3.507-1.136-.625-.609-.938-1.547-.938-2.535 0-2.206 1.547-3.589 4.313-3.589h3.72v-1.185c0-1.794-.889-2.733-3.177-2.733-1.564 0-2.37.412-3.127 1.449l-1.235-1.136c1.086-1.432 2.354-1.876 4.395-1.876 3.358 0 4.972 1.465 4.972 4.148v8.445h-1.828zm0-5.729h-3.457c-1.876 0-2.798.724-2.798 2.206s.889 2.124 2.881 2.124c1.037 0 1.942-.099 2.749-.84.428-.412.625-1.119.625-2.14v-1.35zm9.235 5.729c-2.123 0-3.177-1.498-3.177-3.342v-7.704h-1.564v-1.383h1.564v-3.819h1.811v3.819h2.65v1.383h-2.65v7.655c0 1.136.527 1.827 1.696 1.827h.954v1.564h-1.284zm4.281-15.968v-2.041h2.041v2.041h-2.041zm.098 15.967V184.79h1.827v12.428h-1.827zm13.861-1.267c-.856.889-2.041 1.416-3.556 1.416-1.514 0-2.699-.527-3.555-1.416-1.268-1.284-1.515-3.029-1.515-4.955 0-1.926.247-3.687 1.515-4.955.856-.889 2.041-1.415 3.555-1.415 1.515 0 2.7.526 3.556 1.415 1.268 1.268 1.514 3.029 1.514 4.955 0 1.926-.246 3.671-1.514 4.955zm-1.3-8.79c-.61-.609-1.383-.906-2.272-.906-.889 0-1.646.297-2.255.906-.906.905-1.005 2.42-1.005 3.835 0 1.416.083 2.914 1.005 3.836.609.609 1.366.905 2.255.905.889 0 1.662-.296 2.272-.905.905-.938.987-2.453.987-3.836 0-1.382-.082-2.93-.987-3.835zm14.157 10.058v-7.655c0-2.206-1.186-3.309-3.062-3.309-1.877 0-3.079 1.136-3.079 3.309v7.655h-1.827V184.79h1.827v1.367c.889-1.005 2.091-1.515 3.49-1.515 1.4 0 2.42.412 3.177 1.169.889.856 1.284 2.025 1.284 3.457v7.967h-1.827l.017-.016z" fill="#fff"/></g><defs><clipPath id="clip0_863_147"><path fill="#fff" d="M0 0h320v320H0z"/></clipPath></defs></svg>