<svg width="320" height="320" fill="none" xmlns="http://www.w3.org/2000/svg"><g clip-path="url(#clip0_863_174)"><path d="M160 320c88.362 0 160-71.638 160-160S248.362 0 160 0 0 71.638 0 160s71.638 160 160 160z" fill="#CA2436"/><path d="M74.173 162.519c-3.54 0-6.387-1.235-8.494-3.342-3.193-3.193-3.39-6.156-3.39-13.942 0-7.786.197-10.733 3.39-13.943 2.107-2.107 4.971-3.341 8.494-3.341 6.156 0 10.6 3.769 11.786 10.123h-3.72c-.906-4.197-3.82-6.864-8.066-6.864-2.288 0-4.296.807-5.877 2.387-2.14 2.189-2.387 4.675-2.387 11.638s.247 9.448 2.387 11.637c1.58 1.581 3.572 2.387 5.877 2.387 4.247 0 7.26-2.666 8.165-6.864h3.62c-1.184 6.354-5.678 10.124-11.785 10.124zm33.07-.297v-2.617c-1.663 1.909-4.017 2.914-6.634 2.914s-4.625-.758-6.057-2.19c-1.663-1.629-2.387-3.868-2.387-6.584v-14.979h3.44v14.452c0 4.148 2.19 6.255 5.728 6.255 3.539 0 5.877-2.14 5.877-6.255v-14.452h3.44v23.473h-3.391l-.016-.017zm18.42.297c-4.017 0-7.112-.906-9.647-3.391l2.289-2.288c1.81 1.909 4.395 2.716 7.308 2.716 3.918 0 6.255-1.383 6.255-4.148 0-2.107-1.152-3.194-3.917-3.441l-3.869-.329c-4.576-.379-7.012-2.387-7.012-6.305 0-4.296 3.572-6.864 8.642-6.864 3.391 0 6.304.807 8.444 2.535l-2.238 2.239c-1.663-1.284-3.819-1.86-6.255-1.86-3.441 0-5.251 1.432-5.251 3.868 0 2.107 1.283 3.144 4.197 3.44l3.671.33c4.099.378 6.913 1.909 6.913 6.354 0 4.444-3.818 7.16-9.547 7.16l.017-.016zm21.909-.297c-4 0-6.008-2.815-6.008-6.304v-14.552h-2.963v-2.617h2.963v-7.21h3.44v7.21h5.004v2.617h-5.004v14.453c0 2.14 1.004 3.44 3.194 3.44h1.81v2.963h-2.436zm23.375-2.387c-1.63 1.663-3.869 2.667-6.733 2.667-2.864 0-5.103-1.004-6.732-2.667-2.387-2.436-2.865-5.728-2.865-9.349 0-3.622.478-6.963 2.865-9.35 1.629-1.663 3.868-2.667 6.732-2.667 2.864 0 5.103 1.004 6.733 2.667 2.386 2.387 2.864 5.728 2.864 9.35 0 3.621-.478 6.913-2.864 9.349zm-2.437-16.592c-1.152-1.152-2.617-1.712-4.296-1.712-1.679 0-3.095.576-4.247 1.712-1.712 1.712-1.909 4.576-1.909 7.259 0 2.683.148 5.482 1.909 7.259 1.152 1.153 2.584 1.712 4.247 1.712 1.663 0 3.144-.576 4.296-1.712 1.712-1.761 1.86-4.625 1.86-7.259 0-2.634-.148-5.531-1.86-7.259zm41.86 18.979V147.77c0-4.149-2.238-6.256-5.777-6.256-3.54 0-5.877 2.14-5.877 5.877v14.848h-3.44v-14.453c0-4.148-2.239-6.255-5.778-6.255-3.539 0-5.877 2.14-5.877 6.255v14.453h-3.44v-23.474h3.44v2.585c1.663-1.91 4.017-2.864 6.634-2.864 3.243 0 5.778 1.333 7.21 3.917 1.811-2.584 4.444-3.917 7.737-3.917 2.535 0 4.625.806 6.057 2.189 1.663 1.63 2.535 3.819 2.535 6.535v15.029h-3.44l.016-.017zm12.972-10.831c0 5.152 2.386 8.115 6.913 8.115 2.716 0 4.296-.806 6.157-2.666l2.337 2.057c-2.387 2.387-4.626 3.622-8.593 3.622-6.255 0-10.255-3.721-10.255-12.033 0-7.638 3.671-12.033 9.646-12.033 5.976 0 9.646 4.345 9.646 11.407v1.531h-15.851zm11.687-6.486c-1.004-2.139-2.963-3.539-5.482-3.539-2.518 0-4.493 1.383-5.481 3.539-.576 1.235-.626 2.009-.708 3.918h12.461c-.148-1.909-.198-2.667-.757-3.918h-.033zm23.621-1.662c-1.284-1.284-2.238-1.712-4.049-1.712-3.44 0-5.63 2.716-5.63 6.304v14.42h-3.44v-23.473h3.44v2.864c1.284-1.959 3.869-3.144 6.585-3.144 2.238 0 3.967.527 5.629 2.189l-2.535 2.585v-.033zM82.914 199.605c-1.877 0-3.391-.658-4.494-1.761-1.696-1.696-1.794-3.26-1.794-7.375s.098-5.679 1.794-7.374c1.12-1.12 2.633-1.762 4.494-1.762 3.259 0 5.613 1.992 6.238 5.35h-1.975c-.477-2.222-2.025-3.638-4.263-3.638-1.219 0-2.272.428-3.112 1.268-1.135 1.169-1.267 2.469-1.267 6.173 0 3.703.132 5.004 1.267 6.172.84.84 1.893 1.268 3.112 1.268 2.255 0 3.835-1.416 4.312-3.638h1.926c-.625 3.358-3.012 5.35-6.238 5.35v-.033zm17.629-1.416c-.856.889-2.04 1.416-3.555 1.416-1.515 0-2.7-.527-3.556-1.416-1.267-1.284-1.514-3.028-1.514-4.954 0-1.926.247-3.688 1.514-4.955.856-.889 2.041-1.416 3.556-1.416 1.514 0 2.7.527 3.555 1.416 1.268 1.267 1.515 3.029 1.515 4.955 0 1.926-.247 3.67-1.515 4.954zm-1.284-8.79c-.609-.609-1.382-.905-2.271-.905-.89 0-1.646.296-2.255.905-.906.906-1.005 2.42-1.005 3.836 0 1.415.083 2.913 1.005 3.835.609.609 1.366.905 2.255.905.889 0 1.662-.296 2.271-.905.906-.938.988-2.453.988-3.835 0-1.383-.082-2.93-.988-3.836zm22.157 10.058v-7.654c0-2.206-1.186-3.309-3.062-3.309-1.877 0-3.111 1.136-3.111 3.111v7.852h-1.827v-7.654c0-2.206-1.186-3.309-3.062-3.309-1.877 0-3.111 1.136-3.111 3.309v7.654h-1.827v-12.428h1.827v1.366c.889-1.004 2.123-1.514 3.506-1.514 1.712 0 3.062.708 3.819 2.074.955-1.366 2.354-2.074 4.099-2.074 1.333 0 2.452.428 3.21 1.168.888.856 1.333 2.025 1.333 3.457v7.967h-1.827l.033-.016zm21.695 0v-7.654c0-2.206-1.185-3.309-3.062-3.309-1.876 0-3.111 1.136-3.111 3.111v7.852h-1.81v-7.654c0-2.206-1.186-3.309-3.062-3.309-1.877 0-3.111 1.136-3.111 3.309v7.654h-1.827v-12.428h1.827v1.366c.889-1.004 2.123-1.514 3.506-1.514 1.712 0 3.062.708 3.819 2.074.955-1.366 2.354-2.074 4.099-2.074 1.333 0 2.452.428 3.209 1.168.889.856 1.334 2.025 1.334 3.457v7.967h-1.811v-.016zm13.597 0v-1.383c-.889 1.004-2.124 1.547-3.506 1.547-1.383 0-2.453-.411-3.21-1.168-.889-.856-1.268-2.041-1.268-3.49v-7.934h1.827v7.654c0 2.206 1.169 3.309 3.029 3.309 1.86 0 3.111-1.136 3.111-3.309v-7.654h1.811v12.428h-1.794zm13.794 0v-7.654c0-2.206-1.185-3.309-3.062-3.309-1.876 0-3.078 1.136-3.078 3.309v7.654h-1.827v-12.428h1.827v1.366c.889-1.004 2.091-1.514 3.49-1.514s2.42.411 3.177 1.168c.889.856 1.284 2.025 1.284 3.457v7.967h-1.827l.016-.016zm5.63-15.967v-2.041h2.041v2.041h-2.041zm.098 15.967v-12.428h1.828v12.428h-1.828zm10.684.148c-3.128 0-5.515-2.123-5.515-6.37s2.371-6.371 5.515-6.371c1.712 0 2.798.461 4.098 1.844l-1.234 1.169c-.938-1.037-1.663-1.383-2.848-1.383-1.185 0-2.222.477-2.881 1.416-.576.806-.806 1.761-.806 3.341 0 1.58.23 2.535.806 3.342.659.938 1.663 1.415 2.881 1.415 1.218 0 1.926-.378 2.848-1.415l1.234 1.185c-1.284 1.383-2.37 1.843-4.098 1.843v-.016zm14.09-.148v-1.185c-.988.987-1.926 1.333-3.588 1.333-1.663 0-2.651-.296-3.507-1.136-.625-.609-.938-1.547-.938-2.535 0-2.206 1.548-3.588 4.313-3.588h3.72v-1.185c0-1.795-.889-2.733-3.177-2.733-1.564 0-2.37.412-3.127 1.449l-1.235-1.136c1.086-1.432 2.354-1.877 4.395-1.877 3.358 0 4.971 1.465 4.971 4.148v8.445h-1.827zm0-5.729h-3.457c-1.876 0-2.798.725-2.798 2.206 0 1.482.889 2.124 2.881 2.124 1.037 0 1.942-.099 2.749-.84.428-.411.625-1.119.625-2.14v-1.35zm9.235 5.729c-2.124 0-3.177-1.498-3.177-3.342v-7.703h-1.564v-1.383h1.564v-3.819h1.81v3.819h2.651v1.383h-2.651v7.654c0 1.136.527 1.827 1.696 1.827h.955v1.564h-1.284zm4.28-15.967v-2.041h2.041v2.041h-2.041zm.115 15.967v-12.428h1.827v12.428h-1.827zm13.843-1.268c-.856.889-2.041 1.416-3.572 1.416-1.531 0-2.699-.527-3.555-1.416-1.268-1.284-1.515-3.028-1.515-4.954 0-1.926.247-3.688 1.515-4.955.856-.889 2.041-1.416 3.555-1.416 1.515 0 2.7.527 3.572 1.416 1.268 1.267 1.515 3.029 1.515 4.955 0 1.926-.247 3.67-1.515 4.954zm-1.3-8.79c-.609-.609-1.383-.905-2.272-.905-.889 0-1.646.296-2.255.905-.905.906-1.004 2.42-1.004 3.836 0 1.415.082 2.913 1.004 3.835.609.609 1.366.905 2.255.905.889 0 1.663-.296 2.272-.905.905-.938.988-2.453.988-3.835 0-1.383-.083-2.93-.988-3.836zm14.156 10.058v-7.654c0-2.206-1.185-3.309-3.061-3.309-1.877 0-3.079 1.136-3.079 3.309v7.654h-1.827v-12.428h1.827v1.366c.889-1.004 2.091-1.514 3.49-1.514s2.42.411 3.177 1.168c.889.856 1.284 2.025 1.284 3.457v7.967h-1.811v-.016z" fill="#fff"/></g><defs><clipPath id="clip0_863_174"><path fill="#fff" d="M0 0h320v320H0z"/></clipPath></defs></svg>