<svg width="320" height="320" fill="none" xmlns="http://www.w3.org/2000/svg"><g clip-path="url(#clip0_863_200)"><path d="M160 320c88.362 0 160-71.638 160-160S248.362 0 160 0 0 71.638 0 160s71.638 160 160 160z" fill="#D4A200"/><path d="M113.185 159.984H99.967v-33.976h12.79c5.91 0 10.025 3.391 10.025 9.07 0 3.572-2.14 6.387-5.004 7.441 3.243 1.185 5.531 4.016 5.531 8.065 0 6.157-4.099 9.4-10.124 9.4zm-.708-30.749h-8.872v11.786h8.872c3.77 0 6.683-1.86 6.683-5.91 0-4.049-2.913-5.876-6.683-5.876zm.379 15.045h-9.251v12.461h9.251c4.197 0 6.831-2.436 6.831-6.255s-2.617-6.206-6.831-6.206zm31.49-3.292c-1.284-1.284-2.239-1.712-4.05-1.712-3.44 0-5.629 2.716-5.629 6.304V160h-3.441v-23.473h3.441v2.864c1.284-1.959 3.868-3.144 6.584-3.144 2.239 0 3.967.527 5.63 2.189l-2.535 2.585v-.033zm20.279 18.996v-2.239c-1.86 1.86-3.621 2.535-6.781 2.535-3.161 0-5.005-.576-6.634-2.14-1.185-1.152-1.762-2.914-1.762-4.774 0-4.148 2.914-6.782 8.165-6.782h7.012v-2.238c0-3.391-1.662-5.153-6.008-5.153-2.963 0-4.494.758-5.909 2.716l-2.338-2.139c2.058-2.716 4.445-3.54 8.297-3.54 6.354 0 9.399 2.766 9.399 7.819v15.935h-3.441zm0-10.848h-6.535c-3.539 0-5.3 1.383-5.3 4.148 0 2.765 1.663 4.016 5.449 4.016 1.958 0 3.67-.197 5.201-1.58.807-.757 1.202-2.107 1.202-4.049v-2.535h-.017zm26.815 10.848v-14.453c0-4.148-2.238-6.255-5.777-6.255-3.54 0-5.828 2.14-5.828 6.255v14.453h-3.44V136.51h3.44v2.585c1.663-1.91 3.967-2.865 6.585-2.865 2.617 0 4.576.758 6.008 2.19 1.662 1.629 2.436 3.819 2.436 6.535v15.029h-3.44.016zm25.811 0v-2.815c-1.959 2.485-4.017 3.094-6.683 3.094-2.436 0-4.494-.806-5.729-2.057-2.337-2.387-2.864-6.206-2.864-9.975 0-3.77.527-7.638 2.864-9.976 1.235-1.234 3.293-2.057 5.729-2.057 2.617 0 4.675.576 6.634 3.012v-13.218h3.44v33.975h-3.391v.017zm-5.91-20.725c-5.152 0-5.909 4.395-5.909 8.972 0 4.576.757 8.971 5.909 8.971 5.153 0 5.877-4.395 5.877-8.971 0-4.577-.757-8.972-5.877-8.972zM79.885 197.366c-1.877 0-3.391-.658-4.494-1.761-1.696-1.695-1.794-3.259-1.794-7.374 0-4.116.098-5.679 1.794-7.375 1.103-1.119 2.634-1.761 4.494-1.761 3.259 0 5.613 1.991 6.238 5.35h-1.975c-.477-2.223-2.025-3.638-4.263-3.638-1.218 0-2.272.428-3.111 1.267-1.136 1.169-1.268 2.469-1.268 6.173s.132 5.004 1.268 6.173c.84.839 1.893 1.267 3.11 1.267 2.256 0 3.836-1.415 4.314-3.638h1.925c-.625 3.358-3.012 5.35-6.238 5.35v-.033zm18.14-1.415c-.856.889-2.041 1.415-3.572 1.415-1.531 0-2.7-.526-3.556-1.415-1.267-1.284-1.514-3.029-1.514-4.955 0-1.926.247-3.687 1.514-4.955.856-.889 2.041-1.415 3.556-1.415 1.514 0 2.7.526 3.572 1.415 1.267 1.268 1.514 3.029 1.514 4.955 0 1.926-.247 3.671-1.514 4.955zm-1.3-8.79c-.61-.609-1.383-.906-2.272-.906-.89 0-1.646.297-2.255.906-.906.905-1.005 2.419-1.005 3.835s.083 2.914 1.005 3.835c.609.609 1.366.906 2.255.906.888 0 1.662-.297 2.271-.906.906-.938.988-2.452.988-3.835s-.082-2.93-.988-3.835zm22.666 10.057v-7.654c0-2.206-1.185-3.309-3.062-3.309-1.876 0-3.111 1.136-3.111 3.111v7.852h-1.827v-7.654c0-2.206-1.185-3.309-3.062-3.309-1.876 0-3.111 1.136-3.111 3.309v7.654h-1.811V184.79h1.811v1.366c.889-1.004 2.124-1.514 3.506-1.514 1.712 0 3.062.708 3.819 2.074.955-1.366 2.354-2.074 4.099-2.074 1.333 0 2.453.428 3.21 1.169.889.856 1.333 2.025 1.333 3.457v7.967h-1.827l.033-.017zm22.206 0v-7.654c0-2.206-1.185-3.309-3.062-3.309-1.877 0-3.111 1.136-3.111 3.111v7.852h-1.827v-7.654c0-2.206-1.185-3.309-3.062-3.309-1.877 0-3.111 1.136-3.111 3.309v7.654h-1.811V184.79h1.811v1.366c.889-1.004 2.123-1.514 3.506-1.514 1.712 0 3.062.708 3.819 2.074.955-1.366 2.354-2.074 4.099-2.074 1.333 0 2.452.428 3.21 1.169.889.856 1.333 2.025 1.333 3.457v7.967h-1.827l.033-.017zm14.09 0v-1.383c-.889 1.005-2.123 1.548-3.506 1.548-1.383 0-2.453-.412-3.21-1.169-.889-.856-1.267-2.041-1.267-3.49v-7.934h1.827v7.654c0 2.206 1.169 3.309 3.029 3.309 1.86 0 3.111-1.136 3.111-3.309v-7.654h1.827v12.428h-1.811zm14.305 0v-7.654c0-2.206-1.185-3.309-3.062-3.309-1.877 0-3.078 1.136-3.078 3.309v7.654h-1.811V184.79h1.811v1.366c.889-1.004 2.09-1.514 3.49-1.514 1.399 0 2.419.412 3.176 1.169.889.856 1.284 2.025 1.284 3.457v7.967h-1.827l.017-.017zm6.14-15.967v-2.041h2.041v2.041h-2.041zm.098 15.967V184.79h1.811v12.428h-1.811zm11.194.148c-3.128 0-5.515-2.123-5.515-6.37s2.371-6.37 5.515-6.37c1.712 0 2.798.461 4.099 1.843l-1.235 1.169c-.938-1.037-1.663-1.383-2.848-1.383-1.185 0-2.222.478-2.88 1.416-.577.806-.807 1.761-.807 3.341 0 1.581.23 2.535.807 3.342.658.938 1.662 1.416 2.88 1.416s1.926-.379 2.848-1.416l1.235 1.185c-1.284 1.383-2.371 1.844-4.099 1.844v-.017zm14.601-.148v-1.185c-.988.988-1.926 1.333-3.589 1.333-1.662 0-2.65-.296-3.506-1.135-.626-.61-.938-1.548-.938-2.535 0-2.206 1.547-3.589 4.312-3.589h3.721v-1.185c0-1.794-.889-2.733-3.177-2.733-1.564 0-2.371.412-3.128 1.449l-1.234-1.136c1.086-1.432 2.353-1.876 4.395-1.876 3.358 0 4.971 1.465 4.971 4.148v8.444h-1.827zm0-5.728h-3.457c-1.877 0-2.799.724-2.799 2.206 0 1.481.889 2.123 2.881 2.123 1.037 0 1.943-.099 2.749-.839.428-.412.626-1.12.626-2.14v-1.35zm9.728 5.728c-2.123 0-3.177-1.498-3.177-3.341v-7.704h-1.564v-1.383h1.564v-3.819h1.827v3.819h2.65v1.383h-2.65v7.654c0 1.136.527 1.827 1.696 1.827h.954v1.564h-1.3zm4.79-15.967v-2.041h2.041v2.041h-2.041zm.099 15.967V184.79h1.811v12.428h-1.811zm14.354-1.267c-.856.889-2.041 1.415-3.572 1.415-1.531 0-2.7-.526-3.556-1.415-1.267-1.284-1.514-3.029-1.514-4.955 0-1.926.247-3.687 1.514-4.955.856-.889 2.041-1.415 3.556-1.415 1.514 0 2.699.526 3.572 1.415 1.267 1.268 1.514 3.029 1.514 4.955 0 1.926-.247 3.671-1.514 4.955zm-1.284-8.79c-.609-.609-1.383-.906-2.272-.906-.889 0-1.646.297-2.255.906-.905.905-1.004 2.419-1.004 3.835s.082 2.914 1.004 3.835c.609.609 1.366.906 2.255.906.889 0 1.663-.297 2.272-.906.905-.938.988-2.452.988-3.835s-.083-2.93-.988-3.835zm14.65 10.057v-7.654c0-2.206-1.185-3.309-3.062-3.309-1.876 0-3.078 1.136-3.078 3.309v7.654h-1.811V184.79h1.811v1.366c.889-1.004 2.091-1.514 3.49-1.514s2.42.412 3.177 1.169c.889.856 1.284 2.025 1.284 3.457v7.967h-1.827l.016-.017z" fill="#fff"/></g><defs><clipPath id="clip0_863_200"><path fill="#fff" d="M0 0h320v320H0z"/></clipPath></defs></svg>