<svg width="320" height="320" viewBox="0 0 320 320" fill="none" xmlns="http://www.w3.org/2000/svg">
<g clip-path="url(#clip0_863_174)">
<path d="M160 320C248.362 320 320 248.362 320 160C320 71.6379 248.362 0 160 0C71.6379 0 0 71.6379 0 160C0 248.362 71.6379 320 160 320Z" fill="#CA2436"/>
<path d="M74.1729 162.519C70.6338 162.519 67.786 161.284 65.679 159.177C62.4856 155.984 62.2881 153.021 62.2881 145.235C62.2881 137.449 62.4856 134.502 65.679 131.292C67.786 129.185 70.6502 127.951 74.1729 127.951C80.3292 127.951 84.7737 131.72 85.9589 138.074H82.2387C81.3334 133.877 78.4198 131.21 74.1729 131.21C71.8848 131.21 69.8766 132.017 68.2963 133.597C66.1564 135.786 65.9095 138.272 65.9095 145.235C65.9095 152.198 66.1564 154.683 68.2963 156.872C69.8766 158.453 71.8683 159.259 74.1729 159.259C78.4198 159.259 81.4321 156.593 82.3375 152.395H85.9589C84.7737 158.749 80.2799 162.519 74.1729 162.519Z" fill="white"/>
<path d="M107.243 162.222V159.605C105.58 161.514 103.226 162.519 100.609 162.519C97.9918 162.519 95.9836 161.761 94.5515 160.329C92.8889 158.7 92.1647 156.461 92.1647 153.745V138.766H95.605V153.218C95.605 157.366 97.7943 159.473 101.333 159.473C104.872 159.473 107.21 157.333 107.21 153.218V138.766H110.65V162.239H107.259L107.243 162.222Z" fill="white"/>
<path d="M125.663 162.519C121.646 162.519 118.551 161.613 116.016 159.128L118.305 156.84C120.115 158.749 122.7 159.556 125.613 159.556C129.531 159.556 131.868 158.173 131.868 155.408C131.868 153.301 130.716 152.214 127.951 151.967L124.082 151.638C119.506 151.259 117.07 149.251 117.07 145.333C117.07 141.037 120.642 138.469 125.712 138.469C129.103 138.469 132.016 139.276 134.156 141.004L131.918 143.243C130.255 141.959 128.099 141.383 125.663 141.383C122.222 141.383 120.412 142.815 120.412 145.251C120.412 147.358 121.695 148.395 124.609 148.691L128.28 149.021C132.379 149.399 135.193 150.93 135.193 155.375C135.193 159.819 131.375 162.535 125.646 162.535L125.663 162.519Z" fill="white"/>
<path d="M147.572 162.222C143.572 162.222 141.564 159.407 141.564 155.918V141.366H138.601V138.749H141.564V131.539H145.004V138.749H150.008V141.366H145.004V155.819C145.004 157.959 146.008 159.259 148.198 159.259H150.008V162.222H147.572Z" fill="white"/>
<path d="M170.947 159.835C169.317 161.498 167.078 162.502 164.214 162.502C161.35 162.502 159.111 161.498 157.482 159.835C155.095 157.399 154.617 154.107 154.617 150.486C154.617 146.864 155.095 143.523 157.482 141.136C159.111 139.473 161.35 138.469 164.214 138.469C167.078 138.469 169.317 139.473 170.947 141.136C173.333 143.523 173.811 146.864 173.811 150.486C173.811 154.107 173.333 157.399 170.947 159.835ZM168.51 143.243C167.358 142.091 165.893 141.531 164.214 141.531C162.535 141.531 161.119 142.107 159.967 143.243C158.255 144.955 158.058 147.819 158.058 150.502C158.058 153.185 158.206 155.984 159.967 157.761C161.119 158.914 162.551 159.473 164.214 159.473C165.877 159.473 167.358 158.897 168.51 157.761C170.222 156 170.37 153.136 170.37 150.502C170.37 147.868 170.222 144.971 168.51 143.243Z" fill="white"/>
<path d="M210.37 162.222V147.77C210.37 143.621 208.132 141.514 204.593 141.514C201.053 141.514 198.716 143.654 198.716 147.391V162.239H195.276V147.786C195.276 143.638 193.037 141.531 189.498 141.531C185.959 141.531 183.621 143.671 183.621 147.786V162.239H180.181V138.765H183.621V141.35C185.284 139.44 187.638 138.486 190.255 138.486C193.498 138.486 196.033 139.819 197.465 142.403C199.276 139.819 201.909 138.486 205.202 138.486C207.737 138.486 209.827 139.292 211.259 140.675C212.922 142.305 213.794 144.494 213.794 147.21V162.239H210.354L210.37 162.222Z" fill="white"/>
<path d="M223.342 151.391C223.342 156.543 225.728 159.506 230.255 159.506C232.971 159.506 234.551 158.7 236.412 156.84L238.749 158.897C236.362 161.284 234.123 162.519 230.156 162.519C223.901 162.519 219.901 158.798 219.901 150.486C219.901 142.848 223.572 138.453 229.547 138.453C235.523 138.453 239.193 142.798 239.193 149.86V151.391H223.358H223.342ZM235.029 144.905C234.025 142.766 232.066 141.366 229.547 141.366C227.029 141.366 225.054 142.749 224.066 144.905C223.49 146.14 223.44 146.914 223.358 148.823H235.819C235.671 146.914 235.621 146.156 235.062 144.905H235.029Z" fill="white"/>
<path d="M258.65 143.243C257.366 141.959 256.412 141.531 254.601 141.531C251.161 141.531 248.971 144.247 248.971 147.835V162.255H245.531V138.782H248.971V141.646C250.255 139.687 252.84 138.502 255.556 138.502C257.794 138.502 259.523 139.029 261.185 140.691L258.65 143.276V143.243Z" fill="white"/>
<path d="M82.9136 199.605C81.037 199.605 79.5226 198.947 78.4197 197.844C76.7243 196.148 76.6255 194.584 76.6255 190.469C76.6255 186.354 76.7243 184.79 78.4197 183.095C79.5391 181.975 81.0535 181.333 82.9136 181.333C86.1728 181.333 88.5267 183.325 89.1522 186.683H87.1769C86.6996 184.461 85.1522 183.045 82.9136 183.045C81.6954 183.045 80.642 183.473 79.8024 184.313C78.6666 185.482 78.535 186.782 78.535 190.486C78.535 194.189 78.6666 195.49 79.8024 196.658C80.642 197.498 81.6954 197.926 82.9136 197.926C85.1687 197.926 86.749 196.51 87.2263 194.288H89.1522C88.5267 197.646 86.1399 199.638 82.9136 199.638V199.605Z" fill="white"/>
<path d="M100.543 198.189C99.6873 199.078 98.5021 199.605 96.9877 199.605C95.4733 199.605 94.2881 199.078 93.4321 198.189C92.1646 196.905 91.9177 195.161 91.9177 193.235C91.9177 191.309 92.1646 189.547 93.4321 188.28C94.2881 187.391 95.4733 186.864 96.9877 186.864C98.5021 186.864 99.6873 187.391 100.543 188.28C101.811 189.547 102.058 191.309 102.058 193.235C102.058 195.161 101.811 196.905 100.543 198.189ZM99.2593 189.399C98.6502 188.79 97.8766 188.494 96.9877 188.494C96.0988 188.494 95.3416 188.79 94.7325 189.399C93.8272 190.305 93.7284 191.819 93.7284 193.235C93.7284 194.65 93.8107 196.148 94.7325 197.07C95.3416 197.679 96.0988 197.975 96.9877 197.975C97.8766 197.975 98.6502 197.679 99.2593 197.07C100.165 196.132 100.247 194.617 100.247 193.235C100.247 191.852 100.165 190.305 99.2593 189.399Z" fill="white"/>
<path d="M121.416 199.457V191.803C121.416 189.597 120.23 188.494 118.354 188.494C116.477 188.494 115.243 189.63 115.243 191.605V199.457H113.416V191.803C113.416 189.597 112.23 188.494 110.354 188.494C108.477 188.494 107.243 189.63 107.243 191.803V199.457H105.416V187.029H107.243V188.395C108.132 187.391 109.366 186.881 110.749 186.881C112.461 186.881 113.811 187.589 114.568 188.955C115.523 187.589 116.922 186.881 118.667 186.881C120 186.881 121.119 187.309 121.877 188.049C122.765 188.905 123.21 190.074 123.21 191.506V199.473H121.383L121.416 199.457Z" fill="white"/>
<path d="M143.111 199.457V191.803C143.111 189.597 141.926 188.494 140.049 188.494C138.173 188.494 136.938 189.63 136.938 191.605V199.457H135.128V191.803C135.128 189.597 133.942 188.494 132.066 188.494C130.189 188.494 128.955 189.63 128.955 191.803V199.457H127.128V187.029H128.955V188.395C129.844 187.391 131.078 186.881 132.461 186.881C134.173 186.881 135.523 187.589 136.28 188.955C137.235 187.589 138.634 186.881 140.379 186.881C141.712 186.881 142.831 187.309 143.588 188.049C144.477 188.905 144.922 190.074 144.922 191.506V199.473H143.111V199.457Z" fill="white"/>
<path d="M156.708 199.457V198.074C155.819 199.078 154.584 199.621 153.202 199.621C151.819 199.621 150.749 199.21 149.992 198.453C149.103 197.597 148.724 196.412 148.724 194.963V187.029H150.551V194.683C150.551 196.889 151.72 197.992 153.58 197.992C155.44 197.992 156.691 196.856 156.691 194.683V187.029H158.502V199.457H156.708Z" fill="white"/>
<path d="M170.502 199.457V191.803C170.502 189.597 169.317 188.494 167.44 188.494C165.564 188.494 164.362 189.63 164.362 191.803V199.457H162.535V187.029H164.362V188.395C165.251 187.391 166.453 186.881 167.852 186.881C169.251 186.881 170.272 187.292 171.029 188.049C171.918 188.905 172.313 190.074 172.313 191.506V199.473H170.486L170.502 199.457Z" fill="white"/>
<path d="M176.132 183.49V181.449H178.173V183.49H176.132ZM176.23 199.457V187.029H178.058V199.457H176.23Z" fill="white"/>
<path d="M186.914 199.605C183.786 199.605 181.399 197.482 181.399 193.235C181.399 188.988 183.77 186.864 186.914 186.864C188.626 186.864 189.712 187.325 191.012 188.708L189.778 189.877C188.84 188.84 188.115 188.494 186.93 188.494C185.745 188.494 184.708 188.971 184.049 189.91C183.473 190.716 183.243 191.671 183.243 193.251C183.243 194.831 183.473 195.786 184.049 196.593C184.708 197.531 185.712 198.008 186.93 198.008C188.148 198.008 188.856 197.63 189.778 196.593L191.012 197.778C189.728 199.161 188.642 199.621 186.914 199.621V199.605Z" fill="white"/>
<path d="M201.004 199.457V198.272C200.016 199.259 199.078 199.605 197.416 199.605C195.753 199.605 194.765 199.309 193.909 198.469C193.284 197.86 192.971 196.922 192.971 195.934C192.971 193.728 194.519 192.346 197.284 192.346H201.004V191.161C201.004 189.366 200.115 188.428 197.827 188.428C196.263 188.428 195.457 188.84 194.7 189.877L193.465 188.741C194.551 187.309 195.819 186.864 197.86 186.864C201.218 186.864 202.831 188.329 202.831 191.012V199.457H201.004ZM201.004 193.728H197.547C195.671 193.728 194.749 194.453 194.749 195.934C194.749 197.416 195.638 198.058 197.63 198.058C198.667 198.058 199.572 197.959 200.379 197.218C200.807 196.807 201.004 196.099 201.004 195.078V193.745V193.728Z" fill="white"/>
<path d="M210.239 199.457C208.115 199.457 207.062 197.959 207.062 196.115V188.412H205.498V187.029H207.062V183.21H208.872V187.029H211.523V188.412H208.872V196.066C208.872 197.202 209.399 197.893 210.568 197.893H211.523V199.457H210.239Z" fill="white"/>
<path d="M214.519 183.49V181.449H216.56V183.49H214.519ZM214.634 199.457V187.029H216.461V199.457H214.634Z" fill="white"/>
<path d="M228.477 198.189C227.621 199.078 226.436 199.605 224.905 199.605C223.374 199.605 222.206 199.078 221.35 198.189C220.082 196.905 219.835 195.161 219.835 193.235C219.835 191.309 220.082 189.547 221.35 188.28C222.206 187.391 223.391 186.864 224.905 186.864C226.42 186.864 227.605 187.391 228.477 188.28C229.745 189.547 229.992 191.309 229.992 193.235C229.992 195.161 229.745 196.905 228.477 198.189ZM227.177 189.399C226.568 188.79 225.794 188.494 224.905 188.494C224.016 188.494 223.259 188.79 222.65 189.399C221.745 190.305 221.646 191.819 221.646 193.235C221.646 194.65 221.728 196.148 222.65 197.07C223.259 197.679 224.016 197.975 224.905 197.975C225.794 197.975 226.568 197.679 227.177 197.07C228.082 196.132 228.165 194.617 228.165 193.235C228.165 191.852 228.082 190.305 227.177 189.399Z" fill="white"/>
<path d="M241.333 199.457V191.803C241.333 189.597 240.148 188.494 238.272 188.494C236.395 188.494 235.193 189.63 235.193 191.803V199.457H233.366V187.029H235.193V188.395C236.082 187.391 237.284 186.881 238.683 186.881C240.082 186.881 241.103 187.292 241.86 188.049C242.749 188.905 243.144 190.074 243.144 191.506V199.473H241.333V199.457Z" fill="white"/>
</g>
<defs>
<clipPath id="clip0_863_174">
<rect width="320" height="320" fill="white"/>
</clipPath>
</defs>
</svg>
