<svg width="320" height="320" viewBox="0 0 320 320" fill="none" xmlns="http://www.w3.org/2000/svg">
<g clip-path="url(#clip0_863_200)">
<path d="M160 320C248.362 320 320 248.362 320 160C320 71.6379 248.362 0 160 0C71.6379 0 0 71.6379 0 160C0 248.362 71.6379 320 160 320Z" fill="#D4A200"/>
<path d="M113.185 159.984H99.967V126.008H112.757C118.667 126.008 122.782 129.399 122.782 135.078C122.782 138.65 120.642 141.465 117.778 142.519C121.021 143.704 123.309 146.535 123.309 150.584C123.309 156.741 119.21 159.984 113.185 159.984ZM112.477 129.235H103.605V141.021H112.477C116.247 141.021 119.16 139.161 119.16 135.111C119.16 131.062 116.247 129.235 112.477 129.235ZM112.856 144.28H103.605V156.741H112.856C117.053 156.741 119.687 154.305 119.687 150.486C119.687 146.667 117.07 144.28 112.856 144.28Z" fill="white"/>
<path d="M144.346 140.988C143.062 139.704 142.107 139.276 140.296 139.276C136.856 139.276 134.667 141.992 134.667 145.58V160H131.226V136.527H134.667V139.391C135.951 137.432 138.535 136.247 141.251 136.247C143.49 136.247 145.218 136.774 146.881 138.436L144.346 141.021V140.988Z" fill="white"/>
<path d="M164.625 159.984V157.745C162.765 159.605 161.004 160.28 157.844 160.28C154.683 160.28 152.839 159.704 151.21 158.14C150.025 156.988 149.448 155.226 149.448 153.366C149.448 149.218 152.362 146.584 157.613 146.584H164.625V144.346C164.625 140.955 162.963 139.193 158.617 139.193C155.654 139.193 154.123 139.951 152.708 141.909L150.37 139.77C152.428 137.054 154.815 136.23 158.667 136.23C165.021 136.23 168.066 138.996 168.066 144.049V159.984H164.625ZM164.625 149.136H158.09C154.551 149.136 152.79 150.519 152.79 153.284C152.79 156.049 154.453 157.3 158.239 157.3C160.197 157.3 161.909 157.103 163.44 155.72C164.247 154.963 164.642 153.613 164.642 151.671V149.136H164.625Z" fill="white"/>
<path d="M191.44 159.984V145.531C191.44 141.383 189.202 139.276 185.663 139.276C182.123 139.276 179.835 141.416 179.835 145.531V159.984H176.395V136.51H179.835V139.095C181.498 137.185 183.802 136.23 186.42 136.23C189.037 136.23 190.996 136.988 192.428 138.42C194.09 140.049 194.864 142.239 194.864 144.955V159.984H191.424H191.44Z" fill="white"/>
<path d="M217.251 159.984V157.169C215.292 159.654 213.234 160.263 210.568 160.263C208.132 160.263 206.074 159.457 204.839 158.206C202.502 155.819 201.975 152 201.975 148.231C201.975 144.461 202.502 140.593 204.839 138.255C206.074 137.021 208.132 136.198 210.568 136.198C213.185 136.198 215.243 136.774 217.202 139.21V125.992H220.642V159.967H217.251V159.984ZM211.341 139.259C206.189 139.259 205.432 143.654 205.432 148.231C205.432 152.807 206.189 157.202 211.341 157.202C216.494 157.202 217.218 152.807 217.218 148.231C217.218 143.654 216.461 139.259 211.341 139.259Z" fill="white"/>
<path d="M79.8847 197.366C78.0082 197.366 76.4938 196.708 75.3909 195.605C73.6954 193.91 73.5967 192.346 73.5967 188.231C73.5967 184.115 73.6954 182.552 75.3909 180.856C76.4938 179.737 78.0247 179.095 79.8847 179.095C83.144 179.095 85.4979 181.086 86.1234 184.445H84.1481C83.6708 182.222 82.1234 180.807 79.8847 180.807C78.6666 180.807 77.6131 181.235 76.7736 182.074C75.6378 183.243 75.5061 184.543 75.5061 188.247C75.5061 191.951 75.6378 193.251 76.7736 194.42C77.6131 195.259 78.6666 195.687 79.8847 195.687C82.1399 195.687 83.7201 194.272 84.1975 192.049H86.1234C85.4979 195.407 83.1111 197.399 79.8847 197.399V197.366Z" fill="white"/>
<path d="M98.0247 195.951C97.1687 196.84 95.9835 197.366 94.4527 197.366C92.9218 197.366 91.7531 196.84 90.8971 195.951C89.6296 194.667 89.3827 192.922 89.3827 190.996C89.3827 189.07 89.6296 187.309 90.8971 186.041C91.7531 185.152 92.9382 184.626 94.4527 184.626C95.9671 184.626 97.1522 185.152 98.0247 186.041C99.2922 187.309 99.5391 189.07 99.5391 190.996C99.5391 192.922 99.2922 194.667 98.0247 195.951ZM96.7243 187.161C96.1152 186.552 95.3415 186.255 94.4527 186.255C93.5638 186.255 92.8066 186.552 92.1975 187.161C91.2922 188.066 91.1934 189.58 91.1934 190.996C91.1934 192.412 91.2757 193.91 92.1975 194.831C92.8066 195.44 93.5638 195.737 94.4527 195.737C95.3415 195.737 96.1152 195.44 96.7243 194.831C97.6296 193.893 97.7119 192.379 97.7119 190.996C97.7119 189.613 97.6296 188.066 96.7243 187.161Z" fill="white"/>
<path d="M119.391 197.218V189.564C119.391 187.358 118.206 186.255 116.329 186.255C114.453 186.255 113.218 187.391 113.218 189.366V197.218H111.391V189.564C111.391 187.358 110.206 186.255 108.329 186.255C106.453 186.255 105.218 187.391 105.218 189.564V197.218H103.407V184.79H105.218V186.156C106.107 185.152 107.342 184.642 108.724 184.642C110.436 184.642 111.786 185.35 112.543 186.716C113.498 185.35 114.897 184.642 116.642 184.642C117.975 184.642 119.095 185.07 119.852 185.811C120.741 186.667 121.185 187.836 121.185 189.268V197.235H119.358L119.391 197.218Z" fill="white"/>
<path d="M141.597 197.218V189.564C141.597 187.358 140.412 186.255 138.535 186.255C136.658 186.255 135.424 187.391 135.424 189.366V197.218H133.597V189.564C133.597 187.358 132.412 186.255 130.535 186.255C128.658 186.255 127.424 187.391 127.424 189.564V197.218H125.613V184.79H127.424V186.156C128.313 185.152 129.547 184.642 130.93 184.642C132.642 184.642 133.992 185.35 134.749 186.716C135.704 185.35 137.103 184.642 138.848 184.642C140.181 184.642 141.3 185.07 142.058 185.811C142.947 186.667 143.391 187.836 143.391 189.268V197.235H141.564L141.597 197.218Z" fill="white"/>
<path d="M155.687 197.218V195.835C154.798 196.84 153.564 197.383 152.181 197.383C150.798 197.383 149.728 196.971 148.971 196.214C148.082 195.358 147.704 194.173 147.704 192.724V184.79H149.531V192.444C149.531 194.65 150.7 195.753 152.56 195.753C154.42 195.753 155.671 194.617 155.671 192.444V184.79H157.498V197.218H155.704H155.687Z" fill="white"/>
<path d="M169.992 197.218V189.564C169.992 187.358 168.807 186.255 166.93 186.255C165.053 186.255 163.852 187.391 163.852 189.564V197.218H162.041V184.79H163.852V186.156C164.741 185.152 165.942 184.642 167.342 184.642C168.741 184.642 169.761 185.054 170.518 185.811C171.407 186.667 171.802 187.836 171.802 189.268V197.235H169.975L169.992 197.218Z" fill="white"/>
<path d="M176.132 181.251V179.21H178.173V181.251H176.132ZM176.23 197.218V184.79H178.041V197.218H176.23Z" fill="white"/>
<path d="M187.424 197.366C184.296 197.366 181.909 195.243 181.909 190.996C181.909 186.749 184.28 184.626 187.424 184.626C189.136 184.626 190.222 185.087 191.523 186.469L190.288 187.638C189.35 186.601 188.625 186.255 187.44 186.255C186.255 186.255 185.218 186.733 184.56 187.671C183.983 188.477 183.753 189.432 183.753 191.012C183.753 192.593 183.983 193.547 184.56 194.354C185.218 195.292 186.222 195.77 187.44 195.77C188.658 195.77 189.366 195.391 190.288 194.354L191.523 195.539C190.239 196.922 189.152 197.383 187.424 197.383V197.366Z" fill="white"/>
<path d="M202.025 197.218V196.033C201.037 197.021 200.099 197.366 198.436 197.366C196.774 197.366 195.786 197.07 194.93 196.231C194.304 195.621 193.992 194.683 193.992 193.696C193.992 191.49 195.539 190.107 198.304 190.107H202.025V188.922C202.025 187.128 201.136 186.189 198.848 186.189C197.284 186.189 196.477 186.601 195.72 187.638L194.486 186.502C195.572 185.07 196.839 184.626 198.881 184.626C202.239 184.626 203.852 186.091 203.852 188.774V197.218H202.025ZM202.025 191.49H198.568C196.691 191.49 195.769 192.214 195.769 193.696C195.769 195.177 196.658 195.819 198.65 195.819C199.687 195.819 200.593 195.72 201.399 194.98C201.827 194.568 202.025 193.86 202.025 192.84V191.506V191.49Z" fill="white"/>
<path d="M211.753 197.218C209.63 197.218 208.576 195.72 208.576 193.877V186.173H207.012V184.79H208.576V180.971H210.403V184.79H213.053V186.173H210.403V193.827C210.403 194.963 210.93 195.654 212.099 195.654H213.053V197.218H211.77H211.753Z" fill="white"/>
<path d="M216.543 181.251V179.21H218.584V181.251H216.543ZM216.642 197.218V184.79H218.453V197.218H216.642Z" fill="white"/>
<path d="M230.996 195.951C230.14 196.84 228.955 197.366 227.424 197.366C225.893 197.366 224.724 196.84 223.868 195.951C222.601 194.667 222.354 192.922 222.354 190.996C222.354 189.07 222.601 187.309 223.868 186.041C224.724 185.152 225.909 184.626 227.424 184.626C228.938 184.626 230.123 185.152 230.996 186.041C232.263 187.309 232.51 189.07 232.51 190.996C232.51 192.922 232.263 194.667 230.996 195.951ZM229.712 187.161C229.103 186.552 228.329 186.255 227.44 186.255C226.551 186.255 225.794 186.552 225.185 187.161C224.28 188.066 224.181 189.58 224.181 190.996C224.181 192.412 224.263 193.91 225.185 194.831C225.794 195.44 226.551 195.737 227.44 195.737C228.329 195.737 229.103 195.44 229.712 194.831C230.617 193.893 230.7 192.379 230.7 190.996C230.7 189.613 230.617 188.066 229.712 187.161Z" fill="white"/>
<path d="M244.362 197.218V189.564C244.362 187.358 243.177 186.255 241.3 186.255C239.424 186.255 238.222 187.391 238.222 189.564V197.218H236.411V184.79H238.222V186.156C239.111 185.152 240.313 184.642 241.712 184.642C243.111 184.642 244.132 185.054 244.889 185.811C245.778 186.667 246.173 187.836 246.173 189.268V197.235H244.346L244.362 197.218Z" fill="white"/>
</g>
<defs>
<clipPath id="clip0_863_200">
<rect width="320" height="320" fill="white"/>
</clipPath>
</defs>
</svg>
