<svg width="320" height="320" viewBox="0 0 320 320" fill="none" xmlns="http://www.w3.org/2000/svg">
<g clip-path="url(#clip0_863_147)">
<path d="M160 320C248.362 320 320 248.362 320 160C320 71.6379 248.362 0 160 0C71.6379 0 0 71.6379 0 160C0 248.362 71.6379 320 160 320Z" fill="#004199"/>
<path d="M72.6293 160.263C69.09 160.263 66.2421 159.029 64.135 156.922C60.9414 153.728 60.7439 150.765 60.7439 142.979C60.7439 135.193 60.9414 132.247 64.135 129.037C66.2421 126.93 69.1065 125.695 72.6293 125.695C78.786 125.695 83.2306 129.465 84.4159 135.819H80.6955C79.7901 131.621 76.8764 128.955 72.6293 128.955C70.3411 128.955 68.3328 129.761 66.7524 131.342C64.6124 133.531 64.3655 136.016 64.3655 142.979C64.3655 149.942 64.6124 152.428 66.7524 154.617C68.3328 156.197 70.3246 157.004 72.6293 157.004C76.8764 157.004 79.8889 154.337 80.7943 150.14H84.4159C83.2142 156.494 78.7366 160.263 72.6293 160.263Z" fill="white"/>
<path d="M105.931 157.597C104.302 159.259 102.063 160.263 99.1985 160.263C96.3342 160.263 94.0954 159.259 92.4657 157.597C90.0787 155.161 89.6013 151.868 89.6013 148.247C89.6013 144.626 90.0787 141.284 92.4657 138.897C94.0954 137.235 96.3342 136.23 99.1985 136.23C102.063 136.23 104.302 137.235 105.931 138.897C108.318 141.284 108.796 144.626 108.796 148.247C108.796 151.868 108.318 155.161 105.931 157.597ZM103.511 140.988C102.359 139.835 100.894 139.276 99.215 139.276C97.5359 139.276 96.1202 139.852 94.9678 140.988C93.2558 142.7 93.0583 145.564 93.0583 148.247C93.0583 150.93 93.2064 153.728 94.9678 155.506C96.1202 156.658 97.5523 157.218 99.215 157.218C100.878 157.218 102.359 156.642 103.511 155.506C105.224 153.745 105.372 150.881 105.372 148.247C105.372 145.613 105.224 142.716 103.511 140.988Z" fill="white"/>
<path d="M128.319 140.988C127.035 139.704 126.08 139.276 124.269 139.276C120.829 139.276 118.64 141.992 118.64 145.58V160H115.199V136.527H118.64V139.391C119.924 137.432 122.508 136.247 125.224 136.247C127.463 136.247 129.191 136.774 130.854 138.436L128.319 141.02V140.988Z" fill="white"/>
<path d="M150.131 158.206C148.897 159.44 146.839 160.263 144.402 160.263C141.818 160.263 139.727 159.638 137.768 157.202V170.469H134.328V136.494H137.768V139.259C139.727 136.823 141.785 136.198 144.402 136.198C146.839 136.198 148.897 137.004 150.131 138.255C152.469 140.593 152.996 144.461 152.996 148.23C152.996 152 152.469 155.819 150.131 158.206ZM143.678 139.259C138.526 139.259 137.768 143.654 137.768 148.23C137.768 152.807 138.526 157.202 143.678 157.202C148.831 157.202 149.555 152.807 149.555 148.23C149.555 143.654 148.798 139.259 143.678 139.259Z" fill="white"/>
<path d="M174.462 157.597C172.832 159.259 170.593 160.263 167.729 160.263C164.864 160.263 162.626 159.259 160.996 157.597C158.609 155.161 158.132 151.868 158.132 148.247C158.132 144.626 158.609 141.284 160.996 138.897C162.626 137.235 164.864 136.23 167.729 136.23C170.593 136.23 172.832 137.235 174.462 138.897C176.849 141.284 177.326 144.626 177.326 148.247C177.326 151.868 176.849 155.161 174.462 157.597ZM172.025 140.988C170.873 139.835 169.408 139.276 167.729 139.276C166.05 139.276 164.634 139.852 163.482 140.988C161.77 142.7 161.572 145.564 161.572 148.247C161.572 150.93 161.72 153.728 163.482 155.506C164.634 156.658 166.066 157.218 167.729 157.218C169.391 157.218 170.873 156.642 172.025 155.506C173.737 153.745 173.885 150.881 173.885 148.247C173.885 145.613 173.737 142.716 172.025 140.988Z" fill="white"/>
<path d="M196.849 140.988C195.565 139.704 194.61 139.276 192.8 139.276C189.359 139.276 187.17 141.992 187.17 145.58V160H183.73V136.527H187.17V139.391C188.454 137.432 191.038 136.247 193.754 136.247C195.993 136.247 197.721 136.774 199.384 138.436L196.849 141.02V140.988Z" fill="white"/>
<path d="M216.176 159.984V157.745C214.316 159.605 212.554 160.28 209.394 160.28C206.233 160.28 204.389 159.704 202.759 158.14C201.574 156.988 200.998 155.226 200.998 153.366C200.998 149.218 203.912 146.584 209.163 146.584H216.176V144.346C216.176 140.955 214.513 139.193 210.167 139.193C207.204 139.193 205.673 139.951 204.257 141.909L201.92 139.77C203.978 137.054 206.365 136.23 210.217 136.23C216.571 136.23 219.616 138.996 219.616 144.049V159.984H216.176ZM216.176 149.136H209.64C206.101 149.136 204.34 150.519 204.34 153.284C204.34 156.049 206.002 157.3 209.789 157.3C211.748 157.3 213.46 157.103 214.991 155.72C215.797 154.963 216.176 153.613 216.176 151.671V149.136Z" fill="white"/>
<path d="M233.592 159.984C229.575 159.984 227.584 157.169 227.584 153.679V139.128H224.621V136.51H227.584V129.3H231.024V136.51H236.028V139.128H231.024V153.58C231.024 155.72 232.028 157.021 234.217 157.021H236.028V159.984H233.592Z" fill="white"/>
<path d="M244.045 149.136C244.045 154.288 246.432 157.251 250.959 157.251C253.676 157.251 255.256 156.444 257.116 154.584L259.454 156.642C257.067 159.029 254.828 160.263 250.861 160.263C244.605 160.263 240.605 156.543 240.605 148.23C240.605 140.593 244.276 136.198 250.252 136.198C256.227 136.198 259.898 140.543 259.898 147.605V149.136H244.062H244.045ZM255.733 142.65C254.729 140.51 252.77 139.111 250.252 139.111C247.733 139.111 245.758 140.494 244.77 142.65C244.194 143.885 244.144 144.658 244.062 146.568H256.523C256.375 144.658 256.326 143.901 255.766 142.65H255.733Z" fill="white"/>
<path d="M82.9175 197.366C81.0409 197.366 79.5265 196.708 78.4236 195.605C76.7282 193.91 76.6294 192.346 76.6294 188.231C76.6294 184.115 76.7282 182.552 78.4236 180.856C79.543 179.737 81.0574 179.095 82.9175 179.095C86.1767 179.095 88.5306 181.086 89.1561 184.445H87.1808C86.7035 182.222 85.1561 180.807 82.9175 180.807C81.6994 180.807 80.6459 181.235 79.8063 182.074C78.6705 183.243 78.5389 184.543 78.5389 188.247C78.5389 191.951 78.6705 193.251 79.8063 194.42C80.6459 195.259 81.6994 195.687 82.9175 195.687C85.1726 195.687 86.7529 194.272 87.2302 192.049H89.1561C88.5306 195.407 86.1438 197.399 82.9175 197.399V197.366Z" fill="white"/>
<path d="M100.548 195.951C99.6923 196.84 98.5071 197.367 96.9926 197.367C95.4781 197.367 94.2929 196.84 93.4368 195.951C92.1693 194.667 91.9224 192.922 91.9224 190.996C91.9224 189.07 92.1693 187.309 93.4368 186.041C94.2929 185.152 95.4781 184.626 96.9926 184.626C98.5071 184.626 99.6923 185.152 100.548 186.041C101.816 187.309 102.063 189.07 102.063 190.996C102.063 192.922 101.816 194.667 100.548 195.951ZM99.2643 187.161C98.6552 186.552 97.8815 186.255 96.9926 186.255C96.1036 186.255 95.3464 186.552 94.7373 187.161C93.8319 188.066 93.7332 189.581 93.7332 190.996C93.7332 192.412 93.8155 193.91 94.7373 194.832C95.3464 195.441 96.1036 195.737 96.9926 195.737C97.8815 195.737 98.6552 195.441 99.2643 194.832C100.17 193.894 100.252 192.379 100.252 190.996C100.252 189.614 100.17 188.066 99.2643 187.161Z" fill="white"/>
<path d="M121.422 197.219V189.564C121.422 187.358 120.237 186.255 118.36 186.255C116.483 186.255 115.249 187.391 115.249 189.367V197.219H113.438V189.564C113.438 187.358 112.253 186.255 110.376 186.255C108.499 186.255 107.265 187.391 107.265 189.564V197.219H105.438V184.79H107.265V186.157C108.154 185.152 109.388 184.642 110.771 184.642C112.483 184.642 113.833 185.35 114.59 186.716C115.545 185.35 116.944 184.642 118.689 184.642C120.023 184.642 121.142 185.07 121.899 185.811C122.788 186.667 123.233 187.836 123.233 189.268V197.235H121.422V197.219Z" fill="white"/>
<path d="M143.118 197.219V189.564C143.118 187.358 141.933 186.255 140.057 186.255C138.18 186.255 136.945 187.391 136.945 189.367V197.219H135.134V189.564C135.134 187.358 133.949 186.255 132.073 186.255C130.196 186.255 128.961 187.391 128.961 189.564V197.219H127.134V184.79H128.961V186.157C129.85 185.152 131.085 184.642 132.468 184.642C134.18 184.642 135.53 185.35 136.287 186.716C137.242 185.35 138.641 184.642 140.386 184.642C141.719 184.642 142.839 185.07 143.596 185.811C144.485 186.667 144.929 187.836 144.929 189.268V197.235H143.118V197.219Z" fill="white"/>
<path d="M156.716 197.219V195.836C155.827 196.84 154.592 197.383 153.21 197.383C151.827 197.383 150.757 196.972 149.999 196.215C149.111 195.359 148.732 194.173 148.732 192.725V184.79H150.559V192.445C150.559 194.651 151.728 195.754 153.588 195.754C155.448 195.754 156.699 194.618 156.699 192.445V184.79H158.51V197.219H156.716Z" fill="white"/>
<path d="M170.511 197.219V189.564C170.511 187.358 169.326 186.255 167.449 186.255C165.572 186.255 164.371 187.391 164.371 189.564V197.219H162.543V184.79H164.371V186.157C165.26 185.152 166.461 184.642 167.86 184.642C169.26 184.642 170.28 185.054 171.038 185.811C171.927 186.667 172.322 187.836 172.322 189.268V197.235H170.494L170.511 197.219Z" fill="white"/>
<path d="M176.141 181.251V179.21H178.182V181.251H176.141ZM176.24 197.218V184.79H178.067V197.218H176.24Z" fill="white"/>
<path d="M186.923 197.367C183.795 197.367 181.408 195.243 181.408 190.996C181.408 186.749 183.779 184.626 186.923 184.626C188.635 184.626 189.722 185.087 191.022 186.469L189.787 187.638C188.849 186.601 188.125 186.255 186.94 186.255C185.754 186.255 184.717 186.733 184.059 187.671C183.483 188.478 183.252 189.432 183.252 191.013C183.252 192.593 183.483 193.548 184.059 194.354C184.717 195.293 185.721 195.77 186.94 195.77C188.158 195.77 188.866 195.392 189.787 194.354L191.022 195.54C189.738 196.923 188.652 197.383 186.923 197.383V197.367Z" fill="white"/>
<path d="M201.014 197.219V196.034C200.027 197.021 199.088 197.367 197.426 197.367C195.763 197.367 194.775 197.071 193.919 196.231C193.294 195.622 192.981 194.684 192.981 193.696C192.981 191.49 194.528 190.107 197.294 190.107H201.014V188.922C201.014 187.128 200.125 186.189 197.837 186.189C196.273 186.189 195.467 186.601 194.71 187.638L193.475 186.502C194.561 185.07 195.829 184.626 197.87 184.626C201.228 184.626 202.842 186.091 202.842 188.774V197.219H201.014ZM201.014 191.49H197.557C195.681 191.49 194.759 192.214 194.759 193.696C194.759 195.178 195.648 195.82 197.64 195.82C198.677 195.82 199.582 195.721 200.389 194.98C200.817 194.568 201.014 193.861 201.014 192.84V191.507V191.49Z" fill="white"/>
<path d="M210.249 197.219C208.126 197.219 207.072 195.721 207.072 193.877V186.173H205.508V184.79H207.072V180.971H208.883V184.79H211.533V186.173H208.883V193.828C208.883 194.964 209.41 195.655 210.579 195.655H211.533V197.219H210.249Z" fill="white"/>
<path d="M214.53 181.251V179.21H216.571V181.251H214.53ZM214.628 197.218V184.79H216.455V197.218H214.628Z" fill="white"/>
<path d="M228.489 195.951C227.633 196.84 226.448 197.367 224.933 197.367C223.419 197.367 222.234 196.84 221.378 195.951C220.11 194.667 219.863 192.922 219.863 190.996C219.863 189.07 220.11 187.309 221.378 186.041C222.234 185.152 223.419 184.626 224.933 184.626C226.448 184.626 227.633 185.152 228.489 186.041C229.757 187.309 230.003 189.07 230.003 190.996C230.003 192.922 229.757 194.667 228.489 195.951ZM227.189 187.161C226.579 186.552 225.806 186.255 224.917 186.255C224.028 186.255 223.271 186.552 222.662 187.161C221.756 188.066 221.657 189.581 221.657 190.996C221.657 192.412 221.74 193.91 222.662 194.832C223.271 195.441 224.028 195.737 224.917 195.737C225.806 195.737 226.579 195.441 227.189 194.832C228.094 193.894 228.176 192.379 228.176 190.996C228.176 189.614 228.094 188.066 227.189 187.161Z" fill="white"/>
<path d="M241.346 197.219V189.564C241.346 187.358 240.16 186.255 238.284 186.255C236.407 186.255 235.205 187.391 235.205 189.564V197.219H233.378V184.79H235.205V186.157C236.094 185.152 237.296 184.642 238.695 184.642C240.095 184.642 241.115 185.054 241.872 185.811C242.761 186.667 243.156 187.836 243.156 189.268V197.235H241.329L241.346 197.219Z" fill="white"/>
</g>
<defs>
<clipPath id="clip0_863_147">
<rect width="320" height="320" fill="white"/>
</clipPath>
</defs>
</svg>
